<?xml version="1.0" encoding="UTF-8" standalone="no"?>
<!-- Created with Inkscape (http://www.inkscape.org/) -->

<svg
   xmlns:dc="http://purl.org/dc/elements/1.1/"
   xmlns:cc="http://creativecommons.org/ns#"
   xmlns:rdf="http://www.w3.org/1999/02/22-rdf-syntax-ns#"
   xmlns:svg="http://www.w3.org/2000/svg"
   xmlns="http://www.w3.org/2000/svg"
   xmlns:xlink="http://www.w3.org/1999/xlink"
   xmlns:sodipodi="http://sodipodi.sourceforge.net/DTD/sodipodi-0.dtd"
   xmlns:inkscape="http://www.inkscape.org/namespaces/inkscape"
   id="svg2"
   version="1.1"
   inkscape:version="0.91 r13725"
   width="2481"
   height="3503"
   sodipodi:docname="Pepper-and-Carrot_by-David-Revoy_E13P03.svg">
  <metadata
     id="metadata8">
    <rdf:RDF>
      <cc:Work
         rdf:about="">
        <dc:format>image/svg+xml</dc:format>
        <dc:type
           rdf:resource="http://purl.org/dc/dcmitype/StillImage" />
        <dc:title />
      </cc:Work>
    </rdf:RDF>
  </metadata>
  <defs
     id="defs6">
    <filter
       style="color-interpolation-filters:sRGB"
       id="filter5561-7-8-9"
       inkscape:label="Roughen">
      <feFlood
         id="feFlood5563-4-9-0"
         flood-opacity="1"
         flood-color="rgb(88,149,175)"
         result="flood" />
      <feComposite
         id="feComposite5565-6-3-0"
         in2="SourceGraphic"
         in="flood"
         operator="in"
         result="composite1" />
      <feMorphology
         id="feMorphology5567-3-48-3"
         operator="dilate"
         radius="5.5"
         result="result3" />
      <feComposite
         id="feComposite5569-6-6-5"
         in2="result3"
         in="SourceGraphic"
         operator="over"
         result="fbSourceGraphic" />
      <feColorMatrix
         result="fbSourceGraphicAlpha"
         in="fbSourceGraphic"
         values="0 0 0 -1 0 0 0 0 -1 0 0 0 0 -1 0 0 0 0 1 0"
         id="feColorMatrix4681-5-3" />
      <feTurbulence
         id="feTurbulence4683-3-9"
         type="fractalNoise"
         numOctaves="1"
         seed="33"
         baseFrequency="0.001 0.0199"
         result="turbulence" />
      <feDisplacementMap
         id="feDisplacementMap4685-0-6"
         in2="turbulence"
         in="fbSourceGraphic"
         scale="37.8"
         yChannelSelector="G"
         xChannelSelector="R" />
    </filter>
    <filter
       style="color-interpolation-filters:sRGB"
       id="filter5561-7-8-9-5"
       inkscape:label="Roughen">
      <feFlood
         id="feFlood5563-4-9-0-1"
         flood-opacity="1"
         flood-color="rgb(88,149,175)"
         result="flood" />
      <feComposite
         id="feComposite5565-6-3-0-8"
         in2="SourceGraphic"
         in="flood"
         operator="in"
         result="composite1" />
      <feMorphology
         id="feMorphology5567-3-48-3-8"
         operator="dilate"
         radius="5.5"
         result="result3" />
      <feComposite
         id="feComposite5569-6-6-5-6"
         in2="result3"
         in="SourceGraphic"
         operator="over"
         result="fbSourceGraphic" />
      <feColorMatrix
         result="fbSourceGraphicAlpha"
         in="fbSourceGraphic"
         values="0 0 0 -1 0 0 0 0 -1 0 0 0 0 -1 0 0 0 0 1 0"
         id="feColorMatrix4681-5-3-1" />
      <feTurbulence
         id="feTurbulence4683-3-9-7"
         type="fractalNoise"
         numOctaves="1"
         seed="33"
         baseFrequency="0.001 0.0199"
         result="turbulence" />
      <feDisplacementMap
         id="feDisplacementMap4685-0-6-9"
         in2="turbulence"
         in="fbSourceGraphic"
         scale="37.8"
         yChannelSelector="G"
         xChannelSelector="R" />
    </filter>
    <filter
       style="color-interpolation-filters:sRGB"
       id="filter5561-1"
       inkscape:label="deevad outline effect">
      <feFlood
         id="feFlood5563-9"
         flood-opacity="1"
         flood-color="rgb(0,0,0)"
         result="flood" />
      <feComposite
         id="feComposite5565-0"
         in2="SourceGraphic"
         in="flood"
         operator="in"
         result="composite1" />
      <feMorphology
         id="feMorphology5567-7"
         operator="dilate"
         radius="1.8999999999999999 6.0999999999999996"
         result="result3" />
      <feComposite
         id="feComposite5569-2"
         in2="result3"
         in="SourceGraphic"
         operator="over"
         result="composite2" />
    </filter>
  </defs>
  <sodipodi:namedview
     pagecolor="#ffffff"
     bordercolor="#666666"
     borderopacity="1"
     objecttolerance="10"
     gridtolerance="10"
     guidetolerance="10"
     inkscape:pageopacity="0"
     inkscape:pageshadow="2"
     inkscape:window-width="1920"
     inkscape:window-height="1024"
     id="namedview4"
     showgrid="false"
     inkscape:zoom="0.40000001"
     inkscape:cx="1960.4468"
     inkscape:cy="1156.7068"
     inkscape:window-x="-4"
     inkscape:window-y="-4"
     inkscape:window-maximized="1"
     inkscape:current-layer="layer1" />
  <g
     inkscape:groupmode="layer"
     id="layer2"
     inkscape:label="artwork"
     sodipodi:insensitive="true">
    <image
       sodipodi:absref="C:\Documents and Settings\Katerina\Plocha\Feferonka a Karotka\Episode 13\cs\..\gfx_Pepper-and-Carrot_by-David-Revoy_E13P03.png"
       xlink:href="..\gfx_Pepper-and-Carrot_by-David-Revoy_E13P03.png"
       y="0"
       x="0"
       id="image10"
       height="3503"
       width="2481" />
  </g>
  <g
     inkscape:groupmode="layer"
     id="layer3"
     inkscape:label="speechbubbles" />
  <g
     inkscape:groupmode="layer"
     id="layer1"
     inkscape:label="txt">
    <path
       style="fill:#ffffff;stroke:none"
       d="m 630.84207,1926.5781 c 1.81237,-31.3913 11.17543,-58.2325 90.47447,-58.2573 83.27941,-0.026 98.75042,16.7345 99.61395,59.0831 1.21871,59.7622 -45.71922,56.9808 -94.91688,57.1324 -68.91526,0.2124 -94.76463,0.2626 -95.17154,-57.9582 z"
       id="path3280-1"
       inkscape:connector-curvature="0"
       sodipodi:nodetypes="csssc" />
    <path
       style="color:#000000;display:inline;overflow:visible;visibility:visible;fill:#ffffff;fill-opacity:1;fill-rule:nonzero;stroke:none;stroke-width:1px;marker:none;filter:url(#filter4386);enable-background:accumulate"
       d="m 1459.6608,486.30966 c 4.3301,49.88168 -35.723,56.1972 -99.8019,62.78734 -34.4032,0.39696 -110.2072,3.44393 -170.3329,-4.36277 -47.1152,-6.11742 -84.6031,-18.89955 -84.9984,-44.84403 -1.0837,-71.12506 111.4947,-67.23814 187.4109,-66.88217 108.5287,0.5089 165.5171,13.3897 167.7223,53.30163 z"
       id="path3145-9-0"
       inkscape:connector-curvature="0"
       sodipodi:nodetypes="ccsssc" />
    <path
       style="color:#000000;display:inline;overflow:visible;visibility:visible;fill:#ffffff;fill-opacity:1;fill-rule:nonzero;stroke:none;stroke-width:1px;marker:none;filter:url(#filter4386);enable-background:accumulate"
       d="m 1254.2166,338.93956 c 4.2632,108.16198 -35.1703,121.85638 -98.2577,136.14623 -60.4125,1.53525 -250.49472,21.35076 -251.38052,-106.69858 C 903.51122,214.16174 1014.348,222.59 1089.0895,223.36188 c 106.8495,1.10348 162.9561,29.03382 165.1271,115.57768 z"
       id="path3145-9"
       inkscape:connector-curvature="0"
       sodipodi:nodetypes="ccssc" />
    <path
       style="fill:#ffffff;stroke:none"
       d="m 1751.3188,2818.5833 c -123.5801,-298.9244 23.6707,-1016.9455 23.6707,-1016.9455 l -33.5926,-0.458 c 0,0 -149.3925,713.6723 9.9219,1017.4035 z"
       id="path3067"
       inkscape:connector-curvature="0"
       sodipodi:nodetypes="cccc" />
    <path
       style="fill:#ffffff;fill-opacity:1;stroke:none"
       d="m 1619.5197,1841.6049 c 0.8095,-49.7428 96.3268,-72.2377 275.713,-67.0976 134.3417,3.8494 296.1947,3.7873 290.8297,74.7649 -2.6825,35.4888 -121.1063,45.3098 -284.8552,45.2837 -218.2287,-0.035 -282.1757,-22.9491 -281.6875,-52.951 z"
       id="path3238"
       inkscape:connector-curvature="0"
       sodipodi:nodetypes="sssss" />
    <path
       style="color:#000000;display:inline;overflow:visible;visibility:visible;fill:#ffffff;fill-opacity:1;fill-rule:nonzero;stroke:none;stroke-width:1px;marker:none;enable-background:accumulate"
       d="m 1020.0032,3150.1324 c 6.649,-5.6121 18.8184,-1.5311 27.4684,-4.3322 8.6501,-2.8012 13.7807,-12.4845 22.5098,-14.5542 30.216,-5.9341 62.942,4.2377 93.8226,2.1326 30.8808,-2.1051 59.9164,-16.4873 90.8301,-16.2919 29.4335,0.5757 56.054,14.7483 85.3881,17.7804 29.3341,3.0321 61.3819,-5.0766 89.5527,2.7216 13.4044,3.7329 12.5705,16.477 24.4207,23.1555 11.8501,6.6785 36.3843,7.2917 43.9744,17.8341 12.7688,17.1954 5.3845,37.6029 7.5343,57.673 2.1499,20.0698 13.834,39.8022 8.1892,59.0992 -4.2911,13.6794 -27.5009,21.5588 -36.1178,33.9804 -8.6169,12.4214 -2.6411,29.3849 -17.2292,37.0661 -13.8266,6.2648 -37.7382,-1.7896 -52.9303,1.1304 -15.1921,2.9198 -21.6648,16.8139 -36.9676,18.6428 -37.4187,3.6969 -77.0624,-9.1364 -114.7205,-8.7324 -37.6583,0.4039 -73.3308,14.0451 -110.8859,12.0006 -18.0262,-1.3624 -31.3033,-16.1868 -49.3368,-18.4033 -18.0336,-2.2163 -40.8233,8.1754 -57.6784,2.0073 -11.771,-4.1733 -14.1913,-19.2111 -22.7583,-27.151 -8.567,-7.9396 -23.2807,-8.781 -27.32445,-19.0847 -5.13931,-12.664 8.92475,-28.366 6.95675,-41.6363 -1.968,-13.2704 -19.9679,-24.1092 -20.5667,-37.4038 -0.0104,-18.0733 23.8687,-27.9321 31.9489,-44.4314 8.0802,-16.4992 0.3645,-39.639 13.92,-53.2028 z"
       id="path4040-4"
       inkscape:connector-curvature="0"
       sodipodi:nodetypes="cscscscscscscscscscscscsc" />
    <path
       style="color:#000000;display:inline;overflow:visible;visibility:visible;fill:#ffffff;fill-opacity:1;fill-rule:nonzero;stroke:none;stroke-width:1px;marker:none;enable-background:accumulate"
       d="m 568.9765,2070.5354 c 29.2314,-0.8578 38.11069,-16.0709 41.57447,-30.2351 3.46369,-14.1642 3.162,-23.3991 25.7719,-37.2845 22.6099,-13.8855 36.62854,-6.3564 49.09724,-12.9569 17.16101,-16.0085 2.99727,-37.4201 -0.24118,-49.5203 -3.57198,-13.3465 37.17368,-3.8411 37.17368,-3.8411 0,0 -0.98288,40.2063 -9.30735,62.789 -8.32443,22.5827 -52.58355,6.6035 -71.61632,18.8115 -17.77293,11.3999 -17.05952,37.4485 -29.32355,45.8579 -12.26411,8.4095 -29.34649,8.9491 -43.12889,6.3795 z"
       id="path4538"
       inkscape:connector-curvature="0"
       sodipodi:nodetypes="csscscsssc" />
    <path
       style="color:#000000;display:inline;overflow:visible;visibility:visible;fill:#ffffff;fill-opacity:1;fill-rule:nonzero;stroke:none;stroke-width:1px;marker:none;enable-background:accumulate"
       d="m 1235.0351,497.48612 c 20.0758,25.65981 40.3522,57.37851 42.1731,63.98868 1.821,6.61024 -12.4558,35.1273 -6.5551,43.98189 5.901,8.85457 26.9955,16.88948 29.5982,22.91015 2.6025,6.02046 -3.8012,30.37054 1.232,37.2182 5.0333,6.84775 39.5213,32.27779 41.285,37.15703 1.7637,4.87916 18.0233,150.15707 34.8293,173.84821 -16.9167,-51.11286 -18.94,-177.85435 -24.8408,-186.7088 -5.9009,-8.8547 -28.7876,-22.6343 -32.2866,-31.52725 -3.4987,-8.89277 2.1235,-32.65316 -4.5876,-41.78343 -6.7109,-9.13029 -22.1913,-16.96619 -22.1913,-16.96619 5.4424,-4.9942 28.4027,-37.40221 0.3184,-87.18236 -28.0841,-49.78016 -58.9746,-14.93613 -58.9746,-14.93613 z"
       id="path5050"
       inkscape:connector-curvature="0"
       sodipodi:nodetypes="ccccsccscccsc" />
    <path
       style="color:#000000;display:inline;overflow:visible;visibility:visible;fill:#ffffff;fill-opacity:1;fill-rule:nonzero;stroke:none;stroke-width:1px;marker:none;filter:url(#filter4386);enable-background:accumulate"
       d="m 689.47597,226.15636 c -2.79057,-75.40057 32.69649,-84.59565 89.39742,-93.99768 54.18098,-0.53863 224.79931,-12.67433 224.37201,76.55328 -0.5144,107.46773 -99.81125,100.6209 -166.81773,99.42605 -95.79159,-1.70815 -145.83082,-21.66216 -146.9517,-81.98165 z"
       id="path3145"
       inkscape:connector-curvature="0"
       sodipodi:nodetypes="ccssc" />
    <text
       xml:space="preserve"
       style="font-style:normal;font-variant:normal;font-weight:normal;font-stretch:normal;font-size:12px;line-height:125%;font-family:Lavi;-inkscape-font-specification:Lavi;text-align:center;letter-spacing:0px;word-spacing:0px;text-anchor:middle;fill:#000000;fill-opacity:1;stroke:none"
       x="1081.8322"
       y="305.76379"
       id="text4246"
       sodipodi:linespacing="125%"><tspan
         sodipodi:role="line"
         style="font-size:45px"
         x="1081.8322"
         y="305.76379"
         id="tspan3668">... občas mi</tspan><tspan
         sodipodi:role="line"
         style="font-size:45px"
         x="1081.8322"
         y="362.01379"
         id="tspan3425">to všechno</tspan><tspan
         sodipodi:role="line"
         style="font-size:45px"
         x="1081.8322"
         y="418.26379"
         id="tspan3427">přijde tak...</tspan></text>
    <path
       style="fill:#ffffff;stroke:none"
       d="m 471.28189,1770.8321 c 3.87604,-61.0006 23.90054,-113.1592 193.49506,-113.2074 178.10716,-0.051 211.19452,32.5191 213.04142,114.8122 2.60633,116.1317 -97.77834,110.7269 -202.99593,111.0215 -147.38704,0.4127 -202.67032,0.5102 -203.54055,-112.6263 z"
       id="path3280"
       inkscape:connector-curvature="0"
       sodipodi:nodetypes="csssc" />
    <text
       xml:space="preserve"
       style="font-style:normal;font-variant:normal;font-weight:normal;font-stretch:normal;font-size:12px;line-height:125%;font-family:Lavi;-inkscape-font-specification:Lavi;text-align:center;letter-spacing:0px;word-spacing:0px;text-anchor:middle;fill:#000000;fill-opacity:1;stroke:none"
       x="674.7868"
       y="1734.1648"
       id="text4246-4"
       sodipodi:linespacing="125%"><tspan
         sodipodi:role="line"
         style="font-size:45px"
         x="674.7868"
         y="1734.1648"
         id="tspan3677">Taky bych ráda</tspan><tspan
         sodipodi:role="line"
         style="font-size:45px"
         x="674.7868"
         y="1790.4148"
         id="tspan3474">bydlela v takovém</tspan><tspan
         sodipodi:role="line"
         style="font-size:45px"
         x="674.7868"
         y="1846.6648"
         id="tspan3476">pohodlí,</tspan></text>
    <path
       style="color:#000000;display:inline;overflow:visible;visibility:visible;fill:#ffffff;fill-opacity:1;fill-rule:nonzero;stroke:none;stroke-width:1px;marker:none;enable-background:accumulate"
       d="m 1184.1682,3144.0423 c -118.9029,-136.8804 -39.7363,-595.7748 29.2046,-695.0521 -81.4335,63.833 -170.8097,612.0513 -75.86,707.9585 32.6444,32.9738 165.5583,123.9739 46.6554,-12.9064 z"
       id="path4480"
       inkscape:connector-curvature="0"
       sodipodi:nodetypes="zcsz" />
    <text
       xml:space="preserve"
       style="color:#000000;font-style:normal;font-variant:normal;font-weight:normal;font-stretch:normal;font-size:160.11950684px;line-height:125%;font-family:Arial;-inkscape-font-specification:Arial;letter-spacing:0.02734961px;word-spacing:0px;clip-rule:nonzero;display:inline;overflow:visible;visibility:visible;opacity:1;isolation:auto;mix-blend-mode:normal;color-interpolation:sRGB;color-interpolation-filters:linearRGB;solid-color:#000000;solid-opacity:1;fill:#d7e3f4;fill-opacity:1;fill-rule:nonzero;stroke:#ffffff;stroke-width:1.11559534;stroke-linecap:butt;stroke-linejoin:miter;stroke-miterlimit:4;stroke-dasharray:none;stroke-dashoffset:0;stroke-opacity:1;marker:none;filter:url(#filter5561-7-8-9);color-rendering:auto;image-rendering:auto;shape-rendering:auto;text-rendering:auto;enable-background:accumulate"
       x="1705.2566"
       y="1742.2045"
       id="text4251-9-3"
       sodipodi:linespacing="125%"
       transform="matrix(0.54888838,-0.14175782,-0.09767403,1.263959,-104.74446,676.39979)"><tspan
         sodipodi:role="line"
         id="tspan4253-3-7"
         x="1705.2566"
         y="1742.2045"
         style="font-style:normal;font-variant:normal;font-weight:normal;font-stretch:normal;font-family:Lavi;-inkscape-font-specification:Lavi;fill:#d7e3f4;fill-opacity:1"><tspan
           style="font-size:90px;fill:#d7e3f4;fill-opacity:1"
           id="tspan4349-9-9" /><tspan
           id="tspan4365-0-3"
           style="font-size:45.57711792px;fill:#d7e3f4;fill-opacity:1" /><tspan
           id="tspan4311-9-7"
           style="font-size:55.8440094px;fill:#d7e3f4;fill-opacity:1"><tspan
   style="font-size:75.7964859px"
   id="tspan3414">Bzuuum</tspan> ! </tspan><tspan
           id="tspan4369-2-8"
           style="font-size:72.51364136px;fill:#d7e3f4;fill-opacity:1"> !</tspan></tspan></text>
    <text
       xml:space="preserve"
       style="color:#000000;font-style:normal;font-variant:normal;font-weight:normal;font-stretch:normal;font-size:160.11950684px;line-height:125%;font-family:Arial;-inkscape-font-specification:Arial;letter-spacing:0.02734961px;word-spacing:0px;display:inline;overflow:visible;visibility:visible;fill:#ffffff;fill-opacity:1;fill-rule:nonzero;stroke:#ffffff;stroke-width:1.11559534;stroke-linecap:butt;stroke-linejoin:miter;stroke-miterlimit:4;stroke-dasharray:none;stroke-dashoffset:0;stroke-opacity:1;marker:none;filter:url(#filter5561-1);enable-background:accumulate"
       id="text4251-1-3"
       sodipodi:linespacing="125%"
       inkscape:transform-center-x="-223.72753"
       inkscape:transform-center-y="137.11092"
       y="1742.2045"
       x="1705.2566"
       transform="matrix(0.5605584,-0.46242654,0.37517214,1.5026606,-52.257301,-434.9215)"><tspan
         sodipodi:role="line"
         id="tspan4253-5-1"
         x="1705.2566"
         y="1742.2045"
         style="font-style:normal;font-variant:normal;font-weight:normal;font-stretch:normal;font-size:45.57711792px;font-family:Lavi;-inkscape-font-specification:Lavi;letter-spacing:6.35989523px">dup !</tspan></text>
    <text
       xml:space="preserve"
       style="font-style:normal;font-variant:normal;font-weight:normal;font-stretch:normal;font-size:12px;line-height:125%;font-family:Lavi;-inkscape-font-specification:Lavi;text-align:center;letter-spacing:0px;word-spacing:0px;text-anchor:middle;fill:#000000;fill-opacity:1;stroke:none"
       x="1245.3212"
       y="3219.2651"
       id="text4246-4-8"
       sodipodi:linespacing="125%"><tspan
         sodipodi:role="line"
         style="font-size:45px"
         x="1245.3212"
         y="3219.2651"
         id="tspan3689">...<tspan
   style="font-style:italic;font-variant:normal;font-weight:normal;font-stretch:normal;font-family:Lavi;-inkscape-font-specification:'Lavi Italic'"
   id="tspan4352">&quot;Pravá-čarodějka-</tspan></tspan><tspan
         sodipodi:role="line"
         style="font-size:45px"
         x="1245.3212"
         y="3275.5151"
         id="tspan3482"><tspan
           style="font-style:italic;font-variant:normal;font-weight:normal;font-stretch:normal;font-family:Lavi;-inkscape-font-specification:'Lavi Italic'"
           id="tspan3455">z-Ahu-nestojí-o-život-</tspan></tspan><tspan
         sodipodi:role="line"
         style="font-size:45px"
         x="1245.3212"
         y="3331.7651"
         id="tspan3490"><tspan
   style="font-style:italic;font-variant:normal;font-weight:normal;font-stretch:normal;font-family:Lavi;-inkscape-font-specification:'Lavi Italic'"
   id="tspan3492">v-přepychu&quot;</tspan>.</tspan></text>
    <path
       style="color:#000000;display:inline;overflow:visible;visibility:visible;fill:#ffffff;fill-opacity:1;fill-rule:nonzero;stroke:none;stroke-width:1px;marker:none;enable-background:accumulate"
       d="m 1737.8653,1698.7725 c 25.4214,-33.1688 163.6905,-30.3372 209.6953,-15.9669 46.0045,14.3701 63.1225,39.1187 65.2622,47.9005 2.1396,8.7818 -3.2096,49.4974 -26.7469,57.4809 -23.5372,7.9834 -90.9392,11.9751 -114.4764,11.9751 -23.5372,0 -98.6732,-5.0814 -117.6863,-16.7653 -18.1878,-11.1768 -41.4693,-51.4559 -16.0479,-84.6243 z"
       id="path3330"
       inkscape:connector-curvature="0"
       sodipodi:nodetypes="zsssssz" />
    <text
       xml:space="preserve"
       style="font-style:normal;font-variant:normal;font-weight:normal;font-stretch:normal;font-size:14.16948414px;line-height:125%;font-family:Lavi;-inkscape-font-specification:Lavi;text-align:center;letter-spacing:0px;word-spacing:0px;text-anchor:middle;fill:#000000;fill-opacity:1;stroke:none"
       x="1915.8134"
       y="1708.2682"
       id="text4246-4-3"
       sodipodi:linespacing="125%"
       transform="scale(0.97654552,1.0240178)"><tspan
         sodipodi:role="line"
         style="font-size:53.13556671px"
         x="1915.8134"
         y="1708.2682"
         id="tspan4315-1">Ha ha !...</tspan></text>
    <text
       xml:space="preserve"
       style="font-style:normal;font-variant:normal;font-weight:normal;font-stretch:normal;font-size:12px;line-height:125%;font-family:Lavi;-inkscape-font-specification:Lavi;text-align:center;letter-spacing:0px;word-spacing:0px;text-anchor:middle;fill:#000000;fill-opacity:1;stroke:none"
       x="1906.6222"
       y="1850.656"
       id="text4246-4-5"
       sodipodi:linespacing="125%"><tspan
         sodipodi:role="line"
         style="font-size:45px"
         x="1906.6222"
         y="1850.656"
         id="tspan4315-4">Důležitost tradice...</tspan></text>
    <path
       style="fill:#ffffff;fill-opacity:1;stroke:none"
       d="m 1584.2022,1980.2195 c -0.9264,-121.1805 114.6232,-119.2524 223.8329,-114.7912 109.1161,4.4572 240.4604,-13.0709 236.1049,130.2761 -2.1776,71.6734 -98.318,91.5081 -231.2546,91.4553 -177.1653,-0.072 -228.22,-46.3498 -228.6832,-106.9402 z"
       id="path3238-4"
       inkscape:connector-curvature="0"
       sodipodi:nodetypes="sssss" />
    <text
       xml:space="preserve"
       style="font-style:normal;font-variant:normal;font-weight:normal;font-stretch:normal;font-size:12px;line-height:125%;font-family:Lavi;-inkscape-font-specification:Lavi;text-align:center;letter-spacing:0px;word-spacing:0px;text-anchor:middle;fill:#000000;fill-opacity:1;stroke:none"
       x="1817.5015"
       y="1937.4774"
       id="text4246-4-5-6"
       sodipodi:linespacing="125%"><tspan
         sodipodi:role="line"
         style="font-size:45px"
         x="1817.5015"
         y="1937.4774"
         id="tspan3705">To zní jako něco,</tspan><tspan
         sodipodi:role="line"
         style="font-size:45px"
         x="1817.5015"
         y="1993.7274"
         id="tspan3499">co by řekly moje</tspan><tspan
         sodipodi:role="line"
         style="font-size:45px"
         x="1817.5015"
         y="2049.9775"
         id="tspan3501">kmotřičky!</tspan></text>
    <path
       style="color:#000000;display:inline;overflow:visible;visibility:visible;fill:#ffffff;fill-opacity:1;fill-rule:nonzero;stroke:none;stroke-width:1px;marker:none;enable-background:accumulate"
       d="m 1979.3673,2645.2287 c -6.3053,-24.3593 10.509,-89.0635 139.7698,-83.7349 129.2607,5.3285 150.2788,35.7776 153.4315,44.9123 3.1527,9.1347 30.4761,60.8981 -70.4104,74.6003 -100.8865,13.702 -191.2638,-0.7613 -222.7909,-35.7777 z"
       id="path3525"
       inkscape:connector-curvature="0" />
    <path
       style="color:#000000;display:inline;overflow:visible;visibility:visible;fill:#ffffff;fill-opacity:1;fill-rule:nonzero;stroke:none;stroke-width:1px;marker:none;enable-background:accumulate"
       d="m 2075.1234,2655.3197 c -3.6441,17.7301 -11.4447,39.2898 -14.8162,43.5939 -3.3716,4.3041 -33.9861,21.1325 -35.9893,27.1701 -2.003,6.0374 7.6075,12.7532 5.2221,16.7476 -2.3853,3.9943 -24.325,18.8186 -25.5329,23.5247 -1.208,4.706 5.7751,23.4243 3.5911,26.6343 -2.1838,3.2099 -13.8992,20.5911 -18.5194,36.825 24.0138,-33.5034 32.9004,-38.0978 34.9034,-44.1353 2.0031,-6.0375 -4.8295,-16.5104 -1.0552,-22.3832 3.7742,-5.8728 24.7276,-20.3873 26.3381,-26.6621 1.6106,-6.2747 -4.065,-12.4239 -4.065,-12.4239 7.4977,-2.7159 47.1797,-21.3111 62.1362,-54.8537 14.9567,-33.5427 -32.2129,-14.0374 -32.2129,-14.0374 z"
       id="path5050-4"
       inkscape:connector-curvature="0" />
    <text
       xml:space="preserve"
       style="font-style:normal;font-variant:normal;font-weight:normal;font-stretch:normal;font-size:12px;line-height:125%;font-family:Lavi;-inkscape-font-specification:Lavi;text-align:center;letter-spacing:0px;word-spacing:0px;text-anchor:middle;fill:#000000;fill-opacity:1;stroke:none"
       x="2130.4675"
       y="2639.6023"
       id="text4246-4-9"
       sodipodi:linespacing="125%"><tspan
         sodipodi:role="line"
         style="font-size:45px"
         x="2130.4675"
         y="2639.6023"
         id="tspan4466-9">Opravdu?</tspan></text>
    <text
       sodipodi:linespacing="125%"
       id="text4202"
       y="200.76379"
       x="843.20715"
       style="font-style:normal;font-variant:normal;font-weight:normal;font-stretch:normal;font-size:12px;line-height:125%;font-family:Lavi;-inkscape-font-specification:Lavi;text-align:center;letter-spacing:0px;word-spacing:0px;text-anchor:middle;fill:#000000;fill-opacity:1;stroke:none"
       xml:space="preserve"><tspan
         y="200.76379"
         x="851.11731"
         style="font-size:45px"
         sodipodi:role="line"
         id="tspan3653">To je od </tspan><tspan
         y="257.01379"
         x="843.20715"
         style="font-size:45px"
         sodipodi:role="line"
         id="tspan3435">vás milé...</tspan><tspan
         y="313.26379"
         x="843.20715"
         style="font-size:45px"
         sodipodi:role="line"
         id="tspan3418" /></text>
    <text
       xml:space="preserve"
       style="font-style:normal;font-variant:normal;font-weight:normal;font-stretch:normal;font-size:12px;line-height:125%;font-family:Lavi;-inkscape-font-specification:Lavi;text-align:center;letter-spacing:0px;word-spacing:0px;text-anchor:middle;fill:#000000;fill-opacity:1;stroke:none"
       x="1285.0151"
       y="506.20026"
       id="text4246-41"
       sodipodi:linespacing="125%"><tspan
         sodipodi:role="line"
         style="font-size:45px"
         x="1285.0151"
         y="506.20026"
         id="tspan4291">... &quot;všední&quot;?...</tspan></text>
    <text
       xml:space="preserve"
       style="font-style:normal;font-variant:normal;font-weight:normal;font-stretch:normal;font-size:12px;line-height:125%;font-family:Lavi;-inkscape-font-specification:Lavi;text-align:center;letter-spacing:0px;word-spacing:0px;text-anchor:middle;fill:#000000;fill-opacity:1;stroke:none"
       x="731.60193"
       y="1943.6664"
       id="text4246-4-81"
       sodipodi:linespacing="125%"><tspan
         sodipodi:role="line"
         style="font-size:45px"
         x="731.60193"
         y="1943.6664"
         id="tspan4466-1">ale...</tspan></text>
    <text
       xml:space="preserve"
       style="font-style:normal;font-weight:normal;font-size:40px;line-height:125%;font-family:sans-serif;letter-spacing:0px;word-spacing:0px;fill:#000000;fill-opacity:1;stroke:none;stroke-width:1px;stroke-linecap:butt;stroke-linejoin:miter;stroke-opacity:1"
       x="882.5"
       y="235.50008"
       id="text3437"
       sodipodi:linespacing="125%"><tspan
         sodipodi:role="line"
         id="tspan3439"
         x="882.5"
         y="235.50008" /></text>
  </g>
</svg>
