<?xml version="1.0" encoding="UTF-8" standalone="no"?>
<!-- Created with Inkscape (http://www.inkscape.org/) -->

<svg
   xmlns:dc="http://purl.org/dc/elements/1.1/"
   xmlns:cc="http://creativecommons.org/ns#"
   xmlns:rdf="http://www.w3.org/1999/02/22-rdf-syntax-ns#"
   xmlns:svg="http://www.w3.org/2000/svg"
   xmlns="http://www.w3.org/2000/svg"
   xmlns:xlink="http://www.w3.org/1999/xlink"
   xmlns:sodipodi="http://sodipodi.sourceforge.net/DTD/sodipodi-0.dtd"
   xmlns:inkscape="http://www.inkscape.org/namespaces/inkscape"
   id="svg2"
   version="1.1"
   inkscape:version="0.91 r13725"
   width="2481"
   height="3503"
   sodipodi:docname="Pepper-and-Carrot_by-David-Revoy_E13P04.svg">
  <metadata
     id="metadata8">
    <rdf:RDF>
      <cc:Work
         rdf:about="">
        <dc:format>image/svg+xml</dc:format>
        <dc:type
           rdf:resource="http://purl.org/dc/dcmitype/StillImage" />
        <dc:title />
      </cc:Work>
    </rdf:RDF>
  </metadata>
  <defs
     id="defs6">
    <linearGradient
       inkscape:collect="always"
       id="linearGradient4313">
      <stop
         style="stop-color:#ff8bff;stop-opacity:1;"
         offset="0"
         id="stop4315" />
      <stop
         style="stop-color:#ffffff;stop-opacity:1"
         offset="1"
         id="stop4317" />
    </linearGradient>
    <filter
       style="color-interpolation-filters:sRGB"
       id="filter5561"
       inkscape:label="deevad outline effect">
      <feFlood
         id="feFlood5563"
         flood-opacity="1"
         flood-color="rgb(0,0,0)"
         result="flood" />
      <feComposite
         id="feComposite5565"
         in2="SourceGraphic"
         in="flood"
         operator="in"
         result="composite1" />
      <feMorphology
         id="feMorphology5567"
         operator="dilate"
         radius="5.5"
         result="result3" />
      <feComposite
         id="feComposite5569"
         in2="result3"
         in="SourceGraphic"
         operator="over"
         result="composite2" />
    </filter>
    <filter
       style="color-interpolation-filters:sRGB;"
       id="filter5561-2"
       inkscape:label="Rough and Dilate"
       y="-0.2"
       height="1.4"
       inkscape:menu="Distort"
       inkscape:menu-tooltip="Create a turbulent contour around">
      <feFlood
         id="feFlood5563-5"
         flood-opacity="1"
         flood-color="rgb(0,0,0)"
         result="flood" />
      <feComposite
         id="feComposite5565-5"
         in2="SourceGraphic"
         in="flood"
         operator="in"
         result="composite1" />
      <feMorphology
         id="feMorphology5567-9"
         operator="dilate"
         radius="5.5"
         result="result3" />
      <feComposite
         id="feComposite5569-5"
         in2="result3"
         in="SourceGraphic"
         operator="over"
         result="fbSourceGraphic" />
      <feColorMatrix
         result="fbSourceGraphicAlpha"
         in="fbSourceGraphic"
         values="0 0 0 -1 0 0 0 0 -1 0 0 0 0 -1 0 0 0 0 1 0"
         id="feColorMatrix4476" />
      <feMorphology
         id="feMorphology4478"
         radius="7"
         operator="dilate"
         result="result8"
         in="fbSourceGraphic" />
      <feComposite
         id="feComposite4480"
         in2="result8"
         result="result10"
         in="fbSourceGraphic"
         operator="arithmetic"
         k1="0.5"
         k3="0.5" />
      <feTurbulence
         id="feTurbulence4482"
         result="result11"
         type="fractalNoise"
         numOctaves="3"
         baseFrequency="0.07" />
      <feDisplacementMap
         id="feDisplacementMap4484"
         in2="result11"
         result="result12"
         in="result10"
         xChannelSelector="R"
         scale="10" />
      <feComposite
         id="feComposite4486"
         in2="result12"
         operator="arithmetic"
         result="result13"
         in="fbSourceGraphic"
         k1="0.25"
         k2="0.25"
         k3="0.75" />
    </filter>
    <filter
       style="color-interpolation-filters:sRGB;"
       id="filter5561-7"
       inkscape:label="Roughen">
      <feFlood
         id="feFlood5563-4"
         flood-opacity="1"
         flood-color="rgb(95,27,88)"
         result="flood" />
      <feComposite
         id="feComposite5565-6"
         in2="SourceGraphic"
         in="flood"
         operator="in"
         result="composite1" />
      <feMorphology
         id="feMorphology5567-3"
         operator="dilate"
         radius="5.5"
         result="result3" />
      <feComposite
         id="feComposite5569-6"
         in2="result3"
         in="SourceGraphic"
         operator="over"
         result="fbSourceGraphic" />
      <feColorMatrix
         result="fbSourceGraphicAlpha"
         in="fbSourceGraphic"
         values="0 0 0 -1 0 0 0 0 -1 0 0 0 0 -1 0 0 0 0 1 0"
         id="feColorMatrix4681" />
      <feTurbulence
         id="feTurbulence4683"
         type="fractalNoise"
         numOctaves="1"
         seed="33"
         baseFrequency="0.001 0.0199"
         result="turbulence"
         in="fbSourceGraphic" />
      <feDisplacementMap
         id="feDisplacementMap4685"
         in2="turbulence"
         in="fbSourceGraphic"
         scale="37.8"
         yChannelSelector="G"
         xChannelSelector="R" />
    </filter>
    <linearGradient
       inkscape:collect="always"
       xlink:href="#linearGradient4313"
       id="linearGradient4319"
       x1="1636.8805"
       y1="1709.2629"
       x2="2493.7808"
       y2="1709.2629"
       gradientUnits="userSpaceOnUse" />
    <filter
       style="color-interpolation-filters:sRGB"
       id="filter4375-5-4-9"
       inkscape:label="deevad outline effect">
      <feFlood
         id="feFlood4377-0-3-0"
         flood-opacity="1"
         flood-color="rgb(255,255,255)"
         result="flood" />
      <feComposite
         id="feComposite4379-6-6-2"
         in2="SourceGraphic"
         in="flood"
         operator="in"
         result="composite1" />
      <feMorphology
         id="feMorphology4393-0-9-2"
         operator="dilate"
         radius="4"
         result="result3" />
      <feComposite
         id="feComposite4385-7-5-85"
         in2="result3"
         in="SourceGraphic"
         operator="over"
         result="composite2" />
    </filter>
  </defs>
  <sodipodi:namedview
     pagecolor="#ffffff"
     bordercolor="#666666"
     borderopacity="1"
     objecttolerance="10"
     gridtolerance="10"
     guidetolerance="10"
     inkscape:pageopacity="0"
     inkscape:pageshadow="2"
     inkscape:window-width="1304"
     inkscape:window-height="745"
     id="namedview4"
     showgrid="false"
     inkscape:zoom="0.46000001"
     inkscape:cx="907.31412"
     inkscape:cy="1321.9962"
     inkscape:window-x="-8"
     inkscape:window-y="-8"
     inkscape:window-maximized="1"
     inkscape:current-layer="layer1" />
  <g
     inkscape:groupmode="layer"
     id="layer2"
     inkscape:label="artwork"
     sodipodi:insensitive="true">
    <image
       sodipodi:absref="E:\Projects\Pepper&amp;Carrot\peppercarrot_ep13_translation\hu\..\gfx_Pepper-and-Carrot_by-David-Revoy_E13P04.png"
       xlink:href="../gfx_Pepper-and-Carrot_by-David-Revoy_E13P04.png"
       width="2481"
       height="3503"
       id="image10"
       x="0"
       y="0" />
  </g>
  <g
     inkscape:groupmode="layer"
     id="layer3"
     inkscape:label="speechbubbles" />
  <g
     inkscape:groupmode="layer"
     id="layer1"
     inkscape:label="txt">
    <path
       style="fill:#ffffff;stroke:none"
       d="m 214.0825,1717.8802 c 2.7367,-75.0506 48.72312,-100.6911 97.27366,-115.6344 48.55056,-14.9431 234.27771,-8.2038 266.60624,-0.9295 32.32855,7.2745 80.95158,23.7596 96.12682,60.8195 15.17525,37.06 15.29917,110.5779 -0.18348,136.2262 -15.97739,26.4679 -37.86892,38.9647 -146.45549,47.4923 -108.58659,8.5275 -260.32613,-0.9849 -285.36411,-34.9707 -25.03802,-33.9857 -27.77332,-47.5964 -28.00364,-93.0034 z"
       id="path3286-5"
       inkscape:connector-curvature="0"
       sodipodi:nodetypes="czzsszzc" />
    <path
       style="fill:#ffffff;fill-rule:evenodd;stroke:none;stroke-width:1px;stroke-linecap:butt;stroke-linejoin:miter;stroke-opacity:1"
       d="m 333.3784,3035.1905 c 25.60091,4.7867 29.15684,-6.3823 10.66709,-33.5074 25.17472,14.8421 25.82493,-1.4971 22.93425,-22.3382 12.93818,15.244 21.72974,11.8803 26.13439,-11.1691 8.91774,3.6485 11.74778,23.2323 30.93457,0 11.02267,27.953 22.04533,10.778 33.068,0 -5.55411,23.0037 1.49226,28.0161 27.2011,6.3823 -12.30069,26.2842 -5.65206,28.7591 17.6007,10.3713 -16.79837,27.9876 1.86549,29.4529 18.13407,32.7097 -10.7893,16.2549 -12.29282,27.6078 1.06671,31.1139 -25.32117,2.7296 -21.48571,13.8462 -10.13375,27.125 -22.11183,-5.5013 -29.60746,-0.071 -17.6007,19.9449 -34.17608,-21.926 -28.6903,-5.9202 -30.40123,4.7868 -14.47015,-8.2656 -18.2249,-19.6075 -30.40122,3.1911 -7.23293,-7.0168 -8.37344,-23.6942 -31.46793,-0.7978 -5.32485,-25.8323 -18.88273,-7.224 -29.33451,-3.989 1.84383,-13.6123 3.34113,-26.8298 -24.00096,-7.1801 5.11171,-13.4442 8.81452,-26.0638 -18.13407,-20.7426 23.37457,-13.3462 13.70534,-24.6329 3.73349,-35.9008 z"
       id="path4772"
       inkscape:connector-curvature="0"
       sodipodi:nodetypes="ccccccccccccccccccc" />
    <path
       style="color:#000000;display:inline;overflow:visible;visibility:visible;fill:#ffffff;fill-opacity:1;fill-rule:nonzero;stroke:none;stroke-width:1px;marker:none;enable-background:accumulate"
       d="m 1868.3474,1924.1189 c 54.3098,-48.3252 137.7616,34.2953 137.7616,34.2953 l -23.8433,15.5888 c 0,0 -66.2317,-63.914 -113.9183,-49.8841 z"
       id="path3581"
       inkscape:connector-curvature="0" />
    <path
       style="fill:#ffffff;stroke:none"
       d="m 1919.2809,1954.7428 c 3.6668,-37.8654 18.9677,-69.5074 61.388,-83.7107 42.4203,-14.2033 69.7057,-16.1921 128.0649,-15.5033 58.3591,0.6886 173.1123,-4.4241 209.8717,25.5154 36.7595,29.9396 40.4149,33.9219 45.1648,55.7394 1.1973,39.9746 -17.2214,83.0581 -53.0651,92.3298 -35.8438,9.2716 -67.4645,10.6812 -98.9008,12.9646 -31.4364,2.2833 -75.2433,1.4179 -114.491,-3.0374 -39.2476,-4.4554 -80.7697,-4.1103 -122.8326,-13.5736 -42.0627,-9.4632 -57.1624,-46.0611 -55.1999,-70.7242 z"
       id="path3278"
       inkscape:connector-curvature="0"
       sodipodi:nodetypes="czzzczzzzc" />
    <path
       style="color:#000000;display:inline;overflow:visible;visibility:visible;fill:#ffffff;fill-opacity:1;fill-rule:nonzero;stroke:none;stroke-width:1px;marker:none;enable-background:accumulate"
       d="m 813.82924,1837.1097 c -33.9191,-40.941 -65.92763,-19.5814 -77.33904,-16.6284 -11.4114,2.9531 -52.60696,13.9731 -78.13395,-21.0927 -25.52709,-35.0658 -73.65265,-32.0238 -73.65265,-32.0238 l 37.03502,53.2829 c 0,0 43.26371,26.3805 71.49065,25.0393 28.22696,-1.3413 64.27245,-20.6563 78.41788,-18.5689 14.14543,2.0872 29.27593,-0.6069 42.18209,9.9916 z"
       id="path4018"
       inkscape:connector-curvature="0" />
    <path
       style="fill:#ffffff;stroke:none"
       d="m 158.18353,1549.7261 c 1.72739,-52.9482 30.75372,-71.0376 61.39852,-81.5801 30.64481,-10.5423 147.8746,-5.7878 168.28017,-0.6557 20.40558,5.1322 51.09612,16.7623 60.67464,42.9081 9.57852,26.1458 9.65674,78.0127 -0.11581,96.1076 -10.08482,18.6731 -23.90262,27.4895 -92.44178,33.5058 -68.53916,6.0161 -164.3162,-0.6949 -180.12002,-24.6718 -15.80384,-23.9769 -17.53035,-33.5793 -17.67572,-65.6139 z"
       id="path3286"
       inkscape:connector-curvature="0"
       sodipodi:nodetypes="czzsszzc" />
    <path
       style="color:#000000;display:inline;overflow:visible;visibility:visible;fill:#ffffff;fill-opacity:1;fill-rule:nonzero;stroke:none;stroke-width:1px;marker:none;enable-background:accumulate"
       d="m 925.82015,1139.8112 c 16.63467,9.0232 47.05013,2.0854 61.28297,-23.6046 17.87068,-32.2563 -11.97622,-20.9955 -11.97622,-20.9955 0.0814,-0.061 -3.47121,44.011 -49.30675,44.6001 z"
       id="path5002-9"
       inkscape:connector-curvature="0"
       sodipodi:nodetypes="cscc" />
    <path
       style="color:#000000;display:inline;overflow:visible;visibility:visible;fill:#ffffff;fill-opacity:1;fill-rule:nonzero;stroke:none;stroke-width:1px;marker:none;enable-background:accumulate"
       d="m 1134.9962,1140.2619 c -25.741,11.1526 -80.3236,-13.645 -112.6963,-70.5424 -29.27128,-51.4465 30.2332,-17.5435 30.2332,-17.5435 4e-4,6e-4 11.568,79.3325 82.4631,88.0859 z"
       id="path5002"
       inkscape:connector-curvature="0"
       sodipodi:nodetypes="cscc" />
    <path
       style="color:#000000;display:inline;overflow:visible;visibility:visible;fill:#ffffff;fill-opacity:1;fill-rule:nonzero;stroke:none;stroke-width:1px;marker:none;enable-background:accumulate"
       d="m 1873.2345,1213.9626 c -29.3243,-17.0899 -69.3663,-25.6198 -78.1589,-28.7136 2.1366,12.1275 2.025,23.0126 2.0838,31.5199 -16.0062,-7.2575 -37.5948,-15.932 -65.1657,-36.5525 36.0806,42.3309 57.0072,53.741 83.8544,63.4589 1.7902,-11.0167 -1.9102,-22.0558 -0.8303,-27.815 13.5586,4.139 51.0032,27.6675 51.0032,27.6675 z"
       id="path5066"
       inkscape:connector-curvature="0"
       sodipodi:nodetypes="cccccccc" />
    <path
       style="color:#000000;display:inline;overflow:visible;visibility:visible;fill:#ffffff;fill-opacity:1;fill-rule:nonzero;stroke:none;stroke-width:1px;marker:none;enable-background:accumulate"
       d="m 1842.6848,1155.5673 c 46.8351,-61.8174 311.0518,-63.9609 399.6565,-40.1916 88.604,23.7692 126.4062,38.0083 131.2662,91.2606 2.6846,29.4162 -3.57,90.4145 -48.1092,106.2139 -44.5393,15.7996 -177.2078,19.2633 -222.16,20.5069 -44.9523,1.2439 -188.7119,-4.0506 -225.6279,-24.3481 -35.3139,-19.4169 -81.8607,-91.6246 -35.0256,-153.4417 z"
       id="path3330"
       inkscape:connector-curvature="0"
       sodipodi:nodetypes="zsssssz" />
    <text
       xml:space="preserve"
       style="font-style:normal;font-variant:normal;font-weight:normal;font-stretch:normal;font-size:12px;line-height:125%;font-family:Lavi;-inkscape-font-specification:Lavi;text-align:center;letter-spacing:0px;word-spacing:0px;text-anchor:middle;fill:#000000;fill-opacity:1;stroke:none"
       x="2098.5676"
       y="1172.9745"
       id="text4246"
       sodipodi:linespacing="125%"><tspan
         sodipodi:role="line"
         style="font-size:45px"
         x="2098.5676"
         y="1172.9745"
         id="tspan4152">Gyerünk lányok,</tspan><tspan
         sodipodi:role="line"
         style="font-size:45px"
         x="2098.5676"
         y="1229.2245"
         id="tspan3423">koncentráljunk, már</tspan><tspan
         sodipodi:role="line"
         style="font-size:45px"
         x="2098.5676"
         y="1285.4745"
         id="tspan3429">majdnem végigértünk!</tspan></text>
    <path
       style="color:#000000;display:inline;overflow:visible;visibility:visible;fill:#ffffff;fill-opacity:1;fill-rule:nonzero;stroke:none;stroke-width:1px;marker:none;enable-background:accumulate"
       d="m 899.57433,1068.5833 c -0.10521,-43.0003 54.38545,-51.0724 129.05107,-48.9794 69.1865,1.9394 115.2857,-2.4352 115.1552,41.4714 -0.1802,60.6403 -53.7577,52.2611 -121.0855,50.054 -59.96309,-1.9656 -122.4894,12.4305 -123.12077,-42.546 z"
       id="path3565"
       inkscape:connector-curvature="0"
       sodipodi:nodetypes="csssc" />
    <text
       xml:space="preserve"
       style="font-style:normal;font-variant:normal;font-weight:normal;font-stretch:normal;font-size:12px;line-height:125%;font-family:Lavi;-inkscape-font-specification:Lavi;text-align:center;letter-spacing:0px;word-spacing:0px;text-anchor:middle;fill:#000000;fill-opacity:1;stroke:none"
       x="1023.7598"
       y="1083.8337"
       id="text4246-2"
       sodipodi:linespacing="125%"><tspan
         sodipodi:role="line"
         style="font-size:45px"
         x="1023.7598"
         y="1083.8337"
         id="tspan4152-6">Hi-hi-hi!</tspan></text>
    <text
       xml:space="preserve"
       style="font-style:normal;font-variant:normal;font-weight:normal;font-stretch:normal;font-size:12px;line-height:125%;font-family:Lavi;-inkscape-font-specification:Lavi;text-align:center;letter-spacing:0px;word-spacing:0px;text-anchor:middle;fill:#000000;fill-opacity:1;stroke:none"
       x="311.37515"
       y="1534.188"
       id="text4246-9"
       sodipodi:linespacing="125%"><tspan
         sodipodi:role="line"
         style="font-size:45px"
         x="311.37515"
         y="1534.188"
         id="tspan4198">Oké,</tspan><tspan
         sodipodi:role="line"
         style="font-size:45px"
         x="311.37515"
         y="1590.438"
         id="tspan3433">rendben...</tspan></text>
    <text
       xml:space="preserve"
       style="font-style:normal;font-variant:normal;font-weight:normal;font-stretch:normal;font-size:12px;line-height:125%;font-family:Lavi;-inkscape-font-specification:Lavi;text-align:center;letter-spacing:0px;word-spacing:0px;text-anchor:middle;fill:#000000;fill-opacity:1;stroke:none"
       x="2141.0076"
       y="1929.9561"
       id="text4246-9-0"
       sodipodi:linespacing="125%"><tspan
         sodipodi:role="line"
         style="font-size:45px"
         x="2141.0076"
         y="1929.9561"
         id="tspan3646">...és még csak</tspan><tspan
         sodipodi:role="line"
         style="font-size:45px"
         x="2141.0076"
         y="1986.2061"
         id="tspan3446">el sem kezdtünk...</tspan></text>
    <text
       xml:space="preserve"
       style="color:#000000;font-style:normal;font-variant:normal;font-weight:normal;font-stretch:normal;font-size:160.11950684px;line-height:125%;font-family:Arial;-inkscape-font-specification:Arial;letter-spacing:0.02734961px;word-spacing:0px;display:inline;overflow:visible;visibility:visible;fill:url(#linearGradient4319);fill-opacity:1;fill-rule:nonzero;stroke:#ffffff;stroke-width:1.11559534;stroke-linecap:butt;stroke-linejoin:miter;stroke-miterlimit:4;stroke-dasharray:none;stroke-dashoffset:0;stroke-opacity:1;marker:none;filter:url(#filter5561-7);enable-background:accumulate"
       x="1705.2566"
       y="1742.2045"
       id="text4251"
       sodipodi:linespacing="125%"
       transform="matrix(1.2066724,-0.38117004,-1.2048155,2.6846741,210.8676,-1444.7715)"><tspan
         sodipodi:role="line"
         id="tspan4253"
         x="1705.2566"
         y="1742.2045"
         style="font-style:normal;font-variant:normal;font-weight:normal;font-stretch:normal;font-size:90px;font-family:Lavi;-inkscape-font-specification:Lavi;fill:url(#linearGradient4319);fill-opacity:1">FroooAuuAuu<tspan
   style="font-size:74.96620941px"
   id="tspan3448">!!!</tspan></tspan></text>
    <text
       xml:space="preserve"
       style="color:#000000;font-style:normal;font-variant:normal;font-weight:normal;font-stretch:normal;font-size:47.00374985px;line-height:125%;font-family:Lavi;-inkscape-font-specification:'Lavi, Normal';text-align:center;letter-spacing:0px;word-spacing:0px;writing-mode:lr-tb;text-anchor:middle;clip-rule:nonzero;display:inline;overflow:visible;visibility:visible;opacity:1;isolation:auto;mix-blend-mode:normal;color-interpolation:sRGB;color-interpolation-filters:linearRGB;solid-color:#000000;solid-opacity:1;fill:#000000;fill-opacity:1;fill-rule:nonzero;stroke:#000000;stroke-width:0.90000004;stroke-linecap:butt;stroke-linejoin:miter;stroke-miterlimit:4;stroke-dasharray:none;stroke-dashoffset:0;stroke-opacity:1;filter:url(#filter4375-5-4-9);color-rendering:auto;image-rendering:auto;shape-rendering:auto;text-rendering:auto;enable-background:accumulate"
       x="1367.1063"
       y="691.71692"
       id="text4136"
       sodipodi:linespacing="125%"
       transform="matrix(0.93976911,-0.43795269,-0.15709312,1.3120201,-958.24084,3010.993)"><tspan
         sodipodi:role="line"
         id="tspan4138"
         x="1367.1063"
         y="691.71692">Shhshh</tspan></text>
    <path
       style="color:#000000;display:inline;overflow:visible;visibility:visible;fill:#ffffff;fill-opacity:1;fill-rule:nonzero;stroke:none;stroke-width:1px;marker:none;enable-background:accumulate"
       d="m 1111.0295,3004.3887 c -43.8386,-24.6631 -88.5612,-49.1001 -8.3697,-105.5357 -75.2371,12.6957 -28.6863,-18.4527 -9.8373,-39.6288 -134.72881,38.5784 -46.8423,-28.1113 -13.0765,-69.2092 -30.1801,15.8089 -78.7353,61.5934 -59.3664,-3.4269 -28.55902,26.76 -56.42167,28.84 -51.70139,2.4478 -12.23221,16.0125 -19.99624,20.0738 -19.5369,2.1409 -11.5202,13.1422 -27.30143,25.5876 -14.82758,-39.116 -38.08918,78.1529 -61.06115,66.3258 -74.94285,44.4767 -15.30769,29.1513 -25.52804,31.365 -48.75307,-22.7814 -17.28401,68.2496 -45.72292,31.9883 -67.7032,-15.6446 2.43755,90.0975 -64.33799,59.2792 -95.78614,29.7891 8.56365,43.7879 -8.34379,63.0406 -61.78211,17.5406 -3.24705,17.4025 -19.79518,23.9495 -48.21206,20.8107 28.726,22.1142 29.96036,34.1882 -37.50125,21.1751 46.80206,18.9029 89.90245,37.6795 16.37223,52.4815 21.07069,9.4963 97.67542,5.3784 10.06159,73.3166 46.49042,-15.2743 124.59996,2.9616 94.30205,53.7344 36.57166,-32.6662 75.12845,-55.1513 69.76534,17.8145 36.32413,-75.6801 55.53227,-47.7548 58.54863,-3.6181 2.8625,-34.5099 25.96265,-91.7943 64.33613,-8.2274 -7.46271,-36.1815 4.73732,-76.9575 46.51326,19.0221 17.65862,-42.3536 -4.63708,-94.2997 84.76564,-15.675 -13.66253,-72.4569 31.46387,-34.3798 63.00598,-8.8165 -14.90771,-45.6446 24.051,-22.4894 75.8057,5.4484 -39.4208,-44.2015 1.83,-30.9628 27.9199,-28.5188 z"
       id="path3549-3-3-0"
       inkscape:connector-curvature="0"
       sodipodi:nodetypes="cccccccccccccccccccccccccc" />
    <text
       xml:space="preserve"
       style="font-style:normal;font-variant:normal;font-weight:normal;font-stretch:normal;font-size:18.33371735px;line-height:125%;font-family:Lavi;-inkscape-font-specification:Lavi;text-align:center;letter-spacing:0px;word-spacing:0px;text-anchor:middle;fill:#000000;fill-opacity:1;stroke:none;stroke-width:1.20000005;stroke-miterlimit:4;stroke-dasharray:none"
       x="442.97519"
       y="2933.5452"
       id="text4246-9-0-7-1"
       sodipodi:linespacing="125%"
       transform="scale(0.95730752,1.0445964)"><tspan
         sodipodi:role="line"
         style="font-size:68.75143433px;stroke:#000000;stroke-width:1.83337176;stroke-miterlimit:4;stroke-dasharray:none;stroke-opacity:1"
         x="442.97519"
         y="2933.5452"
         id="tspan4233-2-3">?!!</tspan></text>
    <path
       style="fill:#ffffff;fill-rule:evenodd;stroke:none;stroke-width:1px;stroke-linecap:butt;stroke-linejoin:miter;stroke-opacity:1"
       d="m 773.78167,3178.749 18.32267,-106.7687 -28.18166,5.4285 -0.52352,-31.4691 0.74104,-70.3298 26.77283,2.65 -3.34988,74.5691 30.45945,-5.9173 z"
       id="path4780"
       inkscape:connector-curvature="0"
       sodipodi:nodetypes="ccccccccc"
       inkscape:transform-center-x="-12.082509"
       inkscape:transform-center-y="5.8665716" />
    <path
       style="fill:#ffffff;fill-rule:evenodd;stroke:none;stroke-width:1px;stroke-linecap:butt;stroke-linejoin:miter;stroke-opacity:1"
       d="m 503.71196,3181.8003 -28.43105,-56.3497 -25.3357,11.715 -29.60898,-52.061 22.6684,-5.0037 11.81036,40.4128 23.42857,-14.339 z"
       id="path4782"
       inkscape:connector-curvature="0"
       sodipodi:nodetypes="cccccccc" />
    <text
       xml:space="preserve"
       style="font-style:normal;font-variant:normal;font-weight:normal;font-stretch:normal;font-size:16.16489601px;line-height:125%;font-family:Lavi;-inkscape-font-specification:Lavi;text-align:center;letter-spacing:0px;word-spacing:0px;text-anchor:middle;fill:#000000;fill-opacity:1;stroke:#000000;stroke-width:2.29884267;stroke-miterlimit:4;stroke-dasharray:none;stroke-opacity:1"
       x="842.24982"
       y="2806.897"
       id="text4246-9-0-9"
       sodipodi:linespacing="125%"
       transform="scale(0.95790111,1.0439491)"><tspan
         sodipodi:role="line"
         style="font-size:60.61835861px;stroke:#000000;stroke-width:2.29884267;stroke-miterlimit:4;stroke-dasharray:none;stroke-opacity:1"
         x="842.24982"
         y="2806.897"
         id="tspan4206-3"><tspan
           style="font-size:87.54251099px;stroke-width:2.29884267"
           id="tspan4275">Paprika!!!</tspan></tspan></text>
    <text
       sodipodi:linespacing="125%"
       id="text4210"
       y="1687.4954"
       x="455.13419"
       style="font-style:normal;font-variant:normal;font-weight:normal;font-stretch:normal;font-size:12px;line-height:125%;font-family:Lavi;-inkscape-font-specification:Lavi;text-align:center;letter-spacing:0px;word-spacing:0px;text-anchor:middle;fill:#000000;fill-opacity:1;stroke:none"
       xml:space="preserve"><tspan
         y="1687.4954"
         x="455.13419"
         style="font-size:45px"
         sodipodi:role="line"
         id="tspan3638">De be kell vallani,</tspan><tspan
         y="1743.7454"
         x="455.13419"
         style="font-size:45px"
         sodipodi:role="line"
         id="tspan3440">ez a küldetés</tspan><tspan
         y="1799.9954"
         x="455.13419"
         style="font-size:45px"
         sodipodi:role="line"
         id="tspan3442">szuper könnyű...</tspan></text>
  </g>
</svg>
