<?xml version="1.0" encoding="UTF-8" standalone="no"?>
<!-- Created with Inkscape (http://www.inkscape.org/) -->

<svg
   xmlns:dc="http://purl.org/dc/elements/1.1/"
   xmlns:cc="http://creativecommons.org/ns#"
   xmlns:rdf="http://www.w3.org/1999/02/22-rdf-syntax-ns#"
   xmlns:svg="http://www.w3.org/2000/svg"
   xmlns="http://www.w3.org/2000/svg"
   xmlns:xlink="http://www.w3.org/1999/xlink"
   xmlns:sodipodi="http://sodipodi.sourceforge.net/DTD/sodipodi-0.dtd"
   xmlns:inkscape="http://www.inkscape.org/namespaces/inkscape"
   id="svg2"
   version="1.1"
   inkscape:version="0.91 r13725"
   width="2481"
   height="663"
   sodipodi:docname="Pepper-and-Carrot_by-David-Revoy_E13P00.svg">
  <metadata
     id="metadata8">
    <rdf:RDF>
      <cc:Work
         rdf:about="">
        <dc:format>image/svg+xml</dc:format>
        <dc:type
           rdf:resource="http://purl.org/dc/dcmitype/StillImage" />
        <dc:title></dc:title>
      </cc:Work>
    </rdf:RDF>
  </metadata>
  <defs
     id="defs6">
    <linearGradient
       inkscape:collect="always"
       id="linearGradient4389">
      <stop
         style="stop-color:#a05a2c;stop-opacity:1"
         offset="0"
         id="stop4391" />
      <stop
         style="stop-color:#ffd42a;stop-opacity:1"
         offset="1"
         id="stop4393" />
    </linearGradient>
    <linearGradient
       inkscape:collect="always"
       id="linearGradient4290">
      <stop
         style="stop-color:#e80000;stop-opacity:1"
         offset="0"
         id="stop4292" />
      <stop
         id="stop4298"
         offset="0.5"
         style="stop-color:#9e1900;stop-opacity:1;" />
      <stop
         style="stop-color:#2b0000;stop-opacity:1"
         offset="1"
         id="stop4294" />
    </linearGradient>
    <filter
       inkscape:menu-tooltip="Transparent plastic with deep colors"
       inkscape:menu="Bevels"
       inkscape:label="Pepper-title-style"
       style="color-interpolation-filters:sRGB;"
       id="filter4268">
      <feGaussianBlur
         in="SourceGraphic"
         result="result6"
         stdDeviation="0.20000000000000001"
         id="feGaussianBlur4270" />
      <feComposite
         in2="SourceGraphic"
         in="result6"
         operator="xor"
         id="feComposite4272" />
      <feGaussianBlur
         result="result2"
         stdDeviation="6.0001843317972341"
         id="feGaussianBlur4274" />
      <feComposite
         in2="SourceGraphic"
         operator="atop"
         result="result91"
         id="feComposite4276"
         stdDeviation="6" />
      <feComposite
         result="result4"
         in="result2"
         operator="xor"
         in2="result91"
         id="feComposite4278"
         stdDeviation="3.7000000000000002" />
      <feGaussianBlur
         in="result4"
         result="result3"
         stdDeviation="3.6962672811059902"
         id="feGaussianBlur4280" />
      <feSpecularLighting
         lighting-color="rgb(216,189,109)"
         in="result3"
         result="result5"
         specularExponent="35"
         specularConstant="3"
         surfaceScale="12"
         id="feSpecularLighting4282">
        <feDistantLight
           elevation="45"
           azimuth="235"
           id="feDistantLight4284" />
      </feSpecularLighting>
      <feComposite
         in2="result5"
         in="SourceGraphic"
         k3="0.7"
         k2="0.8"
         operator="arithmetic"
         result="result7"
         id="feComposite4286" />
      <feComposite
         in="result7"
         operator="in"
         in2="SourceGraphic"
         id="feComposite4288" />
    </filter>
    <linearGradient
       inkscape:collect="always"
       xlink:href="#linearGradient4290"
       id="linearGradient4327-3"
       gradientUnits="userSpaceOnUse"
       x1="1243.5789"
       y1="254.0174"
       x2="1240.9818"
       y2="421.95773"
       gradientTransform="translate(-300.09377,-152.28618)" />
    <filter
       inkscape:menu-tooltip="Transparent plastic with deep colors"
       inkscape:menu="Bevels"
       inkscape:label="Pepper-title-style"
       style="color-interpolation-filters:sRGB"
       id="filter4268-0">
      <feGaussianBlur
         in="SourceGraphic"
         result="result6"
         stdDeviation="0.20000000000000001"
         id="feGaussianBlur4270-9" />
      <feComposite
         in2="SourceGraphic"
         in="result6"
         operator="xor"
         id="feComposite4272-3" />
      <feGaussianBlur
         result="result2"
         stdDeviation="6.0001843317972341"
         id="feGaussianBlur4274-4" />
      <feComposite
         in2="SourceGraphic"
         operator="atop"
         result="result91"
         id="feComposite4276-3"
         stdDeviation="6" />
      <feComposite
         result="result4"
         in="result2"
         operator="xor"
         in2="result91"
         id="feComposite4278-2"
         stdDeviation="3.7000000000000002" />
      <feGaussianBlur
         in="result4"
         result="result3"
         stdDeviation="3.6962672811059902"
         id="feGaussianBlur4280-5" />
      <feSpecularLighting
         lighting-color="#d8bd6d"
         in="result3"
         result="result5"
         specularExponent="35"
         specularConstant="3"
         surfaceScale="12"
         id="feSpecularLighting4282-0">
        <feDistantLight
           elevation="45"
           azimuth="235"
           id="feDistantLight4284-6" />
      </feSpecularLighting>
      <feComposite
         k4="0"
         k1="0"
         in2="result5"
         in="SourceGraphic"
         k3="0.7"
         k2="0.8"
         operator="arithmetic"
         result="result7"
         id="feComposite4286-6" />
      <feComposite
         in="result7"
         operator="in"
         in2="SourceGraphic"
         id="feComposite4288-4" />
    </filter>
    <linearGradient
       inkscape:collect="always"
       xlink:href="#linearGradient4290"
       id="linearGradient4206"
       x1="32001.389"
       y1="-1417.3979"
       x2="31997.383"
       y2="-1122.9243"
       gradientUnits="userSpaceOnUse" />
    <linearGradient
       inkscape:collect="always"
       xlink:href="#linearGradient4290"
       id="linearGradient4208"
       gradientUnits="userSpaceOnUse"
       x1="32001.09"
       y1="-1395.4691"
       x2="32000.809"
       y2="-1147.986" />
    <linearGradient
       inkscape:collect="always"
       xlink:href="#linearGradient4389"
       id="linearGradient4240"
       x1="31977.201"
       y1="-1582.6455"
       x2="31976.73"
       y2="-1736.1477"
       gradientUnits="userSpaceOnUse"
       gradientTransform="matrix(0.75658414,0,-9.1751891e-4,0.82403067,7835.3079,97.709042)" />
    <filter
       style="color-interpolation-filters:sRGB;"
       inkscape:label="Specular Light"
       id="filter5363">
      <feGaussianBlur
         in="SourceAlpha"
         stdDeviation="4.50521"
         result="blur"
         id="feGaussianBlur5365" />
      <feSpecularLighting
         in="blur"
         specularExponent="25"
         specularConstant="1.7"
         surfaceScale="10"
         lighting-color="rgb(239,158,118)"
         result="specular"
         id="feSpecularLighting5367">
        <feDistantLight
           elevation="46"
           azimuth="235"
           id="feDistantLight5369" />
      </feSpecularLighting>
      <feComposite
         in="specular"
         in2="SourceGraphic"
         k3="1"
         k2="1"
         operator="arithmetic"
         result="composite1"
         id="feComposite5371" />
      <feComposite
         in="composite1"
         in2="SourceAlpha"
         operator="in"
         result="composite2"
         id="feComposite5373" />
    </filter>
  </defs>
  <sodipodi:namedview
     pagecolor="#ffffff"
     bordercolor="#666666"
     borderopacity="1"
     objecttolerance="10"
     gridtolerance="10"
     guidetolerance="10"
     inkscape:pageopacity="0"
     inkscape:pageshadow="2"
     inkscape:window-width="1920"
     inkscape:window-height="1028"
     id="namedview4"
     showgrid="false"
     inkscape:zoom="0.35355339"
     inkscape:cx="1582.9258"
     inkscape:cy="264.5272"
     inkscape:window-x="-8"
     inkscape:window-y="22"
     inkscape:window-maximized="1"
     inkscape:current-layer="layer1" />
  <g
     inkscape:groupmode="layer"
     id="layer2"
     inkscape:label="artwork"
     style="display:none"
     sodipodi:insensitive="true">
    <image
       sodipodi:absref="/home/nightmare/Projects/p_c/peppercarrot_ep13_translation/uk/../gfx_Pepper-and-Carrot_by-David-Revoy_E13P00.png"
       xlink:href="../gfx_Pepper-and-Carrot_by-David-Revoy_E13P00.png"
       width="2481"
       height="663"
       id="image10"
       x="0"
       y="0" />
  </g>
  <g
     inkscape:groupmode="layer"
     id="layer1"
     inkscape:label="txt"
     style="display:inline">
    <text
       xml:space="preserve"
       style="font-style:normal;font-variant:normal;font-weight:normal;font-stretch:normal;font-size:12px;line-height:125%;font-family:Arial;-inkscape-font-specification:Arial;letter-spacing:0px;word-spacing:0px;display:inline;fill:#2b1100;fill-opacity:1;stroke:#000000;stroke-width:2;stroke-miterlimit:4;stroke-dasharray:none;stroke-opacity:1"
       x="826.34436"
       y="582.47577"
       id="text4178"
       sodipodi:linespacing="125%"><tspan
         sodipodi:role="line"
         id="tspan4180"
         style="font-style:normal;font-variant:normal;font-weight:normal;font-stretch:normal;font-size:72.5px;font-family:Neucha;-inkscape-font-specification:Neucha;fill:#2b1100;stroke:none"
         x="826.34436"
         y="582.47577">Епізод 13 : Піжамна вечірка</tspan></text>
    <g
       transform="matrix(0.95835876,0,0.01303728,0.94342369,-29499.532,1553.4803)"
       inkscape:label="Layer 1"
       id="layer1-3"
       style="display:inline;opacity:1;fill:url(#linearGradient4206);fill-opacity:1;stroke:#552200;stroke-opacity:1;filter:url(#filter5363)">
      <path
         style="display:inline;fill:url(#linearGradient4208);fill-opacity:1;stroke:#552200;stroke-width:6.72575378;stroke-miterlimit:4;stroke-dasharray:none;stroke-opacity:1"
         d="m 31704.202,-1124.7724 c -4.153,-4.2981 -5.913,-7.0378 -5.987,-9.3184 -0.303,-9.2713 1.336,-12.0406 8.348,-14.0958 2.42,-0.7092 4.998,-2.3383 5.73,-3.6194 0.893,-1.5665 0.826,-12.6935 1.938,-33.9074 l 0.612,-31.5773 -7.712,-1.8872 c -11.13,-2.7237 -13.803,-4.009 -14.999,-7.2049 -0.581,-1.5643 -1.58,-2.8472 -2.217,-2.851 -0.634,-0.012 -1.15,-0.7909 -1.143,-1.7489 0,-1.4109 0.813,-1.5768 4.233,-0.8735 6.138,1.2627 8.384,0.616 15.478,-1.8618 l 6.246,-2.546 0.216,-40.0872 c 0.225,-41.854 -0.381,-48.6392 -4.615,-51.0413 -1.076,-0.6107 -6.741,-1.2233 -12.589,-1.3615 -9.072,-0.2133 -10.633,-0.5254 -10.63,-2.1189 0,-2.2547 9.451,-10.855 14.822,-13.5002 7.971,-3.9238 23.998,-10.8887 25.038,-10.8826 3.646,0.022 8.871,4.1475 11.006,8.6243 l 2.376,4.9815 12.602,0.075 c 20.96,0.1247 35.783,5.5368 52.369,19.1233 6.66,5.4567 10.454,9.5652 12.879,13.9538 3.292,5.9528 3.437,6.7807 3.361,19.2876 l -0.08,13.0679 -5.402,10.7202 c -8.309,16.4895 -24.059,31.9454 -41.181,40.4114 -6.783,3.3553 -26.482,9.809 -32.416,11.1999 l -4.232,0.7474 -0.147,24.581 c -0.146,24.3601 -0.126,24.6079 2.533,27.5058 1.472,1.6085 4.489,3.2752 6.702,3.7039 2.21,0.4286 4.583,1.4633 5.268,2.2986 0.873,1.0642 2.032,1.2257 3.872,0.5383 1.544,-0.5763 5.731,-0.5225 10.151,0.13 6.119,0.9039 8.22,0.7858 11.257,-0.6327 2.408,-1.1254 6.28,-1.6439 10.906,-1.4619 3.945,0.1544 8.315,-0.1 9.714,-0.5698 1.891,-0.634 2.538,-0.4207 2.531,0.8314 0,2.243 -1.768,3.4871 -8.318,5.8927 -3.011,1.1062 -5.722,2.6437 -6.023,3.4164 -0.305,0.7724 -2.6,2.2096 -5.104,3.1939 -2.499,0.9846 -5.291,2.5215 -6.194,3.4153 -0.905,0.8945 -5.889,2.892 -11.074,4.4393 -5.183,1.5475 -10.01,3.5114 -10.728,4.3651 -1.845,2.1978 -13.771,6.6314 -24.06,8.9441 -4.81,1.0816 -8.749,2.3979 -8.753,2.9252 0,0.5273 -2.414,0.937 -5.357,0.9104 -4.981,-0.053 -5.769,-0.4741 -11.238,-6.1365 z m 53.414,-120.001 c 17.774,-9.0736 36.878,-27.6594 41.854,-40.7238 4.081,-10.7075 2.844,-17.4699 -4.304,-23.5574 -7.844,-6.68 -28.379,-9.0549 -43.849,-5.0713 -12.114,3.1188 -11.326,0.4519 -11.556,39.0942 -0.187,30.8054 -0.03,33.6767 1.765,34.7151 2.707,1.5593 6.201,0.5913 16.09,-4.4568 z m 821.64,125.8671 c -4.151,-4.298 -5.913,-7.0379 -5.987,-9.3182 -0.301,-9.2714 1.339,-12.0409 8.35,-14.096 2.42,-0.7092 4.991,-2.3383 5.712,-3.6195 0.869,-1.5438 1.526,-12.9858 1.95,-33.9048 l 0.637,-31.5746 -7.72,-1.89 c -11.143,-2.7269 -13.817,-4.0106 -15.008,-7.2072 -0.586,-1.5643 -1.583,-2.8472 -2.218,-2.851 -0.635,-0.012 -1.15,-0.791 -1.146,-1.7488 0,-1.4112 0.812,-1.577 4.234,-0.8737 6.139,1.2628 8.509,0.9771 15.479,-1.8617 l 6.246,-2.5459 0.216,-40.0874 c 0.231,-41.8539 -0.383,-48.6391 -4.616,-51.0413 -1.075,-0.6107 -6.742,-1.2235 -12.591,-1.3614 -9.071,-0.2134 -10.633,-0.5255 -10.628,-2.1191 0,-2.2546 9.448,-10.8548 14.824,-13.5 7.971,-3.9241 23.995,-10.8887 25.039,-10.8825 3.603,0.022 8.846,4.0973 10.95,8.5145 l 2.324,4.8715 14.886,0.5466 c 12.738,0.4673 16.262,1.0266 24.446,3.8788 7.792,2.7154 20.448,9.8846 25.094,14.2138 0.515,0.4799 0.11,2.4567 -0.913,4.3927 -1.584,3.0225 -1.616,3.6102 -0.215,4.1548 0.894,0.3493 3.171,-0.1522 5.063,-1.1166 3.386,-1.7257 3.476,-1.6975 6.157,1.9276 6.241,8.4422 6.89,10.7885 6.807,24.6619 l -0.08,13.0678 -5.403,10.7202 c -8.309,16.4895 -24.061,31.9456 -41.18,40.4115 -6.784,3.3552 -26.43,10.1426 -32.416,11.1998 l -4.233,0.7475 -0.147,24.581 c -0.147,24.3603 -0.127,24.6077 2.531,27.5059 1.473,1.6082 4.488,3.2751 6.7,3.7038 2.213,0.4287 4.584,1.4632 5.271,2.2986 0.872,1.0642 2.032,1.2255 3.873,0.5384 1.544,-0.5765 5.728,-0.5227 10.15,0.13 6.118,0.9038 8.221,0.7858 11.257,-0.6328 2.406,-1.1253 6.275,-1.6437 10.905,-1.4617 3.944,0.1541 8.317,-0.1009 9.713,-0.57 1.892,-0.6338 2.54,-0.4208 2.532,0.8315 0,2.2429 -1.769,3.487 -8.318,5.8925 -3.012,1.1063 -5.725,2.6439 -6.025,3.4164 -0.302,0.7726 -2.598,2.2098 -5.1,3.1942 -2.505,0.9846 -5.292,2.5214 -6.198,3.4151 -0.904,0.8944 -5.887,2.8923 -11.071,4.4393 -5.182,1.5475 -10.012,3.5113 -10.728,4.3651 -1.848,2.1977 -13.774,6.6315 -24.059,8.9441 -4.811,1.0818 -8.751,2.398 -8.754,2.9253 0,0.5273 -2.415,0.9369 -5.361,0.9104 -4.979,-0.053 -5.766,-0.4741 -11.236,-6.1366 z m 51.629,-118.9962 c 3.679,-1.8107 9.21,-5.0016 12.287,-7.0911 3.077,-2.0898 6.948,-3.7913 8.604,-3.7815 2.461,0.018 3.058,-0.5404 3.282,-3.0392 0.152,-1.6815 0.992,-3.4557 1.874,-3.9427 3.543,-1.9548 15.338,-17.9573 17.586,-23.8586 4.085,-10.7235 2.855,-17.4829 -4.298,-23.573 -7.845,-6.6799 -28.378,-9.0548 -43.85,-5.071 -12.109,3.1186 -11.322,0.4517 -11.552,39.0938 -0.188,30.8056 -0.03,33.6768 1.764,34.7153 2.535,1.4602 6.03,0.6167 14.303,-3.452 z m -1631.069,39.6434 c -2.006,-0.457 -4.496,-2.5279 -6.634,-5.5195 -2.955,-4.137 -3.487,-6.0232 -3.883,-13.6824 l -0.46,-8.894 4.547,-2.5206 c 4.169,-2.3104 4.611,-3.0017 5.271,-8.2891 1.442,-11.5146 3.037,-37.9216 3.968,-65.6246 0.899,-26.851 1.059,-28.28 3.044,-27.7477 1.737,0.4655 2.099,-0.087 2.113,-3.2334 0,-2.087 -0.984,-5.4615 -2.207,-7.4983 -1.622,-2.695 -2.217,-5.6925 -2.187,-11.003 0.04,-6.7853 -0.124,-7.3002 -2.454,-7.314 -3.852,-0.024 -12.441,-3.6253 -14.937,-6.2637 -1.233,-1.303 -3.435,-6.0962 -4.9,-10.652 -3.629,-11.3226 -2.897,-13.0766 7.631,-18.2158 10.64,-5.1939 18.551,-5.9163 62.447,-5.6855 l 33.41,0.1757 2.284,2.8314 c 1.833,2.2722 2.567,2.5546 3.725,1.4311 1.958,-1.9028 3.248,-1.7516 3.233,0.3794 0,2.6947 4.855,1.5543 6.194,-1.4504 1.252,-2.8006 2.669,-2.8978 36.683,-2.5061 16.109,0.1867 23.001,1.7995 24.446,5.7243 0.392,1.0676 1.433,2.4864 2.308,3.1524 4.693,3.5646 -4.956,10.739 -18.869,14.0321 -4.575,1.083 -8.496,2.1426 -8.709,2.3549 -1.485,1.4651 -6.172,135.6728 -4.984,142.7106 0.767,4.5503 1.132,4.9841 4.547,5.3787 3.888,0.4487 12.572,6.653 12.559,8.9715 0,0.7397 -1.74,3.1547 -3.85,5.3669 -3.122,3.2712 -5.711,4.5309 -13.849,6.7443 -5.508,1.4965 -13.904,3.0115 -18.644,3.3648 l -8.634,0.6436 -3.956,-4.8874 c -7.93,-9.7968 -7.694,-14.2627 1.141,-21.5585 4.928,-4.0688 5.04,-4.3105 5.079,-10.8679 0.01,-3.7196 0.542,-6.7037 1.167,-6.7 1.586,0 1.46,-7.5982 -0.14,-8.1398 -0.987,-0.3354 -0.998,-10.2522 -0.04,-40.3903 0.697,-21.9705 1.162,-48.0036 1.035,-57.8517 l -0.231,-17.906 -13.924,0.6316 c -7.657,0.3473 -20.7,1.5693 -28.985,2.7153 -8.287,1.1458 -17.715,2.3203 -20.863,2.783 l -5.802,0.6993 -0.719,6.9516 c -1.032,9.9747 -1.872,20.3724 -3.207,39.6247 -1.05,15.1187 -3.169,44.1654 -5.61,76.7846 -0.843,11.2725 -0.813,11.4757 2.002,14.1014 4.609,4.2968 5.971,5.2437 8.236,5.7234 1.19,0.2514 2.068,1.3121 1.972,2.3819 -0.09,1.0605 0.546,1.9325 1.417,1.9379 1.058,0 1.495,1.1089 1.312,3.326 -0.205,2.4053 -0.983,3.4904 -2.862,3.9493 -1.419,0.3481 -2.589,1.1175 -2.593,1.7098 0,2.2065 -7.621,4.8292 -19.714,6.7946 -13.273,2.1566 -13.027,2.1424 -17.93,1.0269 z m 192.527,-14.2982 c -11.98,-3.2986 -16.677,-8.6584 -23.342,-26.6073 l -5.221,-14.06 0.104,-16.9068 c 0.147,-23.9063 4.923,-40.6699 16.467,-58.029 9.705,-14.592 19.363,-23.9131 30.314,-29.2573 12.664,-6.1804 20.598,-6.9175 27.883,-2.59 8.896,5.284 17.209,13.9543 21.128,22.035 l 3.645,7.5163 -0.128,21.6962 -0.128,21.6961 -2.886,2.8529 c -2.073,2.0495 -4.937,3.1832 -10.169,4.0257 -7.789,1.255 -47.401,10.8453 -57.24,13.859 -4.854,1.4868 -5.933,2.2773 -5.944,4.3615 0,1.3999 -0.451,2.8113 -0.986,3.1363 -0.84,0.5129 0.694,6.1413 3.72,13.6481 1.443,3.5797 7.875,9.4575 11.314,10.343 4.099,1.0549 14.39,-1.0489 22.658,-4.632 6.468,-2.8024 23.218,-12.3713 28.509,-16.2864 3.339,-2.4724 6.477,-2.5452 7.781,-0.1793 0.694,1.2544 -0.214,4.1339 -3.001,9.5805 -3.159,6.1611 -4.411,7.6513 -5.998,7.1376 -2.962,-0.9595 -6.019,4.3501 -6.103,10.6011 l -0.07,5.1808 -10.28,5.0587 c -5.654,2.782 -12.938,5.6552 -16.187,6.3846 -7.731,1.7357 -18.337,1.5041 -25.85,-0.5648 z m 16.325,-82.0927 c 22.654,-4.9483 29.322,-7.2232 31.174,-10.6342 2.329,-4.2978 1.558,-27.8316 -1.05,-31.8595 -2.949,-4.5611 -4.58,-4.7406 -11.738,-1.2916 -9.929,4.7848 -24.348,19.8395 -31.786,33.1897 -5.414,9.7201 -7.715,16.7126 -4.941,15.0212 0.586,-0.3584 8.842,-2.3501 18.341,-4.4256 z m 240.13,83.3881 c -3.323,-1.5184 -4.674,-3.0127 -5.862,-6.4866 -2.158,-6.3238 -2.033,-6.9364 2.284,-11.2022 4.213,-4.1631 4.161,-3.8583 6.009,-35.5217 3.098,-53.0866 3.076,-52.3705 1.551,-53.5352 -0.822,-0.6271 -1.836,-4.0175 -2.253,-7.5347 -0.752,-6.3274 -0.805,-6.4024 -5.003,-7.137 -2.334,-0.4087 -7.581,-0.1808 -11.661,0.5038 -8.256,1.387 -12.139,0.2919 -12.116,-3.4169 0.01,-3.9309 13.511,-16.1006 23.406,-21.1213 9.829,-4.9862 14.351,-5.6635 19.561,-2.9304 4.851,2.5454 6.739,6.0302 6.718,12.4143 -0.03,9.3528 0,9.356 17.411,1.7601 8.582,-3.7461 21.51,-9.0621 28.725,-11.8135 11.728,-4.4714 13.824,-4.936 19.769,-4.3786 8.598,0.8062 11.645,3.1388 15.992,12.236 8.43,17.636 8.95,48.8017 1.488,88.9526 -1.245,6.7069 -2.075,17.2121 -2.225,28.1658 -0.221,16.6732 -0.346,17.4842 -2.541,17.7851 -3.456,0.474 -9.599,-4.2766 -13.237,-10.2415 l -3.234,-5.3016 1.324,-10.661 c 0.728,-5.8635 1.41,-25.643 1.52,-43.9547 0.187,-30.797 -0.835,-47.7664 -3.088,-51.4609 -1.941,-3.1836 -24.697,7.0542 -44.327,19.943 -6.674,4.3842 -12.702,9.0098 -13.392,10.2792 -0.839,1.5487 -1.046,7.1934 -0.623,17.16 0.414,9.7205 0,21.8393 -1.198,35.0751 -1.192,13.1631 -1.45,20.6864 -0.746,21.5488 0.6,0.7294 3.361,1.5958 6.141,1.9257 6.65,0.79 8.089,2.1423 7.486,7.0466 -0.448,3.6356 -1.105,4.2754 -7.432,7.224 -8.461,3.9429 -18.018,6.7682 -22.665,6.7006 -1.904,-0.036 -5.403,-0.9378 -7.782,-2.0229 z m 158.851,1.1828 c -11.56,-3.1836 -16.675,-8.75 -22.467,-24.4518 -5.801,-15.7295 -7.199,-24.5106 -6.256,-39.2858 1.713,-26.8042 11.154,-48.3481 29.994,-68.4566 5.958,-6.3555 9.457,-8.9543 17.062,-12.6664 12.665,-6.1804 20.6,-6.9173 27.886,-2.5898 8.894,5.2838 17.245,14.0368 21.126,22.0351 l 3.647,7.5163 -0.129,21.6961 -0.129,21.6958 -2.884,2.8531 c -2.073,2.0494 -4.937,3.1832 -10.172,4.0259 -7.787,1.2545 -47.399,10.845 -57.237,13.8591 -4.854,1.4866 -5.933,2.277 -5.946,4.361 0,1.4003 -0.45,2.8113 -0.984,3.1363 -0.842,0.5134 0.694,6.1416 3.718,13.6483 1.447,3.5797 7.876,9.4575 11.317,10.3431 4.098,1.0547 14.389,-1.0492 22.658,-4.6319 6.466,-2.8026 23.217,-12.3716 28.506,-16.2866 3.34,-2.4725 6.477,-2.5451 7.782,-0.1794 0.695,1.2546 -0.214,4.1342 -3.001,9.5808 -3.16,6.1611 -4.411,7.6512 -5.998,7.1375 -2.963,-0.9597 -7.243,4.4719 -6.103,10.6012 l -0.08,5.1806 -10.281,5.0588 c -5.655,2.782 -12.941,5.6549 -16.189,6.3845 -7.73,1.7359 -18.335,1.5041 -25.85,-0.5649 z m 16.326,-82.093 c 22.652,-4.948 29.32,-7.223 31.17,-10.6343 2.332,-4.2977 1.558,-27.8315 -1.048,-31.8593 -2.951,-4.5612 -4.58,-4.7405 -11.739,-1.2914 -9.928,4.7845 -24.346,19.8394 -31.785,33.1896 -5.416,9.7199 -7.714,16.7124 -4.943,15.0211 0.588,-0.3583 8.844,-2.35 18.345,-4.4257 z m 622.814,86.4161 c -4.214,-1.7621 -5.45,-4.4054 -5.406,-11.5884 0.01,-3.6637 7.214,-12.4177 10.187,-12.4001 1.283,0 2.335,-1.1256 2.832,-3.0511 0.433,-1.6849 0.865,-22.1875 0.953,-45.5614 0.124,-33.4497 0.471,-42.8136 1.642,-43.9813 2.053,-2.0661 1.781,-7.5871 -0.455,-9.2431 -1.544,-1.143 -2.047,-5.1464 -2.96,-23.5002 -0.605,-12.1679 -1.096,-22.6736 -1.092,-23.3469 0,-0.6729 -0.945,-1.2294 -2.108,-1.2364 -6.013,-0.036 -15.562,-6.5166 -18.763,-12.7366 -2.787,-5.4122 -1.964,-9.5562 2.928,-14.7351 l 4.457,-4.7204 9.377,0.1321 c 18.061,0.255 23.294,4.9205 43.532,38.828 2.147,3.5997 6.81,10.7316 10.362,15.8484 3.551,5.1172 6.72,10.9512 7.041,12.9649 1.382,8.6275 1.443,8.7385 4.802,8.7586 3.386,0.021 3.814,0.5825 21.212,27.9736 4.876,7.6766 6.859,9.7367 6.876,7.1404 0,-1.7704 20.109,-44.1111 28.016,-59.0137 3.93,-7.4158 10.351,-19.5511 14.263,-26.9668 11.538,-21.8714 17.127,-27.7947 27.137,-28.7487 3.029,-0.289 4.165,0.1412 5.054,1.9139 0.652,1.2919 2.001,2.1239 3.105,1.9124 1.073,-0.205 3.085,0.429 4.47,1.4104 1.385,0.9814 3.923,1.7929 5.644,1.8031 2.033,0.016 3.13,0.6123 3.125,1.7093 0,0.9297 -0.698,1.6866 -1.537,1.6816 -0.841,-0.013 -2.943,1.2867 -4.673,2.8704 -2.313,2.118 -2.815,3.2142 -1.896,4.1439 0.919,0.9297 0.827,1.7282 -0.35,3.0171 -3.244,3.5558 -7.191,59.3145 -8.701,122.881 -0.825,34.8814 -0.388,45.2701 1.867,44.928 0.691,-0.1051 2.521,0.1577 4.068,0.5811 1.548,0.4239 3.829,0.9154 5.065,1.0918 1.239,0.176 2.887,0.7204 3.657,1.2083 1.573,0.9943 1.913,5.2666 0.42,5.2575 -0.528,0 -2.485,1.3803 -4.349,3.0739 -6.902,6.2722 -8.923,7.418 -16.535,9.368 -13.308,3.4088 -17.626,3.57 -23.547,0.8803 -6.293,-2.8581 -9.883,-7.0909 -9.857,-11.6175 0.02,-4.4964 1.739,-7.307 5.676,-9.3121 3.975,-2.0265 4.776,-5.2339 5.156,-20.6946 0.256,-10.8219 1.016,-15.5195 3.167,-19.9292 1.636,-3.3505 0.849,-10.1384 -1.13,-9.7271 -1.333,0.2775 -1.435,-4.2356 -0.656,-29.3103 0.507,-16.3011 1.225,-33.948 1.595,-39.2154 l 0.673,-9.5768 -5.167,8.9863 c -2.843,4.9428 -9.352,18.5991 -14.462,30.3475 -13.646,31.3654 -20.83,45.3256 -26.745,51.9719 -4.577,5.1435 -5.776,5.8831 -9.485,5.861 -5.07,-0.03 -7.023,-2.0096 -8.959,-9.0707 -1.713,-6.2575 -14.131,-32.7874 -20.364,-43.5175 -5.231,-9.0065 -23.4,-39.0269 -23.619,-39.0279 -0.07,-2e-4 -0.395,26.2466 -0.687,58.3267 -0.529,57.1975 -0.49,58.3755 1.735,60.7989 1.253,1.3593 4.216,2.8116 6.589,3.2271 5.407,0.9465 7.694,3.3065 4.768,4.9205 -1.123,0.6199 -1.841,1.5442 -1.598,2.0542 0.448,0.9335 -3.053,3.0018 -7.238,4.2769 -2.098,0.6387 -2.121,0.7678 -0.294,1.8068 4.942,2.8127 1.073,4.9241 -14.174,7.7346 -13.423,2.4745 -18.982,2.506 -24.644,0.1384 z m -951.987,-8.8971 c -2.811,-2.8427 -3.813,-6.9223 -2.883,-11.7258 0.591,-3.0425 1.553,-4.0872 4.986,-5.4119 l 4.255,-1.6414 0.279,-7.23 c 0.153,-3.9762 0.897,-13.7675 1.654,-21.7584 1.303,-13.7348 1.109,-38.7598 -0.476,-61.2203 l -0.653,-9.2554 -4.644,-0.6703 c -2.556,-0.3685 -7.439,-0.2179 -10.853,0.3343 -7.146,1.1569 -7.899,0.9282 -7.075,-2.1496 0.675,-2.5169 -2.431,-3.2997 -3.432,-0.8647 -0.315,0.7731 -0.61,0.2032 -0.648,-1.2646 -0.117,-4.4239 12.428,-15.5654 23.992,-21.2956 l 9.864,-4.8881 5.918,2.2738 c 7.117,2.7339 10.604,7.2996 11.603,15.1866 0.382,3.0273 0.892,5.5055 1.128,5.5068 0.238,7e-4 6.901,-2.8121 14.802,-6.2526 7.903,-3.4406 20.229,-8.4894 27.389,-11.22 11.626,-4.434 13.73,-4.8981 19.672,-4.341 8.595,0.8061 11.644,3.1386 15.992,12.2359 6.399,13.3925 8.406,36.7604 5.176,60.3035 -0.93,6.7743 -2.29,18.6538 -3.023,26.3987 -0.734,7.745 -2.097,18.0642 -3.031,22.9316 -0.931,4.8673 -1.72,12.8338 -1.749,17.7028 -0.04,7.6993 -0.347,9.0083 -2.314,10.0458 -2.805,1.4805 -5.422,0.1981 -9.433,-4.6265 -4.872,-5.8615 -4.666,-1.9209 -3.112,-59.1522 1.039,-38.414 0.332,-55.6655 -2.484,-60.279 -2.007,-3.2912 -27.157,7.0063 -45.846,20.8778 l -11.262,7.5844 -0.702,23.3237 c -0.677,22.4805 -0.794,23.3861 -3.209,25.0551 -2.024,1.3984 -2.313,2.246 -1.507,4.4045 0.547,1.47 0.689,2.9768 0.312,3.3485 -0.374,0.3712 0,0.6791 0.796,0.684 1.145,0 1.301,1.7697 0.696,7.8871 -0.918,9.2693 0.427,11.4403 8.443,13.6343 9.262,2.5363 9.96,5.561 2.521,10.9618 -6.074,4.413 -17.1,6.9351 -29.979,6.8583 -7.402,-0.044 -9.325,-0.4391 -11.156,-2.2919 z m 1194.089,6.0598 c -18.192,-3.9014 -33.923,-20.0526 -38.152,-39.1711 -2.092,-9.4584 -2.06,-27.8998 0.07,-39.4381 2.816,-15.2659 10.993,-32.3569 19.153,-40.0335 5.751,-5.411 20.984,-14.7534 25.614,-15.709 2.275,-0.4698 8.448,-0.8288 13.721,-0.7971 23.827,0.142 35.221,9.4402 43.827,35.7671 5.636,17.2405 5.62,35.4271 -0.04,55.5126 -1.359,4.8124 -2.346,6.4673 -3.852,6.4584 -1.114,0 -3.12,1.366 -4.46,3.0506 l -2.441,3.0626 2.415,1.9788 2.414,1.9788 -3.162,5.7258 c -4.338,7.86 -15.526,17.9487 -22.651,20.4286 -7.77,2.7032 -22.815,3.2531 -32.453,1.1855 z m 23.08,-24.3887 c 4.62,-1.0179 7.345,-2.4732 10.565,-5.643 8.758,-8.6204 11.716,-21.3889 10.738,-46.3046 -0.823,-20.8968 -0.823,-20.8611 0.15,-25.4135 0.724,-3.4006 0.61,-3.7487 -0.843,-2.5588 -1.33,1.091 -2.3,1.0844 -4.667,-0.028 -1.645,-0.775 -2.99,-1.9752 -2.991,-2.6672 0,-0.692 -2.397,-3.165 -5.328,-5.4954 -5.108,-4.0598 -5.603,-4.2116 -11.829,-3.6187 -7.386,0.7026 -14.059,3.6783 -18.372,8.1871 -4.513,4.722 -10.438,15.9967 -11.285,21.4841 -0.478,3.097 -2.153,6.6378 -4.524,9.5539 -5.442,6.7014 -6.562,10.5294 -2.903,9.9317 1.463,-0.2392 1.923,1.1945 2.418,7.5457 0.835,10.7025 9.218,29.2757 14.522,32.1697 7.855,4.2867 14.396,5.0549 24.353,2.8606 z m 210.69,19.7306 c -6.031,-1.3259 -6.712,-2.1299 -6.678,-7.892 0.02,-4.763 0.561,-5.8528 5.194,-10.6278 2.835,-2.9266 4.854,-5.8214 4.479,-6.4329 -0.371,-0.6116 0.133,-2.2355 1.094,-3.6086 2.002,-2.8212 2.423,-8.754 0.626,-8.7648 -0.803,-0.012 -1.05,-10.6211 -0.77,-33.107 0.226,-18.2049 0.06,-33.6763 -0.371,-34.3807 -0.43,-0.7047 -2.454,-1.2909 -4.502,-1.3029 -2.046,-0.017 -6.069,-0.3583 -8.935,-0.7685 -5.01,-0.717 -5.202,-0.8833 -4.923,-4.2562 0.276,-3.3269 0.09,-3.4928 -3.374,-3.178 -2.017,0.1828 -3.656,-0.081 -3.64,-0.5854 0.03,-1.2705 7.746,-7.4705 11.955,-9.6153 1.911,-0.9733 4.203,-2.6402 5.096,-3.7043 3.028,-3.6167 12.533,-7.1264 19.122,-7.0606 6.493,0.068 8.428,1.0052 11.574,5.6269 1.625,2.3891 1.884,5.8459 1.778,23.6333 l -0.125,20.8351 7.081,-11.1814 c 9.207,-14.5414 26.619,-32.0386 37.047,-37.2323 9.838,-4.8989 11.912,-4.7269 14.933,1.2388 2.651,5.2374 5.276,16.1643 5.304,22.0823 0.01,3.0831 -0.365,3.6701 -2.181,3.3683 -1.212,-0.2019 -2.923,0.6062 -3.802,1.794 -1.57,2.1087 -1.728,2.0877 -6.733,-0.8855 -2.82,-1.675 -5.945,-3.0503 -6.946,-3.0562 -3.202,-0.019 -12.603,9.8298 -18.615,19.4999 -3.206,5.1566 -5.83,9.8457 -5.833,10.4196 0,0.5741 3.688,2.155 8.209,3.5133 17.599,5.2923 28.341,22.2087 30.357,47.8074 0.591,7.5213 1.451,10.8329 3.987,15.3777 1.78,3.186 3.227,6.5641 3.222,7.5072 -0.02,3.1608 -3.675,3.1911 -9.733,0.08 -8.849,-4.5434 -12.579,-11.0024 -14.904,-25.8068 -0.673,-4.2992 -1.738,-8.7888 -2.366,-9.9767 -2.222,-4.2134 -9.262,-11.22 -13.446,-13.3866 -6.062,-3.1384 -14.488,-3.0053 -17.995,0.2841 -5.761,5.4037 -6.101,6.3633 -6.759,18.969 -0.667,12.7779 -0.475,13.3658 4.369,13.3946 3.46,0.021 7.925,4.4315 7.905,7.8075 0,2.6055 -0.945,3.5349 -5.953,5.9512 -3.266,1.5751 -8.043,3.949 -10.617,5.2758 -5.132,2.6471 -17.35,3.834 -24.132,2.3436 z m 259.345,1.409 c -5.331,-1.7322 -9.25,-6.5188 -11.904,-14.5344 -2.382,-7.1906 -2.45,-8.5596 -1.625,-32.883 0.472,-13.9591 1.236,-33.5311 1.696,-43.4938 l 0.833,-18.1134 -6.641,1.0412 c -8.785,1.3776 -14.493,-0.808 -15.593,-5.9717 -0.647,-3.0291 -0.25,-3.889 3.027,-6.5356 2.072,-1.6761 5.391,-4.698 7.375,-6.7153 2.568,-2.6163 6.882,-4.8113 15.039,-7.6577 11.743,-4.0963 15.171,-4.2507 18.55,-0.8332 2.138,2.1636 2.206,14.5913 0.293,52.333 -0.711,13.9443 -1.398,32.8508 -1.531,42.0144 -0.326,22.726 -0.479,22.6313 24.896,15.6911 7.142,-1.9532 15.523,-4.0728 18.627,-4.7102 9.629,-1.9774 8.574,4.5247 10.465,-64.518 0.49,-17.9226 0.97,-22.4853 2.942,-27.9936 2.87,-8.0068 6.63,-14.2178 8.602,-14.2062 1.849,0.015 4.36,2.999 3.574,4.2526 -0.325,0.5199 -0.175,1.6305 0.338,2.4685 0.747,1.2277 1.707,1.0479 4.941,-0.9237 l 4.015,-2.4473 0.69,3.8069 c 0.395,2.1829 -0.04,6.4104 -1.031,9.9106 -1.207,4.2855 -1.945,14.3293 -2.481,33.7147 -0.417,15.1861 -1.052,33.9468 -1.408,41.6908 -0.609,13.2065 -0.501,14.2381 1.724,16.6361 1.75,1.8826 3.65,2.5639 7.212,2.5851 3.802,0.022 5.684,0.7818 8.798,3.5507 5.624,4.9975 5.37,8.5979 -0.883,12.4473 -15.504,9.5478 -33.542,8.9604 -37.152,-1.2098 -1.461,-4.1212 -1.655,-4.2008 -6.148,-2.5137 -1.749,0.6571 -10.231,2.9131 -18.852,5.013 -8.619,2.1001 -17.674,4.8248 -20.121,6.0551 -5.198,2.612 -13.629,3.5579 -18.267,2.0495 z m -132.023,-4.6964 c -4.609,-1.6742 -6.761,-3.9105 -8.495,-8.8257 -1.264,-3.5828 -0.398,-4.7676 5.943,-8.1291 l 4.16,-2.2054 0,-24.052 c 0.01,-16.6002 0.39,-24.4451 1.276,-25.3211 1.656,-1.6348 1.708,-8.3371 0.09,-9.36 -0.841,-0.5271 -1.094,-4.8811 -0.767,-13.2659 l 0.487,-12.4812 -3.941,-0.8538 c -2.168,-0.4697 -6.358,-1.184 -9.316,-1.587 -4.705,-0.6414 -5.559,-1.182 -6.831,-4.3319 -1.3,-3.2189 -1.206,-3.9316 0.89,-6.749 2.919,-3.9211 15.432,-10.7624 26.961,-14.7412 8.131,-2.8067 8.922,-2.8914 11.431,-1.2268 2.351,1.5608 4.467,1.6418 16.64,0.6384 12.044,-0.9931 14.787,-0.8952 20.133,0.7188 8.309,2.5093 12.748,5.4534 16.837,11.1697 7.052,9.8556 8.313,24.1187 3.154,35.6433 l -2.143,4.7873 3.673,1.5612 c 5.499,2.3361 11.73,10.4351 15.346,19.9491 6.601,17.3717 -1.908,32.3964 -7.196,38.2807 -5.015,5.5946 -11.214,9.149 -17.672,11.5218 -25.148,9.1748 -58.319,13.335 -70.637,8.86 z m 43.345,-24.6768 c 24.014,-3.5561 37.232,-9.5919 37.325,-22.5372 0.03,-5.1407 -0.442,-6.4634 -3.595,-9.8937 -6.577,-7.1533 -20.484,-7.2703 -38.237,-0.3207 -3.933,1.5396 -9.247,3.1164 -11.807,3.5039 l -4.652,0.705 -0.757,6.1259 c -0.416,3.3691 -1.11,10.6835 -1.538,16.2541 l -0.778,10.1279 4.964,-0.6768 c 2.733,-0.3725 15.196,-2.5703 19.075,-3.2884 3.878,-0.7183 0,-7e-4 0,-7e-4 z m -1.017,-56.5234 c 15.143,-4.5589 19.267,-8.4857 20.382,-19.4036 0.442,-4.331 0.07,-5.6934 -2.477,-8.7395 -4.561,-5.4851 -10.227,-6.6142 -21.995,-4.3823 -5.276,1.001 -9.91,2.1684 -10.299,2.5949 -0.84,0.9194 -2.411,32.4105 -1.654,33.1751 0.821,0.8336 5.932,-0.1999 16.043,-3.2446 z m 216.38,20.711 c 1.469,-26.6323 0.274,-46.0027 -0.875,-45.3201 -0.491,0.2928 -4.787,0.8183 -9.546,1.1676 -8.107,0.5944 -8.783,0.469 -10.698,-1.9784 -1.124,-1.4372 -2.947,-2.9642 -4.059,-3.3937 -3.024,-1.171 -0.872,-4.2525 8.033,-11.51 7.872,-6.4142 13.97,-8.9155 24.637,-10.1049 10.043,-1.12 16.466,4.8472 14.499,13.4699 -0.46,2.0208 -1.021,7.2235 -1.244,11.5618 -0.216,4.3383 -0.655,9.5346 -0.962,11.5476 -0.309,2.0414 -0.05,3.6629 0.57,3.6667 0.708,0.012 -0.622,5.1167 -0.959,12.947 -0.414,9.6249 2.612,12.8463 5.254,11.9292 2.878,-1 7.406,-3.1547 15.651,-4.4048 15.957,-2.4201 22.007,-3.461 26.037,-4.4794 l 4.031,-1.0199 1.542,-23.3263 c 0.878,-13.2731 2.182,-24.8297 3.027,-26.815 2.336,-5.5054 8.308,-9.8802 12.345,-9.0479 4.285,0.8838 5.883,2.2725 9.148,7.9482 2.566,4.4592 2.6,4.8414 1.015,11.3675 -0.902,3.7143 -2.501,16.639 -3.555,28.7216 -1.533,17.5813 -1.539,22.1066 -3.194,26.2163 -3.267,2.1477 -3.232,4.4938 -0.529,6.977 0.511,1.7783 -1.825,26.1585 -2.058,38.7687 1.85,0.9203 7.274,1.5189 11.52,2.8802 2.538,0.8143 4.519,4.6853 4.779,5.5787 1.536,5.4187 -14.091,11.3384 -18.302,11.3134 -4.662,-0.028 -13.249,-0.7046 -17.259,-6.529 0,0 -1.467,-9.5974 -1.396,-16.3345 0.07,-6.7372 0.254,-12.3413 0.254,-12.3413 l 1.397,-25.3741 -4.199,0.7434 c -5.506,0.8187 -28.534,6.1996 -38.401,8.9742 l -6.335,1.7815 c -6.786,1.2368 -19.236,-2.6603 -20.168,-15.5812 z"
         id="path4839-6"
         inkscape:connector-curvature="0"
         sodipodi:nodetypes="csscscscsscscscscssscsssscssscsscscccsssssccscsscccssssscsccccscccsscscscscssccsscscccscssscssccccsscsscccscssccccssccsssscccssccsssccsssssscscsssscscscsscscsssscsscscscssssccsscsscccscssssscccccsscsssscssscccccscscscscscscscssssssscssssscsssssssccsscccsssssscccccsscsssscssscccccscscscscsscsccsssccccsscsssssccscsssssssccscscsssssccscccssssccsccccccccccsccsssccsscssccssssssssssssscscscccssssscccssssscsscccccsccsccccssccccsscccscccsscssssccsccsccssccccscsssssssccscssccccscccsccsscsscssssccccccsssssscsssccccscccscscccscsssccccscccccscsccscccczsscscccssscsscscssccscsccscccccccccsccszcscscc" />
      <path
         sodipodi:nodetypes="ccccsccccsssssscsscscsssccssssccccssscscccccssscsscscssssccssscssscccsccscscsssssssscssssccccsccscscsccsc"
         inkscape:connector-curvature="0"
         id="path4224"
         d="m 31906.368,-1212.6854 c -1.818,-0.6053 -3.634,-5.5124 -3.383,-9.1444 0.365,-5.2623 1.99,-7.9496 6.191,-10.2323 l 4.027,-2.1876 0.683,-8.1788 c 1.301,-15.532 2.364,-59.2196 1.458,-59.8734 -0.473,-0.3409 -0.79,-2.4329 -0.706,-4.6486 0.09,-2.2159 -0.202,-4.6547 -0.639,-5.4195 -0.9,-1.5763 -6.406,-1.8836 -13.237,-0.7391 -3.205,0.5373 -4.676,0.3847 -5.901,-0.6111 -1.597,-1.2965 -1.582,-1.42 0.621,-5.3859 1.239,-2.2324 3.315,-5.2674 4.616,-6.7443 2.723,-3.0937 18.904,-11.5734 22.046,-11.5529 1.225,0 3.378,1.3336 5.135,3.1617 2.824,2.9379 3.023,3.5239 2.989,8.7886 0,3.1019 0.346,5.9013 0.812,6.2202 0.845,0.5771 18.801,-8.4761 26.938,-13.5805 5.172,-3.2448 16.887,-7.9627 19.73,-7.9443 4.21,0.028 10.155,2.4754 12.874,5.3021 2.577,2.6776 2.802,3.3723 2.767,8.5546 0,3.1025 0.304,5.8745 0.724,6.1606 0.42,0.2861 5.888,-2.0017 12.15,-5.0838 6.263,-3.0823 15.829,-7.4456 21.26,-9.6962 8.361,-3.4653 10.562,-4.0265 14.383,-3.6654 4.435,0.4198 8.995,3.0321 9.204,5.2746 0.05,0.5838 0.152,1.6888 0.198,2.4554 0.05,0.7666 0.62,1.3973 1.26,1.4014 4.293,0.029 7.991,34.2391 5.333,49.3241 -0.489,2.7726 -1.7,11.3054 -2.691,18.9616 -0.994,7.6564 -2.406,16.6338 -3.14,19.9495 -0.869,3.9157 -1.276,9.447 -1.163,15.7826 l 0.176,9.754 -3.4,-0.1475 c -2.899,-0.1267 -3.925,-0.7921 -7.005,-4.5474 -3.542,-4.3194 -3.607,-4.5225 -3.565,-11.0695 0.02,-3.668 0.906,-12.7127 1.957,-20.0992 2.372,-16.659 3.063,-50.4245 1.238,-60.6434 -1.103,-6.1747 -1.193,-6.3318 -3.373,-5.7542 -4.51,1.1957 -13.675,3.7541 -20.537,8.1419 -12.201,7.8014 -18.979,10.5251 -20.433,14.1909 -1.648,4.1408 -2.67,34.1372 -1.868,51.4683 -1.55,19.6817 -4.126,30.5325 -13.184,33.1126 -7.286,-2.4863 -5.358,-10.2768 -4.498,-21.0865 1.81,-12.7112 1.896,-23.8285 2.235,-34.5946 0.05,-1.4643 0.485,-7.2004 0,-14.861 -0.428,-6.9343 -0.993,-16.6944 -1.255,-21.6889 -0.565,-10.817 -1.403,-12.2772 -6.632,-11.5736 -7.118,0.9573 -34.79,18.563 -37.407,23.799 -0.675,1.3552 -0.824,5.5788 -0.473,13.661 0.285,6.591 0.08,16.3608 -0.465,22.3746 -2.152,23.6418 -2.163,21.8177 0.127,23.1721 1.131,0.6693 4.291,1.7197 7.024,2.3343 5.743,1.2918 6.672,3.0676 2.829,5.3988 -1.419,0.8608 -2.585,2.2117 -2.59,3.0018 0,0.79 -0.393,1.4339 -0.863,1.4308 -0.467,-0.012 -0.856,0.6108 -0.861,1.364 0,3.1432 -8.68,5.5437 -22.643,6.2767 -4.223,0.222 -8.311,0.1929 -9.084,-0.06 z m 224.754,-2.5622 c -2.109,-0.9921 -4.533,-4.4942 -4.538,-6.5558 0,-4.0617 -1.203,-4.086 -10.467,-0.2127 -12.65,5.2897 -19.211,6.753 -27.939,6.2304 -14.316,-0.8571 -21.246,-8.5014 -21.165,-23.3462 0.06,-9.8357 6.786,-23.7606 14.435,-29.8727 6.874,-5.4937 25.615,-14.9801 34.439,-17.4347 4.44,-1.2345 8.622,-2.8375 9.297,-3.5626 1.035,-1.1121 1.081,-2.7482 0.298,-10.4662 -0.512,-5.0314 -1.578,-10.6149 -2.371,-12.4079 l -1.437,-3.2604 -7.125,-0.2283 c -6.603,-0.2133 -7.58,0.012 -13.373,3.0396 -3.441,1.7982 -8.979,5.5018 -12.311,8.2306 -3.334,2.7287 -6.416,4.9588 -6.853,4.9558 -0.437,-0.012 -2.249,2.1693 -4.027,4.827 -2.926,4.3717 -3.306,4.654 -3.987,2.9599 -0.552,-1.3803 0.02,-3.811 2.172,-9.2509 4.101,-10.3468 6.736,-14.4419 12.761,-19.8309 6.697,-5.9924 13.715,-9.7753 20.592,-11.1068 13.194,-2.5524 26.346,6.2245 30.042,20.0454 2.04,7.6329 2.792,15.5873 3.291,34.8111 0.255,9.8359 0.739,17.8849 1.077,17.8871 0.337,0 1.096,-0.6199 1.685,-1.3823 0.589,-0.7625 1.651,-1.3824 2.357,-1.3779 1.932,0.016 0.687,6.7364 -2.449,13.2333 -3.747,7.7594 -3.433,11.3529 0.718,8.2123 2.375,-1.7975 11.394,-6.5217 12.434,-6.515 0.34,0 1.199,-0.6191 1.907,-1.3808 1.634,-1.7548 3.729,-1.7782 3.718,-0.043 0,0.7302 -1.582,3.8718 -3.507,6.9811 -2.403,3.8805 -3.755,7.2868 -4.315,10.8647 -1.012,6.4729 -2.869,8.6951 -10.699,12.7911 -6.482,3.3907 -11.758,4.53 -14.66,3.1655 z m -30.73,-21.0614 c 11.773,-2.3774 22.17,-8.0051 25.516,-13.8108 2.5,-4.3423 2.377,-10.1592 -0.277,-13.0902 -1.147,-1.2615 -2.901,-2.2987 -3.905,-2.3053 -1.107,0 -1.995,-0.7433 -2.257,-1.8723 -0.521,-2.2262 -1.717,-2.3751 -3.686,-0.4593 -0.797,0.7768 -2.177,1.5755 -3.062,1.7748 -5.762,1.2954 -10.252,3.5429 -14.075,7.0425 -10.22,9.354 -13.133,12.4838 -14.244,15.3018 -1.548,3.9205 -1.5,4.5552 0.504,6.7669 2.06,2.2722 6.532,2.4604 15.486,0.6519 z"
         style="display:inline;fill:url(#linearGradient4240);fill-opacity:1;stroke:#552200;stroke-width:5.31057119;stroke-miterlimit:4;stroke-dasharray:none;stroke-opacity:1" />
    </g>
  </g>
</svg>
