<?xml version="1.0" encoding="UTF-8" standalone="no"?>
<!-- Created with Inkscape (http://www.inkscape.org/) -->

<svg
   xmlns:dc="http://purl.org/dc/elements/1.1/"
   xmlns:cc="http://creativecommons.org/ns#"
   xmlns:rdf="http://www.w3.org/1999/02/22-rdf-syntax-ns#"
   xmlns:svg="http://www.w3.org/2000/svg"
   xmlns="http://www.w3.org/2000/svg"
   xmlns:xlink="http://www.w3.org/1999/xlink"
   xmlns:sodipodi="http://sodipodi.sourceforge.net/DTD/sodipodi-0.dtd"
   xmlns:inkscape="http://www.inkscape.org/namespaces/inkscape"
   id="svg2"
   version="1.1"
   inkscape:version="0.91 r13725"
   width="2481"
   height="3503"
   sodipodi:docname="Pepper-and-Carrot_by-David-Revoy_E13P04.svg">
  <metadata
     id="metadata8">
    <rdf:RDF>
      <cc:Work
         rdf:about="">
        <dc:format>image/svg+xml</dc:format>
        <dc:type
           rdf:resource="http://purl.org/dc/dcmitype/StillImage" />
        <dc:title />
      </cc:Work>
    </rdf:RDF>
  </metadata>
  <defs
     id="defs6">
    <linearGradient
       inkscape:collect="always"
       id="linearGradient4313">
      <stop
         style="stop-color:#ff8bff;stop-opacity:1;"
         offset="0"
         id="stop4315" />
      <stop
         style="stop-color:#ffffff;stop-opacity:1"
         offset="1"
         id="stop4317" />
    </linearGradient>
    <filter
       style="color-interpolation-filters:sRGB"
       id="filter5561"
       inkscape:label="deevad outline effect">
      <feFlood
         id="feFlood5563"
         flood-opacity="1"
         flood-color="rgb(0,0,0)"
         result="flood" />
      <feComposite
         id="feComposite5565"
         in2="SourceGraphic"
         in="flood"
         operator="in"
         result="composite1" />
      <feMorphology
         id="feMorphology5567"
         operator="dilate"
         radius="5.5"
         result="result3" />
      <feComposite
         id="feComposite5569"
         in2="result3"
         in="SourceGraphic"
         operator="over"
         result="composite2" />
    </filter>
    <filter
       style="color-interpolation-filters:sRGB;"
       id="filter5561-2"
       inkscape:label="Rough and Dilate"
       y="-0.2"
       height="1.4"
       inkscape:menu="Distort"
       inkscape:menu-tooltip="Create a turbulent contour around">
      <feFlood
         id="feFlood5563-5"
         flood-opacity="1"
         flood-color="rgb(0,0,0)"
         result="flood" />
      <feComposite
         id="feComposite5565-5"
         in2="SourceGraphic"
         in="flood"
         operator="in"
         result="composite1" />
      <feMorphology
         id="feMorphology5567-9"
         operator="dilate"
         radius="5.5"
         result="result3" />
      <feComposite
         id="feComposite5569-5"
         in2="result3"
         in="SourceGraphic"
         operator="over"
         result="fbSourceGraphic" />
      <feColorMatrix
         result="fbSourceGraphicAlpha"
         in="fbSourceGraphic"
         values="0 0 0 -1 0 0 0 0 -1 0 0 0 0 -1 0 0 0 0 1 0"
         id="feColorMatrix4476" />
      <feMorphology
         id="feMorphology4478"
         radius="7"
         operator="dilate"
         result="result8"
         in="fbSourceGraphic" />
      <feComposite
         id="feComposite4480"
         in2="result8"
         result="result10"
         in="fbSourceGraphic"
         operator="arithmetic"
         k1="0.5"
         k3="0.5" />
      <feTurbulence
         id="feTurbulence4482"
         result="result11"
         type="fractalNoise"
         numOctaves="3"
         baseFrequency="0.07" />
      <feDisplacementMap
         id="feDisplacementMap4484"
         in2="result11"
         result="result12"
         in="result10"
         xChannelSelector="R"
         scale="10" />
      <feComposite
         id="feComposite4486"
         in2="result12"
         operator="arithmetic"
         result="result13"
         in="fbSourceGraphic"
         k1="0.25"
         k2="0.25"
         k3="0.75" />
    </filter>
    <filter
       style="color-interpolation-filters:sRGB;"
       id="filter5561-7"
       inkscape:label="Roughen">
      <feFlood
         id="feFlood5563-4"
         flood-opacity="1"
         flood-color="rgb(95,27,88)"
         result="flood" />
      <feComposite
         id="feComposite5565-6"
         in2="SourceGraphic"
         in="flood"
         operator="in"
         result="composite1" />
      <feMorphology
         id="feMorphology5567-3"
         operator="dilate"
         radius="5.5"
         result="result3" />
      <feComposite
         id="feComposite5569-6"
         in2="result3"
         in="SourceGraphic"
         operator="over"
         result="fbSourceGraphic" />
      <feColorMatrix
         result="fbSourceGraphicAlpha"
         in="fbSourceGraphic"
         values="0 0 0 -1 0 0 0 0 -1 0 0 0 0 -1 0 0 0 0 1 0"
         id="feColorMatrix4681" />
      <feTurbulence
         id="feTurbulence4683"
         type="fractalNoise"
         numOctaves="1"
         seed="33"
         baseFrequency="0.001 0.0199"
         result="turbulence"
         in="fbSourceGraphic" />
      <feDisplacementMap
         id="feDisplacementMap4685"
         in2="turbulence"
         in="fbSourceGraphic"
         scale="37.8"
         yChannelSelector="G"
         xChannelSelector="R" />
    </filter>
    <linearGradient
       inkscape:collect="always"
       xlink:href="#linearGradient4313"
       id="linearGradient4319"
       x1="1636.8805"
       y1="1709.2629"
       x2="2493.7808"
       y2="1709.2629"
       gradientUnits="userSpaceOnUse" />
    <filter
       style="color-interpolation-filters:sRGB"
       id="filter4375-5-4-9"
       inkscape:label="deevad outline effect">
      <feFlood
         id="feFlood4377-0-3-0"
         flood-opacity="1"
         flood-color="rgb(255,255,255)"
         result="flood" />
      <feComposite
         id="feComposite4379-6-6-2"
         in2="SourceGraphic"
         in="flood"
         operator="in"
         result="composite1" />
      <feMorphology
         id="feMorphology4393-0-9-2"
         operator="dilate"
         radius="4"
         result="result3" />
      <feComposite
         id="feComposite4385-7-5-85"
         in2="result3"
         in="SourceGraphic"
         operator="over"
         result="composite2" />
    </filter>
  </defs>
  <sodipodi:namedview
     pagecolor="#ffffff"
     bordercolor="#666666"
     borderopacity="1"
     objecttolerance="10"
     gridtolerance="10"
     guidetolerance="10"
     inkscape:pageopacity="0"
     inkscape:pageshadow="2"
     inkscape:window-width="1366"
     inkscape:window-height="688"
     id="namedview4"
     showgrid="false"
     inkscape:zoom="0.46000001"
     inkscape:cx="1198.3123"
     inkscape:cy="545.49803"
     inkscape:window-x="0"
     inkscape:window-y="0"
     inkscape:window-maximized="1"
     inkscape:current-layer="layer1" />
  <g
     inkscape:groupmode="layer"
     id="layer2"
     inkscape:label="artwork"
     sodipodi:insensitive="true">
    <image
       sodipodi:absref="/home/juanjo/Imágenes/Comics-Revoy/13/es/../gfx_Pepper-and-Carrot_by-David-Revoy_E13P04.png"
       xlink:href="../gfx_Pepper-and-Carrot_by-David-Revoy_E13P04.png"
       y="0"
       x="0"
       id="image10"
       height="3503"
       width="2481" />
  </g>
  <g
     inkscape:groupmode="layer"
     id="layer3"
     inkscape:label="speechbubbles" />
  <g
     inkscape:groupmode="layer"
     id="layer1"
     inkscape:label="txt">
    <path
       style="fill:#ffffff;stroke:none"
       d="m 242.34337,1701.3339 c 2.48676,-65.0816 44.27314,-87.3163 88.38946,-100.2747 44.11634,-12.9582 212.88065,-7.1141 242.25655,-0.806 29.37592,6.3082 73.55811,20.6035 87.34736,52.7408 13.78926,32.1373 13.90188,95.8899 -0.16672,118.1313 -14.51814,22.9522 -34.41027,33.789 -133.07941,41.1839 -98.66916,7.3947 -236.55002,-0.8541 -259.30123,-30.3255 -22.75125,-29.4714 -25.23673,-41.2743 -25.44601,-80.6498 z"
       id="path3286-5"
       inkscape:connector-curvature="0"
       sodipodi:nodetypes="czzsszzc" />
    <path
       style="fill:#ffffff;fill-rule:evenodd;stroke:none;stroke-width:1px;stroke-linecap:butt;stroke-linejoin:miter;stroke-opacity:1"
       d="m 275.82723,3035.1905 c 33.44876,4.7867 38.09475,-6.3823 13.93705,-33.5074 32.89192,14.8421 33.74145,-1.4971 29.96464,-22.3382 16.90433,15.244 28.3909,11.8803 34.14578,-11.1691 11.65143,3.6485 15.34901,23.2323 40.41743,0 14.40162,27.953 28.80323,10.778 43.20485,0 -7.2567,23.0037 1.94971,28.0161 35.53948,6.3823 -16.07141,26.2842 -7.38467,28.7591 22.99612,10.3713 -21.94784,27.9876 2.43735,29.4529 23.69299,32.7097 -14.09671,16.2549 -16.06113,27.6078 1.39371,31.1139 -33.08327,2.7296 -28.07206,13.8462 -13.24021,27.125 -28.89011,-5.5013 -38.6835,-0.071 -22.99612,19.9449 -44.65261,-21.926 -37.48519,-5.9202 -39.72059,4.7868 -18.90592,-8.2656 -23.81167,-19.6075 -39.72059,3.1911 -9.45015,-7.0168 -10.94028,-23.6942 -41.11429,-0.7978 -6.95716,-25.8323 -24.67115,-7.224 -38.32688,-3.989 2.40905,-13.6123 4.36534,-26.8298 -31.35835,-7.1801 6.67868,-13.4442 11.51657,-26.0638 -23.69299,-20.7426 30.53994,-13.3462 17.90665,-24.6329 4.87797,-35.9008 z"
       id="path4772"
       inkscape:connector-curvature="0"
       sodipodi:nodetypes="ccccccccccccccccccc" />
    <path
       style="color:#000000;display:inline;overflow:visible;visibility:visible;fill:#ffffff;fill-opacity:1;fill-rule:nonzero;stroke:none;stroke-width:1px;marker:none;enable-background:accumulate"
       d="m 1868.3474,1924.1189 c 54.3098,-48.3252 137.7616,34.2953 137.7616,34.2953 l -23.8433,15.5888 c 0,0 -66.2317,-63.914 -113.9183,-49.8841 z"
       id="path3581"
       inkscape:connector-curvature="0" />
    <path
       style="fill:#ffffff;stroke:none"
       d="m 1919.2809,1954.7428 c 3.6668,-37.8654 18.9677,-69.5074 61.388,-83.7107 42.4203,-14.2033 69.7057,-16.1921 128.0649,-15.5033 58.3591,0.6886 173.1123,-4.4241 209.8717,25.5154 36.7595,29.9396 40.4149,33.9219 45.1648,55.7394 1.1973,39.9746 -17.2214,83.0581 -53.0651,92.3298 -35.8438,9.2716 -67.4645,10.6812 -98.9008,12.9646 -31.4364,2.2833 -75.2433,1.4179 -114.491,-3.0374 -39.2476,-4.4554 -80.7697,-4.1103 -122.8326,-13.5736 -42.0627,-9.4632 -57.1624,-46.0611 -55.1999,-70.7242 z"
       id="path3278"
       inkscape:connector-curvature="0"
       sodipodi:nodetypes="czzzczzzzc" />
    <path
       style="color:#000000;display:inline;overflow:visible;visibility:visible;fill:#ffffff;fill-opacity:1;fill-rule:nonzero;stroke:none;stroke-width:1px;marker:none;enable-background:accumulate"
       d="m 807.18701,1841.3171 c -33.9191,-40.941 -65.92763,-19.5814 -77.33904,-16.6284 -11.4114,2.9531 -52.60696,13.9731 -78.13395,-21.0927 -25.52709,-35.0658 -73.65265,-32.0238 -73.65265,-32.0238 l 37.03502,53.2829 c 0,0 43.26371,26.3805 71.49065,25.0393 28.22696,-1.3413 64.27245,-20.6563 78.41788,-18.5689 14.14543,2.0872 29.27593,-0.6069 42.18209,9.9916 z"
       id="path4018"
       inkscape:connector-curvature="0" />
    <path
       style="fill:#ffffff;stroke:none"
       d="m 146.36056,1546.4385 c 1.93146,-52.9482 34.38693,-71.0376 68.65207,-81.5801 34.26515,-10.5423 165.34434,-5.7878 188.1606,-0.6557 22.81627,5.1322 57.13256,16.7623 67.84267,42.9081 10.71012,26.1458 10.79758,78.0127 -0.12949,96.1076 -11.27624,18.6731 -26.72645,27.4895 -103.36275,33.5058 -76.6363,6.0161 -183.72833,-0.6949 -201.39919,-24.6718 -17.67089,-23.9769 -19.60136,-33.5793 -19.76391,-65.6139 z"
       id="path3286"
       inkscape:connector-curvature="0"
       sodipodi:nodetypes="czzsszzc" />
    <path
       style="color:#000000;display:inline;overflow:visible;visibility:visible;fill:#ffffff;fill-opacity:1;fill-rule:nonzero;stroke:none;stroke-width:1px;marker:none;enable-background:accumulate"
       d="m 903.78847,1159.1561 c 16.63467,9.0232 47.05013,2.0854 61.28297,-23.6046 17.87069,-32.2563 -11.97622,-20.9955 -11.97622,-20.9955 0.0814,-0.061 -3.47121,44.011 -49.30675,44.6001 z"
       id="path5002-9"
       inkscape:connector-curvature="0"
       sodipodi:nodetypes="cscc" />
    <path
       style="color:#000000;display:inline;overflow:visible;visibility:visible;fill:#ffffff;fill-opacity:1;fill-rule:nonzero;stroke:none;stroke-width:1px;marker:none;enable-background:accumulate"
       d="m 1113.1935,1152.3115 c -23.6848,15.0336 -81.4689,-0.9407 -122.32543,-52.0879 -36.94249,-46.2473 27.12433,-22.0474 27.12433,-22.0474 5e-4,6e-4 23.8087,76.5547 95.2011,74.1353 z"
       id="path5002"
       inkscape:connector-curvature="0"
       sodipodi:nodetypes="cscc" />
    <path
       style="color:#000000;display:inline;overflow:visible;visibility:visible;fill:#ffffff;fill-opacity:1;fill-rule:nonzero;stroke:none;stroke-width:1px;marker:none;enable-background:accumulate"
       d="m 1903.2515,1218.2507 c -29.3243,-17.0899 -69.3663,-25.6198 -78.1589,-28.7136 2.1366,12.1275 2.025,23.0126 2.0838,31.5199 -16.0062,-7.2575 -37.5948,-15.932 -65.1657,-36.5525 36.0806,42.3309 57.0072,53.741 83.8544,63.4589 1.7902,-11.0167 -1.9102,-22.0558 -0.8303,-27.815 13.5586,4.139 51.0032,27.6675 51.0032,27.6675 z"
       id="path5066"
       inkscape:connector-curvature="0"
       sodipodi:nodetypes="cccccccc" />
    <path
       style="color:#000000;display:inline;overflow:visible;visibility:visible;fill:#ffffff;fill-opacity:1;fill-rule:nonzero;stroke:none;stroke-width:1px;marker:none;enable-background:accumulate"
       d="m 1887.6643,1158.1804 c 38.4016,-69.0405 255.0419,-71.4346 327.6918,-44.8878 72.6494,26.5465 103.6447,42.4493 107.6296,101.9241 2.2012,32.8532 -2.9271,100.979 -39.4463,118.6246 -36.5192,17.6456 -145.2988,21.5142 -182.1566,22.9031 -36.8578,1.3891 -154.7312,-4.5239 -184.9999,-27.1931 -28.955,-21.6856 -67.1204,-102.3307 -28.7186,-171.3709 z"
       id="path3330"
       inkscape:connector-curvature="0"
       sodipodi:nodetypes="zsssssz" />
    <text
       xml:space="preserve"
       style="font-style:normal;font-variant:normal;font-weight:normal;font-stretch:normal;font-size:12px;line-height:125%;font-family:Lavi;-inkscape-font-specification:Lavi;text-align:center;letter-spacing:0px;word-spacing:0px;text-anchor:middle;fill:#000000;fill-opacity:1;stroke:none"
       x="2089.5955"
       y="1157.3439"
       id="text4246"
       sodipodi:linespacing="125%"><tspan
         sodipodi:role="line"
         style="font-size:45px"
         x="2089.5955"
         y="1157.3439"
         id="tspan4252">¡Vamos, chicas,</tspan><tspan
         sodipodi:role="line"
         style="font-size:45px"
         x="2089.5955"
         y="1213.5939"
         id="tspan4150"> concentrémonos,</tspan><tspan
         sodipodi:role="line"
         style="font-size:45px"
         x="2089.5955"
         y="1269.8439"
         id="tspan4152">estamos llegando al</tspan><tspan
         sodipodi:role="line"
         style="font-size:45px"
         x="2089.5955"
         y="1326.0939"
         id="tspan3414"> último objetivo!</tspan></text>
    <path
       style="color:#000000;display:inline;overflow:visible;visibility:visible;fill:#ffffff;fill-opacity:1;fill-rule:nonzero;stroke:none;stroke-width:1px;marker:none;enable-background:accumulate"
       d="m 903.62222,1102.1562 c -0.78412,-28.4502 31.36538,-56.9006 84.68657,-58.8627 53.32101,-1.9621 95.81261,21.152 103.50561,50.0333 8.4793,31.8331 -41.4272,61.4582 -93.31188,58.8627 -46.20922,-2.3115 -90.17552,-6.8673 -94.8803,-50.0333 z"
       id="path3565"
       inkscape:connector-curvature="0"
       sodipodi:nodetypes="csssc" />
    <text
       xml:space="preserve"
       style="font-style:normal;font-variant:normal;font-weight:normal;font-stretch:normal;font-size:12px;line-height:125%;font-family:Lavi;-inkscape-font-specification:Lavi;text-align:center;letter-spacing:0px;word-spacing:0px;text-anchor:middle;fill:#000000;fill-opacity:1;stroke:none"
       x="1000.6534"
       y="1114.5521"
       id="text4246-2"
       sodipodi:linespacing="125%"><tspan
         sodipodi:role="line"
         style="font-size:45px"
         x="1000.6534"
         y="1114.5521"
         id="tspan4152-6">¡Jijijiji!</tspan></text>
    <text
       xml:space="preserve"
       style="font-style:normal;font-variant:normal;font-weight:normal;font-stretch:normal;font-size:12px;line-height:125%;font-family:Lavi;-inkscape-font-specification:Lavi;text-align:center;letter-spacing:0px;word-spacing:0px;text-anchor:middle;fill:#000000;fill-opacity:1;stroke:none"
       x="316.30652"
       y="1535.8318"
       id="text4246-9"
       sodipodi:linespacing="125%"><tspan
         sodipodi:role="line"
         style="font-size:45px"
         x="324.21667"
         y="1535.8318"
         id="tspan4152-7">¡Oh, </tspan><tspan
         sodipodi:role="line"
         style="font-size:45px"
         x="316.30652"
         y="1592.0818"
         id="tspan4198">está bien...!</tspan></text>
    <text
       xml:space="preserve"
       style="font-style:normal;font-variant:normal;font-weight:normal;font-stretch:normal;font-size:12px;line-height:125%;font-family:Lavi;-inkscape-font-specification:Lavi;text-align:center;letter-spacing:0px;word-spacing:0px;text-anchor:middle;fill:#000000;fill-opacity:1;stroke:none"
       x="2141.0076"
       y="1929.9561"
       id="text4246-9-0"
       sodipodi:linespacing="125%"><tspan
         sodipodi:role="line"
         style="font-size:45px"
         x="2141.0076"
         y="1929.9561"
         id="tspan4233">...y ni siquiera</tspan><tspan
         sodipodi:role="line"
         style="font-size:45px"
         x="2141.0076"
         y="1986.2061"
         id="tspan3426">hemos empezado a...</tspan></text>
    <text
       xml:space="preserve"
       style="color:#000000;font-style:normal;font-variant:normal;font-weight:normal;font-stretch:normal;font-size:160.11950684px;line-height:125%;font-family:Arial;-inkscape-font-specification:Arial;letter-spacing:0.02734961px;word-spacing:0px;clip-rule:nonzero;display:inline;overflow:visible;visibility:visible;opacity:1;isolation:auto;mix-blend-mode:normal;color-interpolation:sRGB;color-interpolation-filters:linearRGB;solid-color:#000000;solid-opacity:1;fill:url(#linearGradient4319);fill-opacity:1;fill-rule:nonzero;stroke:#ffffff;stroke-width:1.11559534;stroke-linecap:butt;stroke-linejoin:miter;stroke-miterlimit:4;stroke-dasharray:none;stroke-dashoffset:0;stroke-opacity:1;marker:none;filter:url(#filter5561-7);color-rendering:auto;image-rendering:auto;shape-rendering:auto;text-rendering:auto;enable-background:accumulate"
       x="1705.2566"
       y="1742.2045"
       id="text4251"
       sodipodi:linespacing="125%"
       transform="matrix(1.2066724,-0.38117004,-1.2048155,2.6846741,210.8676,-1444.7715)"><tspan
         sodipodi:role="line"
         id="tspan4253"
         x="1705.2566"
         y="1742.2045"
         style="font-style:normal;font-variant:normal;font-weight:normal;font-stretch:normal;font-family:Lavi;-inkscape-font-specification:Lavi;fill:url(#linearGradient4319);fill-opacity:1"><tspan
           style="font-size:90px;fill:url(#linearGradient4319);fill-opacity:1"
           id="tspan4349"><tspan
   style="font-size:71.96755987px"
   id="tspan3432">¡</tspan><tspan
   style="font-size:55.47499466px"
   id="tspan3430"> ¡ </tspan><tspan
   style="font-size:52.47634506px"
   id="tspan3428">¡ </tspan>WRoooOwwoww</tspan><tspan
           id="tspan4365"
           style="font-size:45.57711792px;fill:url(#linearGradient4319);fill-opacity:1"> ! </tspan><tspan
           id="tspan4311"
           style="font-size:55.8440094px;fill:url(#linearGradient4319);fill-opacity:1">! </tspan><tspan
           id="tspan4369"
           style="font-size:72.51364136px;fill:url(#linearGradient4319);fill-opacity:1">!</tspan></tspan></text>
    <text
       xml:space="preserve"
       style="color:#000000;font-style:normal;font-variant:normal;font-weight:normal;font-stretch:normal;font-size:47.00374985px;line-height:125%;font-family:Lavi;-inkscape-font-specification:'Lavi, Normal';text-align:center;letter-spacing:0px;word-spacing:0px;writing-mode:lr-tb;text-anchor:middle;clip-rule:nonzero;display:inline;overflow:visible;visibility:visible;opacity:1;isolation:auto;mix-blend-mode:normal;color-interpolation:sRGB;color-interpolation-filters:linearRGB;solid-color:#000000;solid-opacity:1;fill:#000000;fill-opacity:1;fill-rule:nonzero;stroke:#000000;stroke-width:0.90000004;stroke-linecap:butt;stroke-linejoin:miter;stroke-miterlimit:4;stroke-dasharray:none;stroke-dashoffset:0;stroke-opacity:1;filter:url(#filter4375-5-4-9);color-rendering:auto;image-rendering:auto;shape-rendering:auto;text-rendering:auto;enable-background:accumulate"
       x="1367.1063"
       y="691.71692"
       id="text4136"
       sodipodi:linespacing="125%"
       transform="matrix(0.93976911,-0.43795269,-0.15709312,1.3120201,-958.24084,3010.993)"><tspan
         sodipodi:role="line"
         id="tspan4138"
         x="1367.1063"
         y="691.71692">Shhshh</tspan></text>
    <path
       style="color:#000000;display:inline;overflow:visible;visibility:visible;fill:#ffffff;fill-opacity:1;fill-rule:nonzero;stroke:none;stroke-width:1px;marker:none;enable-background:accumulate"
       d="m 1182.7686,3004.3887 c -53.1911,-24.6631 -107.4548,-49.1001 -10.1553,-105.5357 -91.2881,12.6957 -34.8061,-18.4527 -11.9359,-39.6288 -163.47175,38.5784 -56.8357,-28.1113 -15.8662,-69.2092 -36.6188,15.8089 -95.5327,61.5934 -72.0316,-3.4269 -34.6518,26.76 -68.4587,28.84 -62.7314,2.4478 -14.8418,16.0125 -24.26217,20.0738 -23.70485,2.1409 -13.97791,13.1422 -33.12589,25.5876 -17.99087,-39.116 -46.2151,78.1529 -74.08788,66.3258 -90.9311,44.4767 -18.57342,29.1513 -30.97417,31.365 -59.154,-22.7814 -20.97137,68.2496 -55.47742,31.9883 -82.14694,-15.6446 2.95758,90.0975 -78.0638,59.2792 -116.22108,29.7891 10.39062,43.7879 -10.12385,63.0406 -74.96265,17.5406 -3.93978,17.4025 -24.01827,23.9495 -58.49758,20.8107 34.85439,22.1142 36.35208,34.1882 -45.50173,21.1751 56.78677,18.9029 109.08216,37.6795 19.86507,52.4815 25.56589,9.4963 118.5134,5.3784 12.20812,73.3166 56.40863,-15.2743 151.18201,2.9616 114.42036,53.7344 44.37383,-32.6662 91.15629,-55.1513 84.64901,17.8145 44.07349,-75.6801 67.37948,-47.7548 71.03936,-3.6181 3.47318,-34.5099 31.50149,-91.7943 78.06153,-8.2274 -9.05479,-36.1815 5.74798,-76.9575 56.43637,19.0221 21.42589,-42.3536 -5.62635,-94.2997 102.84946,-15.675 -16.57728,-72.4569 38.17632,-34.3798 76.44762,-8.8165 -18.0881,-45.6446 29.1821,-22.4894 91.9781,5.4484 -47.8309,-44.2015 2.2204,-30.9628 33.8762,-28.5188 z"
       id="path3549-3-3-0"
       inkscape:connector-curvature="0"
       sodipodi:nodetypes="cccccccccccccccccccccccccc" />
    <text
       xml:space="preserve"
       style="font-style:normal;font-variant:normal;font-weight:normal;font-stretch:normal;font-size:18.33371735px;line-height:125%;font-family:Lavi;-inkscape-font-specification:Lavi;text-align:center;letter-spacing:0px;word-spacing:0px;text-anchor:middle;fill:#000000;fill-opacity:1;stroke:none;stroke-width:1.20000005;stroke-miterlimit:4;stroke-dasharray:none"
       x="413.45398"
       y="2931.4641"
       id="text4246-9-0-7-1"
       sodipodi:linespacing="125%"
       transform="scale(0.95730753,1.0445964)"><tspan
         sodipodi:role="line"
         style="font-size:68.75143433px;stroke:#000000;stroke-width:1.83337176;stroke-miterlimit:4;stroke-dasharray:none;stroke-opacity:1"
         x="413.45398"
         y="2931.4641"
         id="tspan4233-2-3">¡¡¿?!!</tspan></text>
    <path
       style="fill:#ffffff;fill-rule:evenodd;stroke:none;stroke-width:1px;stroke-linecap:butt;stroke-linejoin:miter;stroke-opacity:1"
       d="m 773.78167,3178.749 18.32267,-106.7687 -28.18166,5.4285 -0.52352,-31.4691 0.74104,-70.3298 26.77283,2.65 -3.34988,74.5691 30.45945,-5.9173 z"
       id="path4780"
       inkscape:connector-curvature="0"
       sodipodi:nodetypes="ccccccccc"
       inkscape:transform-center-x="-12.082509"
       inkscape:transform-center-y="5.8665716" />
    <path
       style="fill:#ffffff;fill-rule:evenodd;stroke:none;stroke-width:1px;stroke-linecap:butt;stroke-linejoin:miter;stroke-opacity:1"
       d="m 503.71196,3181.8003 -28.43105,-56.3497 -25.3357,11.715 -29.60898,-52.061 22.6684,-5.0037 11.81036,40.4128 23.42857,-14.339 z"
       id="path4782"
       inkscape:connector-curvature="0"
       sodipodi:nodetypes="cccccccc" />
    <text
       xml:space="preserve"
       style="font-style:normal;font-variant:normal;font-weight:normal;font-stretch:normal;font-size:16.16489601px;line-height:125%;font-family:Lavi;-inkscape-font-specification:Lavi;text-align:center;letter-spacing:0px;word-spacing:0px;text-anchor:middle;fill:#000000;fill-opacity:1;stroke:#000000;stroke-width:2.29884267;stroke-miterlimit:4;stroke-dasharray:none;stroke-opacity:1"
       x="842.24982"
       y="2822.2231"
       id="text4246-9-0-9"
       sodipodi:linespacing="125%"
       transform="scale(0.95790111,1.0439491)"><tspan
         sodipodi:role="line"
         style="font-size:60.61835861px;stroke:#000000;stroke-width:2.29884267;stroke-miterlimit:4;stroke-dasharray:none;stroke-opacity:1"
         x="842.24982"
         y="2822.2231"
         id="tspan4206-3"><tspan
           style="font-size:87.54251099px;stroke-width:2.29884267"
           id="tspan4275">¡¡¡ PEPPER !</tspan><tspan
           style="font-size:81.25px"
           id="tspan4208"><tspan
             style="font-size:93.75px"
             id="tspan4210">!!</tspan></tspan></tspan></text>
    <text
       sodipodi:linespacing="125%"
       id="text4210"
       y="1668.4404"
       x="459.78479"
       style="font-style:normal;font-variant:normal;font-weight:normal;font-stretch:normal;font-size:12px;line-height:125%;font-family:Lavi;-inkscape-font-specification:Lavi;text-align:center;letter-spacing:0px;word-spacing:0px;text-anchor:middle;fill:#000000;fill-opacity:1;stroke:none"
       xml:space="preserve"><tspan
         id="tspan4214"
         y="1668.4404"
         x="459.78479"
         style="font-size:45px"
         sodipodi:role="line">De todas formas</tspan><tspan
         id="tspan4216"
         y="1724.6904"
         x="459.78479"
         style="font-size:45px"
         sodipodi:role="line">esta misión está</tspan><tspan
         y="1780.9404"
         x="459.78479"
         style="font-size:45px"
         sodipodi:role="line"
         id="tspan4231">chupada...</tspan></text>
  </g>
</svg>
