<?xml version="1.0" encoding="UTF-8" standalone="no"?>
<!-- Created with Inkscape (http://www.inkscape.org/) -->

<svg
   xmlns:dc="http://purl.org/dc/elements/1.1/"
   xmlns:cc="http://creativecommons.org/ns#"
   xmlns:rdf="http://www.w3.org/1999/02/22-rdf-syntax-ns#"
   xmlns:svg="http://www.w3.org/2000/svg"
   xmlns="http://www.w3.org/2000/svg"
   xmlns:xlink="http://www.w3.org/1999/xlink"
   xmlns:sodipodi="http://sodipodi.sourceforge.net/DTD/sodipodi-0.dtd"
   xmlns:inkscape="http://www.inkscape.org/namespaces/inkscape"
   id="svg2"
   version="1.1"
   inkscape:version="0.91 r13725"
   width="2481"
   height="3503"
   sodipodi:docname="Pepper-and-Carrot_by-David-Revoy_E13P04.svg">
  <metadata
     id="metadata8">
    <rdf:RDF>
      <cc:Work
         rdf:about="">
        <dc:format>image/svg+xml</dc:format>
        <dc:type
           rdf:resource="http://purl.org/dc/dcmitype/StillImage" />
        <dc:title />
      </cc:Work>
    </rdf:RDF>
  </metadata>
  <defs
     id="defs6">
    <linearGradient
       inkscape:collect="always"
       id="linearGradient4313">
      <stop
         style="stop-color:#ff8bff;stop-opacity:1;"
         offset="0"
         id="stop4315" />
      <stop
         style="stop-color:#ffffff;stop-opacity:1"
         offset="1"
         id="stop4317" />
    </linearGradient>
    <filter
       style="color-interpolation-filters:sRGB"
       id="filter5561"
       inkscape:label="deevad outline effect">
      <feFlood
         id="feFlood5563"
         flood-opacity="1"
         flood-color="rgb(0,0,0)"
         result="flood" />
      <feComposite
         id="feComposite5565"
         in2="SourceGraphic"
         in="flood"
         operator="in"
         result="composite1" />
      <feMorphology
         id="feMorphology5567"
         operator="dilate"
         radius="5.5"
         result="result3" />
      <feComposite
         id="feComposite5569"
         in2="result3"
         in="SourceGraphic"
         operator="over"
         result="composite2" />
    </filter>
    <filter
       style="color-interpolation-filters:sRGB;"
       id="filter5561-2"
       inkscape:label="Rough and Dilate"
       y="-0.2"
       height="1.4"
       inkscape:menu="Distort"
       inkscape:menu-tooltip="Create a turbulent contour around">
      <feFlood
         id="feFlood5563-5"
         flood-opacity="1"
         flood-color="rgb(0,0,0)"
         result="flood" />
      <feComposite
         id="feComposite5565-5"
         in2="SourceGraphic"
         in="flood"
         operator="in"
         result="composite1" />
      <feMorphology
         id="feMorphology5567-9"
         operator="dilate"
         radius="5.5"
         result="result3" />
      <feComposite
         id="feComposite5569-5"
         in2="result3"
         in="SourceGraphic"
         operator="over"
         result="fbSourceGraphic" />
      <feColorMatrix
         result="fbSourceGraphicAlpha"
         in="fbSourceGraphic"
         values="0 0 0 -1 0 0 0 0 -1 0 0 0 0 -1 0 0 0 0 1 0"
         id="feColorMatrix4476" />
      <feMorphology
         id="feMorphology4478"
         radius="7"
         operator="dilate"
         result="result8"
         in="fbSourceGraphic" />
      <feComposite
         id="feComposite4480"
         in2="result8"
         result="result10"
         in="fbSourceGraphic"
         operator="arithmetic"
         k1="0.5"
         k3="0.5" />
      <feTurbulence
         id="feTurbulence4482"
         result="result11"
         type="fractalNoise"
         numOctaves="3"
         baseFrequency="0.07" />
      <feDisplacementMap
         id="feDisplacementMap4484"
         in2="result11"
         result="result12"
         in="result10"
         xChannelSelector="R"
         scale="10" />
      <feComposite
         id="feComposite4486"
         in2="result12"
         operator="arithmetic"
         result="result13"
         in="fbSourceGraphic"
         k1="0.25"
         k2="0.25"
         k3="0.75" />
    </filter>
    <filter
       style="color-interpolation-filters:sRGB;"
       id="filter5561-7"
       inkscape:label="Roughen">
      <feFlood
         id="feFlood5563-4"
         flood-opacity="1"
         flood-color="rgb(95,27,88)"
         result="flood" />
      <feComposite
         id="feComposite5565-6"
         in2="SourceGraphic"
         in="flood"
         operator="in"
         result="composite1" />
      <feMorphology
         id="feMorphology5567-3"
         operator="dilate"
         radius="5.5"
         result="result3" />
      <feComposite
         id="feComposite5569-6"
         in2="result3"
         in="SourceGraphic"
         operator="over"
         result="fbSourceGraphic" />
      <feColorMatrix
         result="fbSourceGraphicAlpha"
         in="fbSourceGraphic"
         values="0 0 0 -1 0 0 0 0 -1 0 0 0 0 -1 0 0 0 0 1 0"
         id="feColorMatrix4681" />
      <feTurbulence
         id="feTurbulence4683"
         type="fractalNoise"
         numOctaves="1"
         seed="33"
         baseFrequency="0.001 0.0199"
         result="turbulence"
         in="fbSourceGraphic" />
      <feDisplacementMap
         id="feDisplacementMap4685"
         in2="turbulence"
         in="fbSourceGraphic"
         scale="37.8"
         yChannelSelector="G"
         xChannelSelector="R" />
    </filter>
    <linearGradient
       inkscape:collect="always"
       xlink:href="#linearGradient4313"
       id="linearGradient4319"
       x1="1636.8805"
       y1="1709.2629"
       x2="2493.7808"
       y2="1709.2629"
       gradientUnits="userSpaceOnUse" />
    <filter
       style="color-interpolation-filters:sRGB"
       id="filter4375-5-4-9"
       inkscape:label="deevad outline effect">
      <feFlood
         id="feFlood4377-0-3-0"
         flood-opacity="1"
         flood-color="rgb(255,255,255)"
         result="flood" />
      <feComposite
         id="feComposite4379-6-6-2"
         in2="SourceGraphic"
         in="flood"
         operator="in"
         result="composite1" />
      <feMorphology
         id="feMorphology4393-0-9-2"
         operator="dilate"
         radius="4"
         result="result3" />
      <feComposite
         id="feComposite4385-7-5-85"
         in2="result3"
         in="SourceGraphic"
         operator="over"
         result="composite2" />
    </filter>
  </defs>
  <sodipodi:namedview
     pagecolor="#ffffff"
     bordercolor="#666666"
     borderopacity="1"
     objecttolerance="10"
     gridtolerance="10"
     guidetolerance="10"
     inkscape:pageopacity="0"
     inkscape:pageshadow="2"
     inkscape:window-width="1600"
     inkscape:window-height="832"
     id="namedview4"
     showgrid="false"
     inkscape:zoom="0.65053825"
     inkscape:cx="737.4018"
     inkscape:cy="416.56795"
     inkscape:window-x="1280"
     inkscape:window-y="0"
     inkscape:window-maximized="1"
     inkscape:current-layer="layer1" />
  <g
     inkscape:groupmode="layer"
     id="layer2"
     inkscape:label="artwork"
     sodipodi:insensitive="true">
    <image
       sodipodi:absref="/home/willem/Git/peppercarrot_ep13_translation/nl/../gfx_Pepper-and-Carrot_by-David-Revoy_E13P04.png"
       xlink:href="../gfx_Pepper-and-Carrot_by-David-Revoy_E13P04.png"
       y="0"
       x="0"
       id="image10"
       height="3503"
       width="2481" />
  </g>
  <g
     inkscape:groupmode="layer"
     id="layer3"
     inkscape:label="speechbubbles" />
  <g
     inkscape:groupmode="layer"
     id="layer1"
     inkscape:label="txt">
    <path
       style="fill:#ffffff;stroke:none"
       d="m 189.48748,1745.1037 c 2.7936,-63.6683 49.7361,-85.4201 99.29603,-98.0971 49.55996,-12.6768 239.14847,-6.9596 272.14913,-0.7885 33.00068,6.1713 82.63461,20.1561 98.12535,51.5955 15.49075,31.4394 15.61725,93.8074 -0.1873,115.5658 -16.30957,22.4538 -38.65623,33.0552 -149.50038,40.2896 -110.84416,7.2341 -265.73844,-0.8356 -291.29698,-29.667 -25.55857,-28.8313 -28.35074,-40.3779 -28.58585,-78.8983 z"
       id="path3286-5"
       inkscape:connector-curvature="0"
       sodipodi:nodetypes="czzsszzc" />
    <path
       style="fill:#ffffff;fill-rule:evenodd;stroke:none;stroke-width:1px;stroke-linecap:butt;stroke-linejoin:miter;stroke-opacity:1"
       d="m 333.3784,3035.1905 c 25.60091,4.7867 29.15684,-6.3823 10.66709,-33.5074 25.17472,14.8421 25.82493,-1.4971 22.93425,-22.3382 12.93818,15.244 21.72974,11.8803 26.13439,-11.1691 8.91774,3.6485 11.74778,23.2323 30.93457,0 11.02267,27.953 22.04533,10.778 33.068,0 -5.55411,23.0037 1.49226,28.0161 27.2011,6.3823 -12.30069,26.2842 -5.65206,28.7591 17.6007,10.3713 -16.79837,27.9876 1.86549,29.4529 18.13407,32.7097 -10.7893,16.2549 -12.29282,27.6078 1.06671,31.1139 -25.32117,2.7296 -21.48571,13.8462 -10.13375,27.125 -22.11183,-5.5013 -29.60746,-0.071 -17.6007,19.9449 -34.17608,-21.926 -28.6903,-5.9202 -30.40123,4.7868 -14.47015,-8.2656 -18.2249,-19.6075 -30.40122,3.1911 -7.23293,-7.0168 -8.37344,-23.6942 -31.46793,-0.7978 -5.32485,-25.8323 -18.88273,-7.224 -29.33451,-3.989 1.84383,-13.6123 3.34113,-26.8298 -24.00096,-7.1801 5.11171,-13.4442 8.81452,-26.0638 -18.13407,-20.7426 23.37457,-13.3462 13.70534,-24.6329 3.73349,-35.9008 z"
       id="path4772"
       inkscape:connector-curvature="0"
       sodipodi:nodetypes="ccccccccccccccccccc" />
    <path
       style="color:#000000;display:inline;overflow:visible;visibility:visible;fill:#ffffff;fill-opacity:1;fill-rule:nonzero;stroke:none;stroke-width:1px;marker:none;enable-background:accumulate"
       d="m 1868.3474,1924.1189 c 54.3098,-48.3252 137.7616,34.2953 137.7616,34.2953 l -23.8433,15.5888 c 0,0 -66.2317,-63.914 -113.9183,-49.8841 z"
       id="path3581"
       inkscape:connector-curvature="0" />
    <path
       style="fill:#ffffff;stroke:none"
       d="m 1919.2809,1954.7428 c 3.6668,-37.8654 18.9677,-69.5074 61.388,-83.7107 42.4203,-14.2033 69.7057,-16.1921 128.0649,-15.5033 58.3591,0.6886 173.1123,-4.4241 209.8717,25.5154 36.7595,29.9396 40.4149,33.9219 45.1648,55.7394 1.1973,39.9746 -17.2214,83.0581 -53.0651,92.3298 -35.8438,9.2716 -67.4645,10.6812 -98.9008,12.9646 -31.4364,2.2833 -75.2433,1.4179 -114.491,-3.0374 -39.2476,-4.4554 -80.7697,-4.1103 -122.8326,-13.5736 -42.0627,-9.4632 -57.1624,-46.0611 -55.1999,-70.7242 z"
       id="path3278"
       inkscape:connector-curvature="0"
       sodipodi:nodetypes="czzzczzzzc" />
    <path
       style="color:#000000;display:inline;overflow:visible;visibility:visible;fill:#ffffff;fill-opacity:1;fill-rule:nonzero;stroke:none;stroke-width:1px;marker:none;enable-background:accumulate"
       d="m 822.4044,1856.5345 c -33.9191,-40.941 -65.92763,-19.5814 -77.33904,-16.6284 -11.4114,2.9531 -52.60696,13.9731 -78.13395,-21.0927 -25.52709,-35.0658 -73.65265,-32.0238 -73.65265,-32.0238 l 37.03502,53.2829 c 0,0 43.26371,26.3805 71.49065,25.0393 28.22696,-1.3413 64.27245,-20.6563 78.41788,-18.5689 14.14543,2.0872 29.27593,-0.6069 42.18209,9.9916 z"
       id="path4018"
       inkscape:connector-curvature="0" />
    <path
       style="fill:#ffffff;stroke:none"
       d="m 154.04651,1575.6451 c 1.93146,-52.9482 34.38693,-71.0376 68.65207,-81.5801 34.26515,-10.5423 165.34434,-5.7878 188.1606,-0.6557 22.81627,5.1322 57.13256,16.7623 67.84267,42.9081 10.71012,26.1458 10.79758,78.0127 -0.12949,96.1076 -11.27624,18.6731 -26.72645,27.4895 -103.36275,33.5058 -76.6363,6.0161 -183.72833,-0.6949 -201.39919,-24.6718 -17.67089,-23.9769 -19.60136,-33.5793 -19.76391,-65.6139 z"
       id="path3286"
       inkscape:connector-curvature="0"
       sodipodi:nodetypes="czzsszzc" />
    <path
       style="color:#000000;display:inline;overflow:visible;visibility:visible;fill:#ffffff;fill-opacity:1;fill-rule:nonzero;stroke:none;stroke-width:1px;marker:none;enable-background:accumulate"
       d="m 903.78847,1159.1561 c 16.63467,9.0232 47.05013,2.0854 61.28297,-23.6046 17.87069,-32.2563 -11.97622,-20.9955 -11.97622,-20.9955 0.0814,-0.061 -3.47121,44.011 -49.30675,44.6001 z"
       id="path5002-9"
       inkscape:connector-curvature="0"
       sodipodi:nodetypes="cscc" />
    <path
       style="color:#000000;display:inline;overflow:visible;visibility:visible;fill:#ffffff;fill-opacity:1;fill-rule:nonzero;stroke:none;stroke-width:1px;marker:none;enable-background:accumulate"
       d="m 1113.1935,1152.3115 c -23.6848,15.0336 -81.4689,-0.9407 -122.32543,-52.0879 -36.94249,-46.2473 27.12433,-22.0474 27.12433,-22.0474 5e-4,6e-4 23.8087,76.5547 95.2011,74.1353 z"
       id="path5002"
       inkscape:connector-curvature="0"
       sodipodi:nodetypes="cscc" />
    <path
       style="color:#000000;display:inline;overflow:visible;visibility:visible;fill:#ffffff;fill-opacity:1;fill-rule:nonzero;stroke:none;stroke-width:1px;marker:none;enable-background:accumulate"
       d="m 1903.2515,1218.2507 c -29.3243,-17.0899 -69.3663,-25.6198 -78.1589,-28.7136 2.1366,12.1275 2.025,23.0126 2.0838,31.5199 -16.0062,-7.2575 -37.5948,-15.932 -65.1657,-36.5525 36.0806,42.3309 57.0072,53.741 83.8544,63.4589 1.7902,-11.0167 -1.9102,-22.0558 -0.8303,-27.815 13.5586,4.139 51.0032,27.6675 51.0032,27.6675 z"
       id="path5066"
       inkscape:connector-curvature="0"
       sodipodi:nodetypes="cccccccc" />
    <path
       style="color:#000000;display:inline;overflow:visible;visibility:visible;fill:#ffffff;fill-opacity:1;fill-rule:nonzero;stroke:none;stroke-width:1px;marker:none;enable-background:accumulate"
       d="m 1887.6643,1164.4808 c 38.4016,-63.8314 255.0419,-66.0449 327.6918,-41.501 72.6494,24.5435 103.6447,39.2465 107.6296,94.2339 2.2012,30.3745 -2.9271,93.3602 -39.4463,109.6744 -36.5192,16.3142 -145.2988,19.8909 -182.1566,21.175 -36.8578,1.2844 -154.7312,-4.1826 -184.9999,-25.1414 -28.955,-20.0494 -67.1204,-94.6098 -28.7186,-158.4409 z"
       id="path3330"
       inkscape:connector-curvature="0"
       sodipodi:nodetypes="zsssssz" />
    <text
       xml:space="preserve"
       style="font-style:normal;font-variant:normal;font-weight:normal;font-stretch:normal;font-size:12px;line-height:125%;font-family:Lavi;-inkscape-font-specification:Lavi;text-align:center;letter-spacing:0px;word-spacing:0px;text-anchor:middle;fill:#000000;fill-opacity:1;stroke:none"
       x="2098.291"
       y="1181.257"
       id="text4246"
       sodipodi:linespacing="125%"><tspan
         sodipodi:role="line"
         style="font-size:45px"
         x="2098.291"
         y="1181.257"
         id="tspan4152">Kom op meisjes,</tspan><tspan
         sodipodi:role="line"
         style="font-size:45px"
         x="2098.291"
         y="1237.507"
         id="tspan4220">we zijn bijna bij</tspan><tspan
         sodipodi:role="line"
         style="font-size:45px"
         x="2098.291"
         y="1293.757"
         id="tspan4222">het einde!</tspan></text>
    <path
       style="color:#000000;display:inline;overflow:visible;visibility:visible;fill:#ffffff;fill-opacity:1;fill-rule:nonzero;stroke:none;stroke-width:1px;marker:none;enable-background:accumulate"
       d="m 903.62222,1102.1562 c -0.78412,-28.4502 31.36538,-56.9006 84.68657,-58.8627 53.32101,-1.9621 95.81261,21.152 103.50561,50.0333 8.4793,31.8331 -41.4272,61.4582 -93.31188,58.8627 -46.20922,-2.3115 -90.17552,-6.8673 -94.8803,-50.0333 z"
       id="path3565"
       inkscape:connector-curvature="0"
       sodipodi:nodetypes="csssc" />
    <text
       xml:space="preserve"
       style="font-style:normal;font-variant:normal;font-weight:normal;font-stretch:normal;font-size:12px;line-height:125%;font-family:Lavi;-inkscape-font-specification:Lavi;text-align:center;letter-spacing:0px;word-spacing:0px;text-anchor:middle;fill:#000000;fill-opacity:1;stroke:none"
       x="1000.6534"
       y="1114.5521"
       id="text4246-2"
       sodipodi:linespacing="125%"><tspan
         sodipodi:role="line"
         style="font-size:45px"
         x="1000.6534"
         y="1114.5521"
         id="tspan4152-6">Hi hi hi!</tspan></text>
    <text
       xml:space="preserve"
       style="font-style:normal;font-variant:normal;font-weight:normal;font-stretch:normal;font-size:12px;line-height:125%;font-family:Lavi;-inkscape-font-specification:Lavi;text-align:center;letter-spacing:0px;word-spacing:0px;text-anchor:middle;fill:#000000;fill-opacity:1;stroke:none"
       x="325.52966"
       y="1551.2036"
       id="text4246-9"
       sodipodi:linespacing="125%"><tspan
         sodipodi:role="line"
         style="font-size:45px"
         x="325.52966"
         y="1551.2036"
         id="tspan4152-7">Nou, geen</tspan><tspan
         sodipodi:role="line"
         style="font-size:45px"
         x="325.52966"
         y="1607.4536"
         id="tspan4198">paniek...!</tspan></text>
    <text
       xml:space="preserve"
       style="font-style:normal;font-variant:normal;font-weight:normal;font-stretch:normal;font-size:12px;line-height:125%;font-family:Lavi;-inkscape-font-specification:Lavi;text-align:center;letter-spacing:0px;word-spacing:0px;text-anchor:middle;fill:#000000;fill-opacity:1;stroke:none"
       x="2141.0076"
       y="1929.9561"
       id="text4246-9-0"
       sodipodi:linespacing="125%"><tspan
         sodipodi:role="line"
         style="font-size:45px"
         x="2141.0076"
         y="1929.9561"
         id="tspan4233">... en we zijn nog</tspan><tspan
         sodipodi:role="line"
         style="font-size:45px"
         x="2141.0076"
         y="1986.2061"
         id="tspan4238">niet eens bij de ...</tspan></text>
    <text
       xml:space="preserve"
       style="color:#000000;font-style:normal;font-variant:normal;font-weight:normal;font-stretch:normal;font-size:160.11950684px;line-height:125%;font-family:Arial;-inkscape-font-specification:Arial;letter-spacing:0.02734961px;word-spacing:0px;clip-rule:nonzero;display:inline;overflow:visible;visibility:visible;opacity:1;isolation:auto;mix-blend-mode:normal;color-interpolation:sRGB;color-interpolation-filters:linearRGB;solid-color:#000000;solid-opacity:1;fill:url(#linearGradient4319);fill-opacity:1;fill-rule:nonzero;stroke:#ffffff;stroke-width:1.11559534;stroke-linecap:butt;stroke-linejoin:miter;stroke-miterlimit:4;stroke-dasharray:none;stroke-dashoffset:0;stroke-opacity:1;marker:none;filter:url(#filter5561-7);color-rendering:auto;image-rendering:auto;shape-rendering:auto;text-rendering:auto;enable-background:accumulate"
       x="1705.2566"
       y="1742.2045"
       id="text4251"
       sodipodi:linespacing="125%"
       transform="matrix(1.2066724,-0.38117004,-1.2048155,2.6846741,210.8676,-1444.7715)"><tspan
         sodipodi:role="line"
         id="tspan4253"
         x="1705.2566"
         y="1742.2045"
         style="font-style:normal;font-variant:normal;font-weight:normal;font-stretch:normal;font-family:Lavi;-inkscape-font-specification:Lavi;fill:url(#linearGradient4319);fill-opacity:1"><tspan
           style="font-size:90px;fill:url(#linearGradient4319);fill-opacity:1"
           id="tspan4349">VRoeeEwoeww</tspan><tspan
           id="tspan4365"
           style="font-size:45.57711792px;fill:url(#linearGradient4319);fill-opacity:1"> ! </tspan><tspan
           id="tspan4311"
           style="font-size:55.8440094px;fill:url(#linearGradient4319);fill-opacity:1">! </tspan><tspan
           id="tspan4369"
           style="font-size:72.51364136px;fill:url(#linearGradient4319);fill-opacity:1">!</tspan></tspan></text>
    <text
       xml:space="preserve"
       style="color:#000000;font-style:normal;font-variant:normal;font-weight:normal;font-stretch:normal;font-size:47.00374985px;line-height:125%;font-family:Lavi;-inkscape-font-specification:'Lavi, Normal';text-align:center;letter-spacing:0px;word-spacing:0px;writing-mode:lr-tb;text-anchor:middle;clip-rule:nonzero;display:inline;overflow:visible;visibility:visible;opacity:1;isolation:auto;mix-blend-mode:normal;color-interpolation:sRGB;color-interpolation-filters:linearRGB;solid-color:#000000;solid-opacity:1;fill:#000000;fill-opacity:1;fill-rule:nonzero;stroke:#000000;stroke-width:0.90000004;stroke-linecap:butt;stroke-linejoin:miter;stroke-miterlimit:4;stroke-dasharray:none;stroke-dashoffset:0;stroke-opacity:1;filter:url(#filter4375-5-4-9);color-rendering:auto;image-rendering:auto;shape-rendering:auto;text-rendering:auto;enable-background:accumulate"
       x="1367.1063"
       y="691.71692"
       id="text4136"
       sodipodi:linespacing="125%"
       transform="matrix(0.93976911,-0.43795269,-0.15709312,1.3120201,-958.24084,3010.993)"><tspan
         sodipodi:role="line"
         id="tspan4138"
         x="1367.1063"
         y="691.71692">Sssjjj</tspan></text>
    <path
       style="color:#000000;display:inline;overflow:visible;visibility:visible;fill:#ffffff;fill-opacity:1;fill-rule:nonzero;stroke:none;stroke-width:1px;marker:none;enable-background:accumulate"
       d="m 1145.8121,3004.3887 c -48.8266,-24.6631 -98.6378,-49.1001 -9.322,-105.5357 -83.7977,12.6957 -31.9502,-18.4527 -10.9566,-39.6288 -150.05837,38.5784 -52.1721,-28.1113 -14.5643,-69.2092 -33.6141,15.8089 -87.6939,61.5934 -66.1212,-3.4269 -31.8085,26.76 -62.84139,28.84 -57.58403,2.4478 -13.624,16.0125 -22.27143,20.0738 -21.75983,2.1409 -12.83098,13.1422 -30.40781,25.5876 -16.51467,-39.116 -42.423,78.1529 -68.00874,66.3258 -83.46992,44.4767 -17.04941,29.1513 -28.43264,31.365 -54.30023,-22.7814 -19.2506,68.2496 -50.92532,31.9883 -75.40653,-15.6446 2.7149,90.0975 -71.65842,59.2792 -106.68477,29.7891 9.53803,43.7879 -9.29316,63.0406 -68.81173,17.5406 -3.61651,17.4025 -22.0475,23.9495 -53.69767,20.8107 31.99447,22.1142 33.36927,34.1882 -41.76818,21.1751 52.12724,18.9029 100.13163,37.6795 18.23508,52.4815 23.46813,9.4963 108.78901,5.3784 11.20641,73.3166 51.78013,-15.2743 138.77705,2.9616 105.03181,53.7344 40.73282,-32.6662 83.67663,-55.1513 77.7033,17.8145 40.45712,-75.6801 61.85078,-47.7548 65.21035,-3.6181 3.1882,-34.5099 28.9167,-91.7943 71.65635,-8.2274 -8.31182,-36.1815 5.27633,-76.9575 51.80558,19.0221 19.66783,-42.3536 -5.16469,-94.2997 94.41034,-15.675 -15.21706,-72.4569 35.04386,-34.3798 70.17484,-8.8165 -16.6039,-45.6446 26.7876,-22.4894 84.431,5.4484 -43.9062,-44.2015 2.0382,-30.9628 31.0966,-28.5188 z"
       id="path3549-3-3-0"
       inkscape:connector-curvature="0"
       sodipodi:nodetypes="cccccccccccccccccccccccccc" />
    <text
       xml:space="preserve"
       style="font-style:normal;font-variant:normal;font-weight:normal;font-stretch:normal;font-size:18.33371735px;line-height:125%;font-family:Lavi;-inkscape-font-specification:Lavi;text-align:center;letter-spacing:0px;word-spacing:0px;text-anchor:middle;fill:#000000;fill-opacity:1;stroke:none;stroke-width:1.20000005;stroke-miterlimit:4;stroke-dasharray:none"
       x="442.97519"
       y="2933.5452"
       id="text4246-9-0-7-1"
       sodipodi:linespacing="125%"
       transform="scale(0.95730752,1.0445964)"><tspan
         sodipodi:role="line"
         style="font-size:68.75143433px;stroke:#000000;stroke-width:1.83337176;stroke-miterlimit:4;stroke-dasharray:none;stroke-opacity:1"
         x="442.97519"
         y="2933.5452"
         id="tspan4233-2-3">?!!</tspan></text>
    <path
       style="fill:#ffffff;fill-rule:evenodd;stroke:none;stroke-width:1px;stroke-linecap:butt;stroke-linejoin:miter;stroke-opacity:1"
       d="m 773.78167,3178.749 18.32267,-106.7687 -28.18166,5.4285 -0.52352,-31.4691 0.74104,-70.3298 26.77283,2.65 -3.34988,74.5691 30.45945,-5.9173 z"
       id="path4780"
       inkscape:connector-curvature="0"
       sodipodi:nodetypes="ccccccccc"
       inkscape:transform-center-x="-12.082509"
       inkscape:transform-center-y="5.8665716" />
    <path
       style="fill:#ffffff;fill-rule:evenodd;stroke:none;stroke-width:1px;stroke-linecap:butt;stroke-linejoin:miter;stroke-opacity:1"
       d="m 503.71196,3181.8003 -28.43105,-56.3497 -25.3357,11.715 -29.60898,-52.061 22.6684,-5.0037 11.81036,40.4128 23.42857,-14.339 z"
       id="path4782"
       inkscape:connector-curvature="0"
       sodipodi:nodetypes="cccccccc" />
    <text
       xml:space="preserve"
       style="font-style:normal;font-variant:normal;font-weight:normal;font-stretch:normal;font-size:16.16489601px;line-height:125%;font-family:Lavi;-inkscape-font-specification:Lavi;text-align:center;letter-spacing:0px;word-spacing:0px;text-anchor:middle;fill:#000000;fill-opacity:1;stroke:#000000;stroke-width:2.29884267;stroke-miterlimit:4;stroke-dasharray:none;stroke-opacity:1"
       x="842.24982"
       y="2822.2231"
       id="text4246-9-0-9"
       sodipodi:linespacing="125%"
       transform="scale(0.95790111,1.0439491)"><tspan
         sodipodi:role="line"
         style="font-size:60.61835861px;stroke:#000000;stroke-width:2.29884267;stroke-miterlimit:4;stroke-dasharray:none;stroke-opacity:1"
         x="842.24982"
         y="2822.2231"
         id="tspan4206-3"><tspan
           style="font-size:87.54251099px;stroke-width:2.29884267"
           id="tspan4275">PEPPER!</tspan><tspan
           style="font-size:81.25px"
           id="tspan4208"><tspan
             style="font-size:93.75px"
             id="tspan4210">!!</tspan></tspan></tspan></text>
    <text
       sodipodi:linespacing="125%"
       id="text4210"
       y="1727.4451"
       x="435.08051"
       style="font-style:normal;font-variant:normal;font-weight:normal;font-stretch:normal;font-size:12px;line-height:125%;font-family:Lavi;-inkscape-font-specification:Lavi;text-align:center;letter-spacing:0px;word-spacing:0px;text-anchor:middle;fill:#000000;fill-opacity:1;stroke:none"
       xml:space="preserve"><tspan
         y="1727.4451"
         x="435.08051"
         style="font-size:45px"
         sodipodi:role="line"
         id="tspan4231">Deze queeste is</tspan><tspan
         y="1783.6951"
         x="435.08051"
         style="font-size:45px"
         sodipodi:role="line"
         id="tspan4234">toch super-simpel...</tspan></text>
  </g>
</svg>
