<?xml version="1.0" encoding="UTF-8" standalone="no"?>
<!-- Created with Inkscape (http://www.inkscape.org/) -->

<svg
   xmlns:dc="http://purl.org/dc/elements/1.1/"
   xmlns:cc="http://creativecommons.org/ns#"
   xmlns:rdf="http://www.w3.org/1999/02/22-rdf-syntax-ns#"
   xmlns:svg="http://www.w3.org/2000/svg"
   xmlns="http://www.w3.org/2000/svg"
   xmlns:xlink="http://www.w3.org/1999/xlink"
   xmlns:sodipodi="http://sodipodi.sourceforge.net/DTD/sodipodi-0.dtd"
   xmlns:inkscape="http://www.inkscape.org/namespaces/inkscape"
   id="svg2"
   version="1.1"
   inkscape:version="0.91 r"
   width="2481"
   height="3503"
   sodipodi:docname="Pepper-and-Carrot_by-David-Revoy_E13P05.svg">
  <metadata
     id="metadata8">
    <rdf:RDF>
      <cc:Work
         rdf:about="">
        <dc:format>image/svg+xml</dc:format>
        <dc:type
           rdf:resource="http://purl.org/dc/dcmitype/StillImage" />
        <dc:title />
      </cc:Work>
    </rdf:RDF>
  </metadata>
  <defs
     id="defs6">
    <filter
       style="color-interpolation-filters:sRGB"
       id="filter5561"
       inkscape:label="deevad outline effect">
      <feFlood
         id="feFlood5563"
         flood-opacity="1"
         flood-color="rgb(0,0,0)"
         result="flood" />
      <feComposite
         id="feComposite5565"
         in2="SourceGraphic"
         in="flood"
         operator="in"
         result="composite1" />
      <feMorphology
         id="feMorphology5567"
         operator="dilate"
         radius="4.0999999999999996 6.0999999999999996"
         result="result3" />
      <feComposite
         id="feComposite5569"
         in2="result3"
         in="SourceGraphic"
         operator="over"
         result="composite2" />
    </filter>
    <filter
       style="color-interpolation-filters:sRGB;"
       id="filter5561-2"
       inkscape:label="Rough and Dilate"
       y="-0.2"
       height="1.4"
       inkscape:menu="Distort"
       inkscape:menu-tooltip="Create a turbulent contour around">
      <feFlood
         id="feFlood5563-5"
         flood-opacity="1"
         flood-color="rgb(0,0,0)"
         result="flood" />
      <feComposite
         id="feComposite5565-5"
         in2="SourceGraphic"
         in="flood"
         operator="in"
         result="composite1" />
      <feMorphology
         id="feMorphology5567-9"
         operator="dilate"
         radius="5.5"
         result="result3" />
      <feComposite
         id="feComposite5569-5"
         in2="result3"
         in="SourceGraphic"
         operator="over"
         result="fbSourceGraphic" />
      <feColorMatrix
         result="fbSourceGraphicAlpha"
         in="fbSourceGraphic"
         values="0 0 0 -1 0 0 0 0 -1 0 0 0 0 -1 0 0 0 0 1 0"
         id="feColorMatrix4476" />
      <feMorphology
         id="feMorphology4478"
         radius="7"
         operator="dilate"
         result="result8"
         in="fbSourceGraphic" />
      <feComposite
         id="feComposite4480"
         in2="result8"
         result="result10"
         in="fbSourceGraphic"
         operator="arithmetic"
         k1="0.5"
         k3="0.5" />
      <feTurbulence
         id="feTurbulence4482"
         result="result11"
         type="fractalNoise"
         numOctaves="3"
         baseFrequency="0.07" />
      <feDisplacementMap
         id="feDisplacementMap4484"
         in2="result11"
         result="result12"
         in="result10"
         xChannelSelector="R"
         scale="10" />
      <feComposite
         id="feComposite4486"
         in2="result12"
         operator="arithmetic"
         result="result13"
         in="fbSourceGraphic"
         k1="0.25"
         k2="0.25"
         k3="0.75" />
    </filter>
  </defs>
  <sodipodi:namedview
     pagecolor="#ffffff"
     bordercolor="#666666"
     borderopacity="1"
     objecttolerance="10"
     gridtolerance="10"
     guidetolerance="10"
     inkscape:pageopacity="0"
     inkscape:pageshadow="2"
     inkscape:window-width="1920"
     inkscape:window-height="1017"
     id="namedview4"
     showgrid="false"
     inkscape:zoom="0.30245747"
     inkscape:cx="798.75929"
     inkscape:cy="566.19674"
     inkscape:window-x="-8"
     inkscape:window-y="-8"
     inkscape:window-maximized="1"
     inkscape:current-layer="layer1" />
  <g
     inkscape:groupmode="layer"
     id="layer2"
     inkscape:label="artwork"
     sodipodi:insensitive="true">
    <image
       sodipodi:absref="/home/deevad/peppercarrot/webcomics/New/lang/ja/../gfx_Pepper-and-Carrot_by-David-Revoy_E13P05.png"
       xlink:href="../gfx_Pepper-and-Carrot_by-David-Revoy_E13P05.png"
       width="2481"
       height="3503"
       id="image10"
       x="0"
       y="0" />
  </g>
  <g
     inkscape:groupmode="layer"
     id="layer3"
     inkscape:label="speechbubbles" />
  <g
     inkscape:groupmode="layer"
     id="layer1"
     inkscape:label="txt">
    <path
       style="fill:#ffffff;stroke:none"
       d="m 532.23914,400.16668 c -45.86351,5.19378 -53.78367,-6.52279 -61.689,-20.62436 -7.90534,-14.10147 -13.49264,-27.80177 -23.79024,-30.3798 -10.2976,-2.57804 -24.30257,0.17113 -34.44405,3.58885 -10.14159,3.41779 -15.93756,-4.70813 -23.23356,-13.13335 -7.2961,-8.42523 -56.22029,-42.79675 -56.22029,-42.79675 0,0 11.52393,43.77572 19.37723,55.87865 7.8533,12.10292 10.66177,16.56816 15.1493,20.52813 4.48763,3.95999 17.00674,12.09547 28.29249,11.26316 11.28573,-0.8322 21.50892,-7.02128 29.90447,-9.54737 8.39548,-2.5262 20.93698,3.06634 29.25832,12.46487 8.32133,9.39852 30.43229,27.8685 48.5013,24.629 18.06901,-3.23951 28.89403,-11.87103 28.89403,-11.87103 z"
       id="path3023"
       inkscape:connector-curvature="0"
       sodipodi:nodetypes="csssscssssssc"
       inkscape:transform-center-x="-20.79395"
       inkscape:transform-center-y="-15.122872" />
    <path
       style="color:#000000;display:inline;overflow:visible;visibility:visible;fill:#ffffff;fill-opacity:1;fill-rule:nonzero;stroke:none;stroke-width:1px;marker:none;enable-background:accumulate"
       d="m 173.94777,279.37045 c 26.70529,-40.86458 171.95777,-37.37608 220.28598,-19.67155 48.328,17.70435 66.31057,48.19535 68.55836,59.01478 2.24767,10.81935 -3.37172,60.9819 -28.09773,70.81777 -24.72595,9.8358 -95.53208,14.75367 -120.25813,14.75367 -24.72593,0 -103.6567,-6.26044 -123.63004,-20.65521 -19.10647,-13.77011 -43.56384,-63.39494 -16.85844,-104.25946 z"
       id="path3330-4"
       inkscape:connector-curvature="0"
       sodipodi:nodetypes="zsssssz" />
    <path
       style="color:#000000;display:inline;overflow:visible;visibility:visible;fill:#ffffff;fill-opacity:1;fill-rule:nonzero;stroke:none;stroke-width:1px;marker:none;enable-background:accumulate"
       d="m 153.5691,209.71343 c 30.7069,-26.28122 195.75313,-17.96876 252.44659,-16.93141 46.62719,0.85317 73.47468,1.04704 79.67925,42.2342 4.2952,28.5123 -3.87691,39.21926 -32.30801,45.545 -28.43097,6.32569 -109.84694,9.48852 -138.27805,9.48852 -28.43096,0 -119.189,-4.02628 -142.15521,-13.28398 -21.96943,-8.85596 -50.0916,-40.77116 -19.38457,-67.05233 z"
       id="path3330"
       inkscape:connector-curvature="0"
       sodipodi:nodetypes="zsssssz" />
    <path
       style="color:#000000;display:inline;overflow:visible;visibility:visible;fill:#ffffff;fill-opacity:1;fill-rule:nonzero;stroke:none;stroke-width:1px;marker:none;enable-background:accumulate"
       d="m 270.82772,2992.7884 c 30.36367,15.4739 83.1477,45.1922 92.49918,74.6866 -19.70121,19.3641 -42.48001,59.2251 -38.70517,62.6985 64.76275,14.8062 106.67711,25.0788 109.47373,85.7942 9.33598,-60.7502 -36.05796,-78.7734 -90.55167,-93.3575 11.37977,-21.2747 38.6799,-48.8736 39.76201,-58.2399 -1.17481,-7.4346 -24.92436,-63.7446 -71.79485,-98.3929 -46.87055,-34.6483 -40.68323,26.811 -40.68323,26.811 z"
       id="path5901"
       inkscape:connector-curvature="0"
       sodipodi:nodetypes="ccccccsc" />
    <path
       style="fill:#ffffff;fill-rule:evenodd;stroke:none;stroke-width:1px;stroke-linecap:butt;stroke-linejoin:miter;stroke-opacity:1"
       d="m 184.85327,2968.7883 c 36.12079,26.5983 27.30753,41.306 21.68656,56.8583 63.82072,-21.2623 59.31071,2.2133 69.26229,15.3317 26.57058,-20.75 53.97314,-25.9329 74.23915,3.8229 18.63727,-18.2095 36.83664,-31.3199 80.50404,-4.6066 5.14115,-9.464 2.80473,-26.0954 63.44626,-10.2917 -17.11466,-17.579 -5.08288,-29.6197 27.51391,-37.7527 -38.29057,-16.0401 -26.9023,-34.0612 -16.18537,-52.0554 -65.16018,8.1905 -53.9868,-11.8636 -63.26772,-24.3493 -49.69676,31.6488 -60.24269,17.1876 -71.73299,3.8388 -32.60546,29.893 -44.78556,5.9551 -54.18185,-4.2966 -21.1973,42.8257 -42.38472,12.062 -63.16693,4.2799 -4.12658,9.8748 6.65172,24.9821 -48.02117,17.112 10.74488,25.4819 -9.63002,24.5977 -20.09618,32.1087 z"
       id="path4572"
       inkscape:connector-curvature="0"
       sodipodi:nodetypes="cccccccccccccc" />
    <path
       style="color:#000000;display:inline;overflow:visible;visibility:visible;fill:#ffffff;fill-opacity:1;fill-rule:nonzero;stroke:none;stroke-width:1px;marker:none;filter:url(#filter4386);enable-background:accumulate"
       d="m 151.33945,2859.9182 c -1.98579,9.6244 -4.67869,30.1456 0.41085,39.4683 8.58721,15.7294 33.11155,16.7006 -20.19493,102.9161 -12.97157,18.9742 10.12227,52.6533 39.58483,60.9185 10.57914,5.4152 23.69522,25.5182 -18.4285,77.7444 -9.27659,16.6357 -4.52757,42.2473 9.9409,51.5692 7.81785,4.471 20.20097,23.5464 9.99086,43.4641 15.32506,-32.5743 -9.8868,-58.3665 -12.42765,-69.0159 -2.2557,-13.374 21.1803,-44.8627 33.23802,-65.95 12.05771,-21.0872 -11.37174,-48.9814 -19.63666,-57.2068 -8.26485,-8.2253 -24.80904,-13.1047 -23.83655,-27.1758 0.97276,-14.072 33.39346,-55.3249 37.63353,-80.8839 4.23979,-25.5581 -18.75587,-42.5117 -13.60197,-65.9575 9.42421,-35.45 3.4216,-75.4323 -22.67273,-9.8907 z"
       id="path3153"
       inkscape:connector-curvature="0"
       sodipodi:nodetypes="csccccccsscscc" />
    <path
       style="fill:#ffffff;fill-rule:evenodd;stroke:none;stroke-width:1px;stroke-linecap:butt;stroke-linejoin:miter;stroke-opacity:1"
       d="m 108.31353,2835.9696 c 38.9876,-17.3045 46.84885,-36.1819 0,-57.8239 26.05783,-4.6732 67.96267,7.0114 45.33994,-47.9112 34.17441,22.269 66.41606,29.6993 92.53048,-9.9127 18.31025,48.4808 47.37032,31.155 76.80029,11.5648 -3.46333,41.521 19.02807,46.7748 52.74239,36.3464 -7.40571,17.9809 -36.50437,38.8667 16.65547,48.7373 -40.38934,11.1907 -50.1776,26.3793 -24.05792,46.2592 -36.05353,-12.9022 -72.2599,-26.0375 -70.32316,18.9992 -21.89888,-24.5412 -43.79777,-39.5116 -65.69665,-2.4781 -9.89073,-46.4095 -78.52919,-29.958 -55.27282,21.0835 -29.11426,-43.0457 -31.87487,-65.4683 -68.71802,-64.8645 z"
       id="path4564"
       inkscape:connector-curvature="0"
       sodipodi:nodetypes="cccccccccccc" />
    <path
       style="color:#000000;display:inline;overflow:visible;visibility:visible;fill:#ffffff;fill-opacity:1;fill-rule:nonzero;stroke:none;stroke-width:1px;marker:none;enable-background:accumulate"
       d="m 645.43674,3268.1246 c -34.11127,-47.6984 22.61694,-57.8914 30.16367,-64.0547 7.44836,-6.083 28.05372,-12.5993 34.73356,12.4231 25.33662,-22.2775 36.2086,-14.3308 41.10713,4.9976 -6.69943,-24.5156 55.61571,-36.8092 95.06052,-12.9861 -6.37377,-18.2334 2.96323,-60.6766 31.51878,-69.0492 -39.14319,-9.9612 -37.67785,-48.9988 33.13064,-63.4652 -54.48181,0.4306 -72.73445,-20.0076 -11.2833,-63.9708 -20.08611,-0.4202 -75.9264,38.8774 -59.60355,-64.4889 -52.44947,28.981 -151.90964,42.5029 -177.8912,-19.046 -12.6182,27.6174 -58.70913,63.4156 -92.41297,22.5519 28.0652,81.6047 -41.43997,66.217 -59.84296,61.2701 38.18286,29.1086 45.11152,47.7437 -36.94498,45.6493 86.12525,51.9448 3.00954,57.7863 -9.59062,71.9856 66.26258,16.8098 84.93853,50.4129 56.47903,83.8859 52.54409,-27.3701 71.61811,-25.9146 68.89553,-0.081 28.1559,-13.9376 26.43608,-18.478 40.54397,-13.802 7.44852,15.6756 -33.71794,29.4343 15.93675,68.1807 z"
       id="path3549-3"
       inkscape:connector-curvature="0"
       sodipodi:nodetypes="cscccccccccccccccc" />
    <text
       xml:space="preserve"
       style="color:#000000;font-style:normal;font-variant:normal;font-weight:normal;font-stretch:normal;font-size:68.36620375px;line-height:125%;font-family:'Rounded M+ 1c';-inkscape-font-specification:'Rounded M+ 1c, Normal';letter-spacing:0.02734961px;word-spacing:0px;clip-rule:nonzero;display:inline;overflow:visible;visibility:visible;opacity:1;isolation:auto;mix-blend-mode:normal;color-interpolation:sRGB;color-interpolation-filters:linearRGB;solid-color:#000000;solid-opacity:1;fill:#ffffff;fill-opacity:1;fill-rule:nonzero;stroke:#ffffff;stroke-width:1.11559534;stroke-linecap:butt;stroke-linejoin:miter;stroke-miterlimit:4;stroke-dasharray:none;stroke-dashoffset:0;stroke-opacity:1;marker:none;filter:url(#filter5561);color-rendering:auto;image-rendering:auto;shape-rendering:auto;text-rendering:auto;enable-background:accumulate;text-anchor:start;text-align:start;writing-mode:lr;"
       x="1705.2566"
       y="1742.2045"
       id="text4251"
       sodipodi:linespacing="125%"
       transform="matrix(1.1711291,-0.6244068,0,3.0910067,-383.37072,-2560.6915)"><tspan
         sodipodi:role="line"
         id="tspan3449">ガタン ! !</tspan></text>
    <text
       xml:space="preserve"
       style="font-style:normal;font-variant:normal;font-weight:normal;font-stretch:normal;font-size:45px;line-height:125%;font-family:'Rounded M+ 1c';-inkscape-font-specification:'Rounded M+ 1c, Normal';text-align:center;letter-spacing:0px;word-spacing:0px;text-anchor:middle;fill:#000000;fill-opacity:1;stroke:none;writing-mode:lr;"
       x="235.50087"
       y="2821.7837"
       id="text4246-3"
       sodipodi:linespacing="125%"><tspan
         sodipodi:role="line"
         id="tspan3408"> もうっ!</tspan></text>
    <text
       sodipodi:linespacing="125%"
       id="text4530"
       y="2994.0713"
       x="354.42157"
       style="font-style:normal;font-variant:normal;font-weight:normal;font-stretch:normal;font-size:45px;line-height:125%;font-family:'Rounded M+ 1c';-inkscape-font-specification:'Rounded M+ 1c, Normal';text-align:center;letter-spacing:0px;word-spacing:0px;text-anchor:middle;fill:#000000;fill-opacity:1;stroke:none;writing-mode:lr;"
       xml:space="preserve"><tspan
         sodipodi:role="line"
         id="tspan3445">またなの!</tspan></text>
    <text
       sodipodi:linespacing="125%"
       id="text4530-7"
       y="3032.8159"
       x="697.38843"
       style="font-style:normal;font-variant:normal;font-weight:normal;font-stretch:normal;font-size:47.6087532px;line-height:125%;font-family:'Rounded M+ 1c';-inkscape-font-specification:'Rounded M+ 1c, Normal';text-align:center;letter-spacing:0px;word-spacing:0px;writing-mode:lr-tb;text-anchor:middle;fill:#000000;fill-opacity:1;stroke:#000000;stroke-width:0.5;stroke-miterlimit:4;stroke-dasharray:none;stroke-opacity:1"
       xml:space="preserve"
       transform="scale(0.99127735,1.0087994)"><tspan
         sodipodi:role="line"
         id="tspan3439"
         x="697.38843"
         y="3032.8159" /><tspan
         sodipodi:role="line"
         id="tspan3441"
         x="697.38843"
         y="3092.3269">それ離して!</tspan><tspan
         sodipodi:role="line"
         id="tspan3443"
         x="697.38843"
         y="3151.8379">今すぐ !</tspan></text>
    <flowRoot
       xml:space="preserve"
       id="flowRoot4214"
       style="fill:black;stroke:none;stroke-opacity:1;stroke-width:1px;stroke-linejoin:miter;stroke-linecap:butt;fill-opacity:1;font-family:Lavi;font-style:normal;font-weight:normal;font-size:47.0037508px;line-height:125%;letter-spacing:0px;word-spacing:0px;-inkscape-font-specification:'Lavi, Normal';font-stretch:normal;font-variant:normal;text-anchor:middle;text-align:center;writing-mode:lr"><flowRegion
         id="flowRegion4216"><rect
           id="rect4218"
           width="51.45779"
           height="55.745937"
           x="277.30032"
           y="428.39709" /></flowRegion><flowPara
         id="flowPara4220" /></flowRoot>    <flowRoot
       xml:space="preserve"
       id="flowRoot4222"
       style="fill:black;stroke:none;stroke-opacity:1;stroke-width:1px;stroke-linejoin:miter;stroke-linecap:butt;fill-opacity:1;font-family:Lavi;font-style:normal;font-weight:normal;font-size:47.0037508px;line-height:125%;letter-spacing:0px;word-spacing:0px;-inkscape-font-specification:'Lavi, Normal';font-stretch:normal;font-variant:normal;text-anchor:middle;text-align:center;writing-mode:lr"><flowRegion
         id="flowRegion4224"><rect
           id="rect4226"
           width="75.757301"
           height="67.181"
           x="370.21021"
           y="379.79807" /></flowRegion><flowPara
         id="flowPara4228" /></flowRoot>    <path
       style="fill:#ffffff;fill-opacity:1;stroke:none"
       d="m 328.38603,1222.4409 c 24.06422,5.394 33.31964,10.4024 29.00035,13.4848 9.87253,1.541 13.57477,41.6099 4.31929,48.9301 -0.61705,0.7707 -4.93627,3.0822 -3.08519,3.4675 1.85108,0.3852 12.95765,-0.7705 14.80873,0.7705 1.85109,1.5412 -16.65981,23.502 -14.19175,24.2725 2.46821,0.7706 59.23501,-13.87 67.25631,-10.4024 8.02139,3.4675 3.70225,12.3288 6.17037,12.7142 2.46799,0.3852 25.29826,-1.9264 28.38345,-1.5412 3.08503,0.3853 8.63821,11.9436 11.72339,12.3288 3.08519,0.3853 17.27695,-5.0086 19.74508,-4.6233 2.46813,0.3854 1.23395,10.0172 4.31915,10.4024 3.08518,0.3853 16.6598,-8.0907 18.51097,-7.7054 1.851,0.3852 8.63843,19.6491 11.72354,20.8048 3.08519,1.1559 22.83012,-21.1901 24.68127,-21.5754 1.85102,-0.3853 13.57455,26.1988 16.04277,26.5841 2.46813,0.3854 14.80866,-18.1081 16.65982,-17.7228 1.85107,0.3853 13.57462,11.1732 16.04269,11.9437 2.46812,0.7704 18.51097,-23.8872 20.97902,-23.8872 2.46821,0 23.44717,10.4025 25.29834,12.3288 1.85107,1.9264 3.70208,-10.0171 6.17021,-10.0171 2.46814,0 30.8515,6.9349 31.46863,6.5497 0.61698,-0.3853 -4.31929,-7.7056 -2.46821,-7.7056 1.85108,0 21.14302,-6.3206 32.73291,-4.1111 17.41474,-4.2898 66.609,19.9075 66.609,19.9075 0,0 -27.76638,-31.5928 -24.68134,-33.9043 3.08518,-2.3118 14.19191,0.3852 14.80888,-0.7706 0.61698,-1.1559 -6.78735,-6.1645 -4.93642,-7.7056 1.85124,-1.5411 22.83027,-7.7055 24.68127,-9.6318 1.85116,-1.9265 -9.25541,-6.9351 -6.78734,-8.0909 2.4682,-1.1558 38.87309,-8.4761 39.49008,-10.4026 0.61697,-1.9263 -18.51091,-11.1728 -16.04284,-13.8698 2.46814,-2.697 9.25548,-3.8528 8.63843,-5.7791 -0.61705,-1.9265 -12.34068,-4.2382 -11.72362,-6.1646 0.61712,-1.9263 6.78736,-11.5583 8.63843,-13.0994 1.85109,-1.5411 -12.95765,-0.7705 -12.95765,-2.3116 0,-1.5411 54.29874,-42.7658 53.06456,-54.3241 -19.12787,7.3203 -84.53311,20.4197 -104.89501,17.3375 -20.36213,-3.0823 -12.34061,-22.346 -15.42571,-23.5019 -3.08519,-1.1559 -25.91538,6.5498 -29.00056,3.8527 -3.08512,-2.6968 -4.31916,-7.7055 -6.78737,-7.7055 -2.46798,0 -16.65981,10.7877 -19.74485,10.4026 -3.08518,-0.3854 -32.0856,-17.3374 -36.40489,-17.7228 -4.31914,-0.3852 -20.97896,6.5497 -24.6812,6.935 -3.70216,0.3852 -6.78727,-9.2466 -9.87246,-8.4761 -3.08519,0.7704 -22.83012,7.7055 -25.91514,6.935 -3.0852,-0.7705 -5.55333,-3.8528 -8.02154,-3.0822 -2.46799,0.7705 -13.57463,3.8527 -13.57463,3.8527 0,0 -8.02139,-2.3117 -11.72355,-2.3117 -3.70216,0 -29.00033,12.7142 -32.08552,13.4847 -3.08519,0.7705 -40.03789,-13.6533 -38.18681,-15.965 1.85115,-2.3117 -17.34596,16.3504 -21.66518,17.5062 -4.31915,1.1557 -44.07224,-42.4 -45.30621,-41.2441 -1.2341,1.1558 21.85912,47.4084 18.15688,47.7937 -3.70217,0.3853 -12.3406,1.9264 -12.3406,1.9264 l 1.23402,2.3117 c 0,0 -25.91522,-6.1644 -29.00041,-8.476 -3.08511,-2.3117 1.85117,10.017 3.70224,13.0994 -11.10649,-3.0824 -43.80915,-9.632 -46.27713,-11.5584 -2.46822,-1.9265 4.31906,6.935 8.02123,9.6319 -4.9362,-1.1559 -9.25549,-1.5411 -9.25549,-1.5411 l 14.19176,9.2467 -4.3193,0.7705 c 0,0 9.25549,4.2381 9.25549,6.1645 0,1.9263 -24.06407,4.238 -24.06407,4.238 0,0 9.87246,3.4675 7.40433,5.3939 -2.46821,1.9263 -8.63851,3.0821 -8.63851,3.0821 l -1.23395,5.0087 z"
       id="path5888"
       inkscape:connector-curvature="0"
       sodipodi:nodetypes="cccccccccscsccccssscscscccccccscccsscsscsccsccccssccccccccsccccsccccc" />
    <path
       style="color:#000000;display:inline;overflow:visible;visibility:visible;fill:#ffffff;fill-opacity:1;fill-rule:nonzero;stroke:none;stroke-width:1px;marker:none;enable-background:accumulate"
       d="m 143.97089,132.38514 c 23.73359,11.17899 47.94224,22.24748 5.00281,48.94148 40.47473,-6.35793 15.54103,8.38947 5.4851,18.33629 72.40509,-18.74057 25.36785,12.76124 7.36862,32.04858 16.18566,-7.52529 42.13084,-29.07942 31.99985,1.22454 5.12891,-1.31005 11.20119,-5.21616 13.63333,0.89553 6.57294,-4.0726 11.42409,-5.06172 14.20949,-2.35089 6.51522,-7.50896 10.67916,-9.44222 10.51553,-1.11439 6.14509,-6.17202 7.97313,-3.97711 9.46617,-1.13317 10.5891,-13.29779 14.40447,-9.42463 18.46906,-6.18284 6.00258,-7.99049 12.84907,-6.03363 20.40375,4.27359 8.11074,-13.62736 16.57995,-12.63773 25.24993,-3.45584 1.75965,-10.77439 6.8078,-21.50565 12.23767,1.1004 3.52688,-1.74837 5.95797,-15.93147 17.44401,7.93761 1.37718,-25.98851 42.37423,-16.37838 59.4549,-2.88199 -4.81845,-20.27503 4.20045,-29.31705 33.20326,-8.52424 1.66798,-8.0987 10.55269,-11.24009 25.87704,-9.95834 -15.57962,-10.08893 -16.30108,-15.68655 20.10488,-10.06152 -25.30313,-8.48668 -48.61136,-16.93755 -9.06599,-24.2627 -9.18208,-3.35378 -39.47694,3.60616 -5.76354,-33.97395 -23.6455,8.00401 -45.02501,9.81062 -51.05674,-24.36343 -12.82581,8.72919 -26.94043,12.9143 -37.66953,-7.83966 -10.21903,9.45122 -24.26836,6.88657 -31.52631,2.04082 -2.15005,10.51289 -17.38595,26.42219 -37.21658,-3.27205 4.18975,16.75074 0.40144,43.24383 -22.5543,-1.05532 -0.58917,7.62394 8.49446,49.30506 -56.66331,-1.66633 7.69953,33.5526 -13.88868,13.72289 -31.00159,2.05018 8.24496,21.09782 -4.68539,22.48629 -32.69891,9.83606 21.44474,20.27651 -0.84114,14.38517 -14.9086,13.41158 z"
       id="path3549-3-3-0"
       inkscape:connector-curvature="0"
       sodipodi:nodetypes="ccccccccccccccccccccccccccccc" />
    <text
       xml:space="preserve"
       style="font-style:normal;font-variant:normal;font-weight:normal;font-stretch:normal;font-size:45px;line-height:125%;font-family:'Rounded M+ 1c';-inkscape-font-specification:'Rounded M+ 1c, Normal';text-align:center;letter-spacing:0px;word-spacing:0px;writing-mode:lr-tb;text-anchor:middle;fill:#000000;fill-opacity:1;stroke:none"
       x="318.01895"
       y="196.36842"
       id="text4246-9-0"
       sodipodi:linespacing="125%"><tspan
         sodipodi:role="line"
         id="tspan3414"
         x="318.01895"
         y="196.36842">...ダメ!</tspan><tspan
         sodipodi:role="line"
         id="tspan3416"
         x="318.01895"
         y="252.61842">間に合わない!</tspan><tspan
         sodipodi:role="line"
         id="tspan3418"
         x="318.01895"
         y="308.86841">ペッパー...</tspan><tspan
         sodipodi:role="line"
         id="tspan3420"
         x="318.01895"
         y="365.11841">ペッパーが...</tspan></text>
    <text
       xml:space="preserve"
       style="font-size:103.7499999px;font-style:normal;font-variant:normal;font-weight:normal;font-stretch:normal;text-align:center;line-height:125%;letter-spacing:0px;word-spacing:0px;text-anchor:middle;fill:#000000;fill-opacity:1;stroke:#000000;stroke-width:2.72444701;stroke-miterlimit:4;stroke-opacity:1;stroke-dasharray:none;font-family:'Rounded M+ 1c';-inkscape-font-specification:'Rounded M+ 1c, Normal';writing-mode:lr;"
       x="618.81335"
       y="1192.735"
       id="text4246-9-0-9"
       sodipodi:linespacing="125%"
       transform="scale(0.943293,1.060116)"><tspan
         sodipodi:role="line"
         id="tspan3497"
         style="font-size:69.99999993px">いやあぁぁ!!! </tspan></text>
    <path
       style="color:#000000;display:inline;overflow:visible;visibility:visible;fill:#000000;fill-opacity:1;fill-rule:nonzero;stroke:none;stroke-width:1px;marker:none;enable-background:accumulate"
       d="m 886.47708,501.3257 14.63576,-4.89304 4.44778,26.21506 26.22964,-16.52319 c 0,0 11.89283,13.9973 17.88539,15.01285 5.9926,1.01557 -3.84951,12.82731 -3.84951,12.82731 0,0 13.09141,14.2004 15.16567,17.54736 -4.72512,9.68327 -15.76552,21.29171 -15.76552,21.29171 l 49.27708,29.31921 -21.54975,-26.11788 27.26668,-14.84943 -16.59453,-26.77593 7.6752,-3.19273 -18.43845,-21.0974 16.48005,-16.67761 -13.41407,-11.2595 8.32087,-9.07413 10.8555,12.32392 5.46303,-27.53129 19.4989,0.30905 18.324,-22.35594 2.1323,-21.70278 19.9298,-13.5795 -2.8876,-32.95783 23.8781,-13.49158 -8.2048,-38.8564 3.2779,-37.70088 -15.2579,-5.5812 18.7157,-14.80114 -19.8907,-7.86405 45.6007,-24.65614 -25.7066,-45.4444 14.453,-37.54932 -16.8595,-8.38341 15.6154,-21.06978 c -11.1632,1.60287 -9.2037,-9.5899 -9.2037,-9.5899 0,0 -122.91904,-2.31614 -196.64115,0.57235 z"
       id="path4448"
       inkscape:connector-curvature="0"
       sodipodi:nodetypes="ccccsccccccccccccccccccccccccccccccccc" />
    <text
       xml:space="preserve"
       style="font-style:normal;font-variant:normal;font-weight:normal;font-stretch:normal;font-size:52.73375035px;line-height:125%;font-family:'Rounded M+ 1c';-inkscape-font-specification:'Rounded M+ 1c, Normal';text-align:center;letter-spacing:0px;word-spacing:0px;text-anchor:middle;fill:#ffffff;fill-opacity:1;stroke:#ffffff;stroke-width:1.59633911;stroke-miterlimit:4;stroke-dasharray:none;stroke-opacity:1;writing-mode:lr;"
       x="1051.0415"
       y="186.04254"
       id="text4246-9-0-9-2"
       sodipodi:linespacing="125%"
       transform="scale(0.92299533,1.0834291)"><tspan
         sodipodi:role="line"
         id="tspan3499">ムハハ</tspan><tspan
         sodipodi:role="line"
         id="tspan3501">ハハハ</tspan><tspan
         sodipodi:role="line"
         id="tspan3503">ハハッ</tspan><tspan
         sodipodi:role="line"
         id="tspan3505">!!!</tspan></text>
    <path
       style="color:#000000;display:inline;overflow:visible;visibility:visible;fill:#ffffff;fill-opacity:1;fill-rule:nonzero;stroke:none;stroke-width:1px;marker:none;enable-background:accumulate"
       d="m 2058.842,1011.5534 c -7.1958,26.9654 -47.781,29.2267 -62.7214,23.7454 30.1166,30.1659 29.0667,48.9084 -11.8233,51.8184 68.5731,54.3669 12.5361,46.1398 1.4833,59.9257 53.8425,18.7361 29.7528,42.0534 20.1669,65.2655 61.8867,0.7971 36.9404,29.0766 25.4678,51.766 16.1984,-11.9213 57.3742,-62.9584 58.874,-15.8216 35.5937,-42.5186 55.9836,-48.9741 67.1221,5.2875 18.5703,-44.5879 49.7641,-33.7764 57.4985,2.4531 28.3661,-70.0522 64.1814,-11.7372 95.4867,6.39 -9.0608,-24.109 -13.4177,-93.4342 48.6202,-49.5668 -24.8704,-34.0138 11.6154,-39.6927 35.5496,-47.1928 -31.8046,-11.099 -37.6664,-22.5473 21.3882,-34.8674 -44.9369,-1.1918 -86.841,-3.6334 -34.1201,-45.6487 -16.5401,-1.0168 -61.2034,11.6529 -20.6294,-83.3297 -113.1245,94.9902 -66.4147,-115.87944 -59.4183,-240.02617 -49.264,198.45137 -64.6069,311.76547 -107.5976,236.36289 -16.7322,48.95128 -53.9428,45.63758 -72.5113,4.99108 -11.6957,27.1669 -29.1917,45.5143 -62.8359,8.4476 z"
       id="path3549-3-7"
       inkscape:connector-curvature="0"
       sodipodi:nodetypes="ccccccccccccccccccc" />
    <path
       style="color:#000000;display:inline;overflow:visible;visibility:visible;fill:#ffffff;fill-opacity:1;fill-rule:nonzero;stroke:none;stroke-width:1px;marker:none;enable-background:accumulate"
       d="m 1685.954,539.26594 c 58.7471,-243.52358 70.3603,-217.3243 76.8995,-177.34797 46.7446,-53.36968 96.2756,-35.69967 145.6485,-22.06754 10.7119,-16.02938 9.4224,-40.23882 50.5866,-35.51254 -7.4747,-15.46821 4.9385,-26.50583 35.0968,-33.59054 -42.133,-8.47116 -33.0777,-18.9561 41.9383,-31.18493 -58.1147,0.33388 -78.2431,-21.16508 -14.3017,-58.41694 -21.447,-0.36792 -120.6077,52.19167 -107.013,-35.46859 -33.5004,28.73942 -70.8813,45.03697 -126.7163,-12.24102 -12.4421,23.41628 -33.2132,39.51444 -80.2563,9.05052 -6.6537,23.11038 -58.8336,26.22072 -78.652,22.0144 41.8163,24.71024 42.3108,40.65055 -10.1797,44.34592 93.8139,44.1063 20.6883,38.82523 7.7693,50.86101 71.322,14.29526 42.5033,34.78688 32.398,54.78204 79.9525,-1.17633 59.496,32.45594 26.782,224.77618 z"
       id="path3549-3-6"
       inkscape:connector-curvature="0"
       sodipodi:nodetypes="ccccccccccccccc" />
    <text
       xml:space="preserve"
       style="font-style:normal;font-variant:normal;font-weight:normal;font-stretch:normal;font-size:84.92875164px;line-height:125%;font-family:'Rounded M+ 1c';-inkscape-font-specification:'Rounded M+ 1c, Normal';text-align:center;letter-spacing:0px;word-spacing:0px;text-anchor:middle;fill:#000000;fill-opacity:1;stroke:#000000;stroke-width:2.57091856;stroke-miterlimit:4;stroke-dasharray:none;stroke-opacity:1;writing-mode:lr;"
       x="2046.1486"
       y="247.88857"
       id="text4246-9-0-9-5"
       sodipodi:linespacing="125%"
       transform="scale(0.88838522,1.1256378)"><tspan
         sodipodi:role="line"
         id="tspan3453">ぐうぅ!!!</tspan></text>
    <text
       sodipodi:linespacing="125%"
       id="text4437"
       y="995.3399"
       x="2934.7341"
       style="font-style:normal;font-variant:normal;font-weight:normal;font-stretch:normal;font-size:57.331252px;line-height:125%;font-family:'Rounded M+ 1c';-inkscape-font-specification:'Rounded M+ 1c, Normal';text-align:end;letter-spacing:0px;word-spacing:0px;text-anchor:end;fill:#000000;fill-opacity:1;stroke:none;writing-mode:lr;"
       xml:space="preserve"
       transform="matrix(0.8951569,0,-0.33294841,1.1171226,0,0)"><tspan
         sodipodi:role="line"
         id="tspan3410">...この仇は</tspan><tspan
         sodipodi:role="line"
         id="tspan3412">私が取る! </tspan></text>
    <text
       transform="matrix(1.0367088,-0.54286285,-0.02673176,2.0753496,137.71231,-926.71154)"
       sodipodi:linespacing="125%"
       id="text4443"
       y="1742.2045"
       x="1705.2566"
       style="color:#000000;font-style:normal;font-variant:normal;font-weight:normal;font-stretch:normal;font-size:60.76951524px;line-height:125%;font-family:'Rounded M+ 1c';-inkscape-font-specification:'Rounded M+ 1c, Normal';letter-spacing:0.02734961px;word-spacing:0px;clip-rule:nonzero;display:inline;overflow:visible;visibility:visible;opacity:1;isolation:auto;mix-blend-mode:normal;color-interpolation:sRGB;color-interpolation-filters:linearRGB;solid-color:#000000;solid-opacity:1;fill:#ffffff;fill-opacity:1;fill-rule:nonzero;stroke:#ffffff;stroke-width:1.11559534;stroke-linecap:butt;stroke-linejoin:miter;stroke-miterlimit:4;stroke-dasharray:none;stroke-dashoffset:0;stroke-opacity:1;marker:none;filter:url(#filter5561);color-rendering:auto;image-rendering:auto;shape-rendering:auto;text-rendering:auto;enable-background:accumulate;text-anchor:start;text-align:start;writing-mode:lr;"
       xml:space="preserve"><tspan
         sodipodi:role="line"
         id="tspan3451">コロン ! !</tspan></text>
    <text
       xml:space="preserve"
       style="color:#000000;font-style:normal;font-variant:normal;font-weight:normal;font-stretch:normal;font-size:39.41929981px;line-height:125%;font-family:'Rounded M+ 1c';-inkscape-font-specification:'Rounded M+ 1c, Normal';letter-spacing:0.02734961px;word-spacing:0px;clip-rule:nonzero;display:inline;overflow:visible;visibility:visible;opacity:1;isolation:auto;mix-blend-mode:normal;color-interpolation:sRGB;color-interpolation-filters:linearRGB;solid-color:#000000;solid-opacity:1;fill:#ffffff;fill-opacity:1;fill-rule:nonzero;stroke:#ffffff;stroke-width:1.11559534;stroke-linecap:butt;stroke-linejoin:miter;stroke-miterlimit:4;stroke-dasharray:none;stroke-dashoffset:0;stroke-opacity:1;marker:none;filter:url(#filter5561);color-rendering:auto;image-rendering:auto;shape-rendering:auto;text-rendering:auto;enable-background:accumulate;text-anchor:start;text-align:start;writing-mode:lr;"
       x="1705.2566"
       y="1742.2045"
       id="text4459"
       sodipodi:linespacing="125%"
       transform="matrix(1.2754967,0.26029613,-0.64379413,2.706703,1069.1753,-1958.4847)"><tspan
         sodipodi:role="line"
         id="tspan3433">ドカン !!</tspan></text>
    <text
       transform="matrix(0.9799019,-0.52733317,-0.09273463,2.8026154,152.09075,-625.87526)"
       sodipodi:linespacing="125%"
       id="text4469"
       y="1742.2045"
       x="1705.2566"
       style="color:#000000;font-style:normal;font-variant:normal;font-weight:normal;font-stretch:normal;font-size:40.07617875px;line-height:125%;font-family:'Rounded M+ 1c';-inkscape-font-specification:'Rounded M+ 1c, Normal';letter-spacing:0.02734961px;word-spacing:0px;clip-rule:nonzero;display:inline;overflow:visible;visibility:visible;opacity:1;isolation:auto;mix-blend-mode:normal;color-interpolation:sRGB;color-interpolation-filters:linearRGB;solid-color:#000000;solid-opacity:1;fill:#ffffff;fill-opacity:1;fill-rule:nonzero;stroke:#ffffff;stroke-width:1.11559534;stroke-linecap:butt;stroke-linejoin:miter;stroke-miterlimit:4;stroke-dasharray:none;stroke-dashoffset:0;stroke-opacity:1;marker:none;filter:url(#filter5561);color-rendering:auto;image-rendering:auto;shape-rendering:auto;text-rendering:auto;enable-background:accumulate;text-anchor:start;text-align:start;writing-mode:lr;"
       xml:space="preserve"
       inkscape:transform-center-x="14.686271"
       inkscape:transform-center-y="36.699667"><tspan
         sodipodi:role="line"
         id="tspan3435">ドン !!</tspan></text>
    <text
       xml:space="preserve"
       style="font-style:normal;font-variant:normal;font-weight:normal;font-stretch:normal;font-size:54.24250031px;line-height:125%;font-family:'Rounded M+ 1c';-inkscape-font-specification:'Rounded M+ 1c, Normal';text-align:center;letter-spacing:0px;word-spacing:0px;writing-mode:lr-tb;text-anchor:middle;fill:#000000;fill-opacity:1;stroke:none;stroke-width:1.89999998;stroke-miterlimit:4;stroke-dasharray:none"
       x="712.11145"
       y="2988.2063"
       id="text4246-3-9"
       sodipodi:linespacing="125%"
       transform="scale(0.97756652,1.0229483)"><tspan
         sodipodi:role="line"
         id="tspan3437"
         x="712.11145"
         y="2988.2063">キャロット!</tspan></text>
  </g>
</svg>
